<?xml version="1.0" encoding="UTF-8" standalone="no"?>
<!-- Created with Inkscape (http://www.inkscape.org/) -->

<svg
   xmlns:dc="http://purl.org/dc/elements/1.1/"
   xmlns:cc="http://creativecommons.org/ns#"
   xmlns:rdf="http://www.w3.org/1999/02/22-rdf-syntax-ns#"
   xmlns:svg="http://www.w3.org/2000/svg"
   xmlns="http://www.w3.org/2000/svg"
   xmlns:sodipodi="http://sodipodi.sourceforge.net/DTD/sodipodi-0.dtd"
   xmlns:inkscape="http://www.inkscape.org/namespaces/inkscape"
   width="1052.3622"
   height="1488.189"
   id="svg6711"
   version="1.1"
   inkscape:version="0.48.4 r9939"
   sodipodi:docname="middleRing.svg"
   inkscape:export-filename="C:\Users\Oneidavar\Desktop\basteln\middleRingVector.png"
   inkscape:export-xdpi="150"
   inkscape:export-ydpi="150">
  <defs
     id="defs6713" />
  <sodipodi:namedview
     id="base"
     pagecolor="#ffffff"
     bordercolor="#666666"
     borderopacity="1.0"
     inkscape:pageopacity="0.0"
     inkscape:pageshadow="2"
     inkscape:zoom="1.979899"
     inkscape:cx="525.82365"
     inkscape:cy="412.82609"
     inkscape:document-units="px"
     inkscape:current-layer="g6730"
     showgrid="false"
     inkscape:window-width="1680"
     inkscape:window-height="988"
     inkscape:window-x="-8"
     inkscape:window-y="-8"
     inkscape:window-maximized="1" />
  <metadata
     id="metadata6716">
    <rdf:RDF>
      <cc:Work
         rdf:about="">
        <dc:format>image/svg+xml</dc:format>
        <dc:type
           rdf:resource="http://purl.org/dc/dcmitype/StillImage" />
        <dc:title />
      </cc:Work>
    </rdf:RDF>
  </metadata>
  <g
     inkscape:label="Ebene 1"
     inkscape:groupmode="layer"
     id="layer1"
     transform="translate(0,435.82679)">
    <g
       id="g6730"
       transform="translate(-5.7142858,-2.8571424)">
      <path
         style="fill:#b72631"
         d="m 553.89348,795.5575 -34.39191,0.3619 c -33.11231,0.34844 -34.44472,0.2897 -35.81167,-1.57921 -1.12305,-1.53544 -0.9147,-3.44303 -0.9147,-20.59709 0,-16.183 -0.31722,-21.92409 -1.25,-22.62295 -2.65042,-1.98573 -58.55177,-19.5057 -60.36745,-18.91968 -1.0354,0.33418 -6.81953,5.55843 -12.85363,11.60945 -6.03409,6.05103 -11.5175,11.00186 -12.18537,11.00186 -0.66786,0 -25.16573,-23.83405 -54.43971,-52.96456 l -53.22542,-52.96456 6.98053,-7.34868 c 3.83929,-4.04178 9.11594,-9.31704 11.72588,-11.7228 2.60994,-2.40576 5.15323,-5.13625 5.65176,-6.06777 0.67929,-1.26926 -2.74577,-9.30359 -13.66842,-32.06265 -8.01616,-16.70294 -15.03344,-30.93148 -15.59395,-31.61898 -0.74743,-0.91678 -5.8648,-1.25 -19.19665,-1.25 -12.80477,0 -12.97641,-0.85977 -13.82172,-1.70508 -0.88653,-0.88653 -1.2,-10.13 -1.2,-35.38499 l 0,-34.18499 -0.51182,-45.64424 c 0,0 0.28218,-33.60402 1.38426,-34.93201 1.24613,-1.50155 0.86172,-1.14869 50.62907,-1.14869 33.95594,0 55.80874,0.37879 57.43078,0.99549 l 2.61834,0.99549 -0.30324,73.85157 c -0.24962,60.79208 -0.54594,74.14387 -1.67568,75.50451 -1.20156,1.44712 -4.15884,1.65294 -23.75,1.65294 -22.11683,0 -22.37756,0.0246 -22.37756,2.11511 0,2.54298 15.7315,35.90298 17.69391,37.52146 0.88737,0.73184 2.61777,0.85698 4.85943,0.3514 2.6759,-0.60351 7.11308,-4.39465 19.17899,-16.38657 8.63372,-8.58077 16.38842,-15.58974 17.23267,-15.57549 0.84425,0.0143 9.635,8.22675 19.535,18.25 74.36523,75.29104 85.60225,86.98211 85.3084,88.75543 -0.16962,1.0236 -7.6209,9.2964 -16.5584,18.38399 -8.9375,9.08759 -16.25,16.97642 -16.25,17.53073 0,0.55431 1.0125,1.6516 2.25,2.43842 3.43709,2.18537 34.50334,11.886 35.69879,11.14717 0.67604,-0.41782 1.05121,-7.5198 1.05121,-19.89954 0,-13.89434 0.34776,-19.68744 1.25,-20.82274 1.10914,-1.39564 9.67098,-1.63953 75.97918,-2.16429 72.81703,-0.57628 74.7553,-0.5426 75.75,1.31601 0.65984,1.23293 1.02082,21.86668 1.02082,58.35072 0,48.12288 -0.71912,53.59048 -1.9571,54.61791 -1.08695,0.9021 -9.87109,1.12226 -34.93798,0.8759 l -33.48596,-0.3291 z"
         id="path6738"
         inkscape:connector-curvature="0"
         sodipodi:nodetypes="csssssssscssssssssccssscssssssscssssssssssssscc" />
      <path
         style="fill:#2648b7"
         d="m 761.53536,554.98307 c -1.64018,-0.43255 -1.76569,-4.45756 -2,-64.13818 -0.29452,-75.01521 -0.12729,-84.31769 1.53472,-85.37381 0.6684,-0.42473 9.59768,-0.77914 19.84284,-0.78756 22.75009,-0.0187 22.55508,0.0875 17.91413,-9.75563 -1.75293,-3.71782 -5.60216,-11.93468 -8.55386,-18.25968 -2.9517,-6.325 -6.30924,-12.12752 -7.4612,-12.89449 -1.97378,-1.31414 -3.00229,-0.49305 -17.84975,14.25 -8.66541,8.60447 -16.56249,15.64449 -17.54906,15.64449 -1.02198,0 -16.06427,-14.26389 -34.9608,-33.15166 -18.24186,-18.23342 -41.60096,-41.52092 -51.90912,-51.75 -10.30815,-10.22909 -18.63315,-18.93445 -18.5,-19.34524 0.13315,-0.4108 7.77959,-8.31356 16.99209,-17.56168 9.2125,-9.24813 16.75001,-17.29967 16.75001,-17.89232 0,-3.12934 -4.50619,-5.39829 -21.3536,-10.7519 -9.81947,-3.12035 -18.14447,-5.38361 -18.5,-5.02947 -0.35553,0.35413 -0.87141,10.17002 -1.14641,21.81307 l -0.5,21.1692 -28,0.6144 c -49.727,1.09115 -120.31877,0.98786 -121.03876,-0.17711 -0.36123,-0.58449 -0.61602,-10.82199 -0.5662,-22.75 0.0498,-11.92801 -0.29762,-22.2941 -0.7721,-23.03576 -0.69422,-1.08514 -2.10857,-1.14328 -7.24281,-0.2977 -37.0493,6.1018 -43.02906,8.05932 -40.0218,10.99512 5.25924,5.13427 7.79246,7.71722 9.24151,9.61688 1.77289,2.32423 6.9908,8.1395 16.4969,17.63076 8.47179,8.45856 15.40326,15.80623 15.40326,16.32814 0,0.52191 -8.68609,9.52735 -19.30242,20.0121 -10.61634,10.48474 -33.84664,33.82472 -51.6229,51.86662 -22.97473,23.31805 -32.86368,32.7157 -34.19907,32.5 -1.03324,-0.1669 -17.59502,-15.82845 -36.80395,-34.80345 -19.20894,-18.975 -36.98326,-36.24598 -39.4985,-38.37995 -2.51524,-2.13398 -4.57316,-4.4522 -4.57316,-5.15161 0,-0.69941 24.61196,-25.35591 24.61196,-25.35591 l 56.45224,-55.4898 c 0,0 24.57942,-23.62273 25.18132,-23.62273 0.60189,0 4.12413,2.925 7.82719,6.5 4.10678,3.96477 7.58553,6.5 8.91904,6.5 4.3729,0 64.55603,-10.66257 67.73866,-12.00117 2.19795,-0.92445 2.23434,-1.25519 2.5,-22.71847 l -0.23549,-17.23467 73.21553,0.0155 c 58.1958,0.0123 73.47903,0.27853 74.5,1.29753 0.93098,0.92918 1.92715,2.56286 2.28955,17.90793 l 0.5,21.17163 15.5,5.13704 c 24.51407,8.12453 44.67722,14.42468 46.16499,14.42468 0.7522,0 6.52796,-5.175 12.83502,-11.5 6.30706,-6.325 11.79505,-11.5 12.19555,-11.5 1.35449,0 71.35983,69.08458 92.64238,91.42389 9.82366,10.31145 12.14571,13.28418 11.48729,14.7063 -0.45387,0.98033 -6.78772,7.89286 -14.07522,15.36119 -7.2875,7.46832 -13.24894,14.12549 -13.24764,14.7937 0.006,3.11848 21.20732,48.50453 25.67584,54.96492 l 2.5938,3.75 22.80498,0 c 15.69527,0 17.46401,-0.1574 17.93837,0.61013 0.37909,0.61337 0.90916,34.67464 0.90916,34.67464 l 0.85432,79.58208 0.16532,35.12807 -50.44415,0.64326 c -30.79759,0.39273 -56.7875,-0.0695 -57.75,-0.32332 z"
         id="path6742"
         inkscape:connector-curvature="0"
         sodipodi:nodetypes="csssssssssssssscscsssssssssssssssccssssscssscssssssscscsscccsc" />
      <path
         style="fill:#1f807e"
         d="m 719.26786,746.76072 c -12.63265,-12.10574 -73.69984,-73.66499 -74.02315,-74.6196 -0.19107,-0.56415 4.25,-5.9407 4.25,-5.9407 l 24.84739,-25.55877 40.77208,-41.53931 c 0,0 33.75874,-33.11314 35.65696,-32.68433 1.96947,0.44491 80.32096,78.64247 80.32096,80.16316 0,0.75012 -2.1375,3.25723 -4.75,5.57135 -2.6125,2.31412 -24,23.32924 -24,23.32924 l -37.72867,38.38847 c 0,0 -37.20614,38.32952 -38.54828,38.32952 -0.61684,0 -3.67562,-2.44756 -6.79729,-5.43903 z"
         id="path6740"
         inkscape:connector-curvature="0"
         sodipodi:nodetypes="sscccsssccss" />
      <path
         style="fill:#263314"
         d="m 259.19623,475.61833 c 0.5225,0.51092 3.65,1.3012 6.95,1.75616 5.05057,0.69632 6.00001,1.14272 6.00001,2.82105 0,1.70084 -0.88173,2.08564 -6.00001,2.61854 -3.3,0.34359 -6.9,0.9173 -8,1.27492 -1.23741,0.40229 -3.27332,-0.13702 -5.33948,-1.41442 -2.81762,-1.742 -3.14154,-2.30314 -2.07283,-3.59086 1.08653,-1.30919 6.11524,-4.39434 7.16265,-4.39434 0.19231,0 0.77716,0.41803 1.29966,0.92895 z"
         id="path6074-0-8"
         inkscape:connector-curvature="0"
         sodipodi:nodetypes="sssssssss" />
      <path
         style="fill:#263314"
         d="m 355.9659,265.91013 c 0.075,0.72693 1.97404,3.33448 4.22016,5.79456 3.4376,3.76509 3.88207,4.71543 2.8088,6.00574 -1.08766,1.30761 -2.01161,1.03959 -6.28734,-1.82376 -2.75677,-1.84615 -5.89134,-3.70722 -6.96572,-4.13571 -1.20859,-0.48202 -2.42892,-2.19858 -3.20052,-4.50193 -1.05221,-3.14108 -0.9424,-3.77963 0.7027,-4.08621 1.67254,-0.31169 7.51153,0.53221 8.31679,1.20202 0.14785,0.12298 0.33016,0.81836 0.40513,1.54529 z"
         id="path6074-0-1"
         inkscape:connector-curvature="0"
         sodipodi:nodetypes="sssssssss" />
      <path
         style="fill:#263314"
         d="m 859.03171,483.94182 c -0.5225,-0.51092 -3.65,-1.3012 -6.95,-1.75616 -5.05056,-0.69632 -6,-1.14272 -6,-2.82105 0,-1.70084 0.88173,-2.08564 6,-2.61854 3.3,-0.34359 6.9,-0.9173 8,-1.27492 1.23741,-0.40229 3.27332,0.13702 5.33948,1.41442 2.81762,1.742 3.14154,2.30314 2.07283,3.59086 -1.08653,1.30919 -6.11524,4.39434 -7.16265,4.39434 -0.19231,0 -0.77716,-0.41803 -1.29966,-0.92895 z"
         id="path6074-0-0"
         inkscape:connector-curvature="0"
         sodipodi:nodetypes="sssssssss" />
      <path
         style="fill:#263314"
         d="m 708.32363,620.63273 c 0.0959,0.72447 2.06914,3.27632 4.38509,5.67076 3.54449,3.66465 4.01611,4.60181 2.98041,5.92246 -1.0496,1.33836 -1.98088,1.09703 -6.3372,-1.64215 -2.80874,-1.76608 -5.99555,-3.53621 -7.08181,-3.93362 -1.22195,-0.44706 -2.49116,-2.1278 -3.32869,-4.408 -1.14214,-3.10951 -1.05075,-3.75095 0.58486,-4.10473 1.66288,-0.35968 7.52373,0.31592 8.34792,0.96228 0.15133,0.11867 0.35357,0.80853 0.44942,1.533 z"
         id="path6074-0-9"
         inkscape:connector-curvature="0"
         sodipodi:nodetypes="sssssssss" />
      <path
         style="fill:#263314"
         d="m 768.69427,695.85108 c -0.0743,-0.72699 -1.97116,-3.33619 -4.21514,-5.79821 -3.43435,-3.76806 -3.87799,-4.71879 -2.80361,-6.00817 1.08879,-1.30667 2.01251,-1.03785 6.28576,1.8292 2.75517,1.84853 5.88814,3.71232 6.96214,4.14174 1.20817,0.48307 2.42702,2.20068 3.19662,4.50469 1.0495,3.14199 0.93914,3.78044 -0.70623,4.0856 -1.67281,0.31025 -7.51107,-0.53871 -8.31575,-1.20921 -0.14774,-0.1231 -0.32945,-0.81865 -0.40379,-1.54564 z"
         id="path6074-0-2"
         inkscape:connector-curvature="0"
         sodipodi:nodetypes="sssssssss" />
      <path
         style="fill:#263314"
         d="m 556.70155,785.34784 c 0.51092,-0.5225 1.3012,-3.65 1.75616,-6.95 0.69632,-5.05056 1.14272,-6 2.82105,-6 1.70084,0 2.08564,0.88173 2.61854,6 0.34359,3.3 0.9173,6.9 1.27492,8 0.40229,1.23741 -0.13702,3.27332 -1.41442,5.33948 -1.742,2.81762 -2.30314,3.14154 -3.59086,2.07283 -1.30919,-1.08653 -4.39434,-6.11524 -4.39434,-7.16265 0,-0.19231 0.41803,-0.77716 0.92895,-1.29966 z"
         id="path6074-0-4"
         inkscape:connector-curvature="0"
         sodipodi:nodetypes="sssssssss" />
      <text
         xml:space="preserve"
         style="font-size:40px;font-style:normal;font-weight:normal;line-height:125%;letter-spacing:0px;word-spacing:0px;fill:#000000;fill-opacity:1;stroke:none;font-family:Sans"
         x="726.86816"
         y="202.25742"
         id="text2992"
         sodipodi:linespacing="125%"
         transform="matrix(0.7002341,0.7139133,-0.7139133,0.7002341,0,0)"><tspan
           sodipodi:role="line"
           id="tspan2994"
           x="726.86816"
           y="202.25742"
           style="font-style:normal;font-variant:normal;font-weight:normal;font-stretch:normal;font-family:Trajan Pro;-inkscape-font-specification:Trajan Pro">T</tspan></text>
    </g>
  </g>
</svg>
