<?xml version="1.0" encoding="UTF-8" standalone="no"?>
<!-- Created with Inkscape (http://www.inkscape.org/) -->

<svg
   xmlns:dc="http://purl.org/dc/elements/1.1/"
   xmlns:cc="http://creativecommons.org/ns#"
   xmlns:rdf="http://www.w3.org/1999/02/22-rdf-syntax-ns#"
   xmlns:svg="http://www.w3.org/2000/svg"
   xmlns="http://www.w3.org/2000/svg"
   xmlns:sodipodi="http://sodipodi.sourceforge.net/DTD/sodipodi-0.dtd"
   xmlns:inkscape="http://www.inkscape.org/namespaces/inkscape"
   width="1052.3622"
   height="1488.189"
   id="svg6665"
   version="1.1"
   inkscape:version="0.48.4 r9939"
   sodipodi:docname="outerRing.svg"
   inkscape:export-filename="C:\Users\Oneidavar\Desktop\basteln\outerRingVector.png"
   inkscape:export-xdpi="150"
   inkscape:export-ydpi="150">
  <defs
     id="defs6667" />
  <sodipodi:namedview
     id="base"
     pagecolor="#ffffff"
     bordercolor="#666666"
     borderopacity="1.0"
     inkscape:pageopacity="0.0"
     inkscape:pageshadow="2"
     inkscape:zoom="1.979899"
     inkscape:cx="324.95675"
     inkscape:cy="564.21161"
     inkscape:document-units="px"
     inkscape:current-layer="g6695"
     showgrid="false"
     inkscape:window-width="1366"
     inkscape:window-height="706"
     inkscape:window-x="-8"
     inkscape:window-y="-8"
     inkscape:window-maximized="1" />
  <metadata
     id="metadata6670">
    <rdf:RDF>
      <cc:Work
         rdf:about="">
        <dc:format>image/svg+xml</dc:format>
        <dc:type
           rdf:resource="http://purl.org/dc/dcmitype/StillImage" />
        <dc:title />
      </cc:Work>
    </rdf:RDF>
  </metadata>
  <g
     inkscape:label="Ebene 1"
     inkscape:groupmode="layer"
     id="layer1"
     transform="translate(0,435.82679)">
    <g
       id="g6695">
      <path
         style="fill:#3c8f8e"
         d="m 870.30114,523.01512 c -9.5773,-0.16068 -14.43062,-0.71341 -15.16792,-1.32539 -0.9763,-0.81021 -1.5716,-45.27008 -1.5716,-45.27008 l -0.7213,-113.6289 c 0,0 0.1719,-30.63553 1.6448,-31.74999 2.2382,-1.69348 113.26482,-1.83495 114.30892,-0.14555 0.3754,0.60744 0.8431,19.61994 1.0391,42.24999 0.1961,22.63005 0.6158,53.52055 0.9327,68.64555 1.2765,60.93113 1.304,80.1248 0.1153,80.55695 -1.4471,0.52611 -78.5196,1.03754 -100.58,0.66742 z"
         id="path6709"
         inkscape:connector-curvature="0"
         sodipodi:nodetypes="ssccssssss" />
      <path
         style="fill:#991a89"
         d="m 450.97026,859.68939 c -3.82707,-0.23546 -7.53957,-0.9105 -8.25,-1.5001 -0.98782,-0.81982 -1.29169,-6.54269 -1.29169,-24.32712 0,-17.39235 -0.31513,-23.51276 -1.25,-24.27712 -0.6875,-0.5621 -19.475,-7.11187 -41.75,-14.55505 -22.275,-7.44317 -45.5999,-15.36337 -51.83311,-17.60044 -6.23321,-2.23706 -12.0459,-4.06739 -12.91708,-4.06739 -0.87118,0 -7.56614,5.92357 -14.87769,13.16349 l -13.29373,13.16348 -4.2892,-4.014 c -2.35905,-2.2077 -33.03764,-32.6975 -68.17464,-67.75511 l -63.88545,-63.74111 7.88545,-7.99517 c 4.337,-4.39735 10.93609,-10.96763 14.66465,-14.60063 3.72856,-3.633 7.02208,-7.57318 7.31894,-8.75595 0.35514,-1.415 -1.49393,-6.2229 -5.40648,-14.05775 -6.79033,-13.59755 -16.19166,-33.7562 -16.19166,-34.71869 0,-0.61199 -19.92352,-42.88745 -25.77355,-54.68856 l -2.72645,-5.5 -20.5,-1 c -11.27501,-0.55 -21.0983,-1.38618 -21.82955,-1.85818 -1.83329,-1.18333 -1.40563,-188.20175 0.43386,-189.7284 1.78185,-1.4788 113.42728,-1.26295 114.926,0.23657 0.86121,0.86167 1.06426,24.82301 0.79938,94.33069 -0.34626,90.86463 -0.40321,93.21082 -2.2962,94.59493 -1.5251,1.11512 -3.75581,1.92439 -19.6656,1.92439 -13.13902,0 -20.47907,0.37087 -20.9026,1.05616 -0.72107,1.16672 38.10052,85.00288 39.90626,86.17853 0.62065,0.40408 1.50806,0.74158 1.97202,0.75 0.46396,0.008 7.42995,-6.50969 15.47998,-14.48469 8.05002,-7.975 15.43334,-14.5 16.40736,-14.5 1.0117,0 30.28738,28.57994 68.28571,66.66288 48.94982,49.05884 66.37144,67.11446 65.97203,68.37288 -0.2985,0.94049 -7.53956,8.75271 -16.09124,17.36047 -8.55168,8.60777 -15.36691,16.20248 -15.14497,16.87713 0.22195,0.67465 5.99344,3.17028 12.82555,5.54583 6.83211,2.37555 13.32201,4.748 14.42201,5.2721 4.08061,1.94421 56.02756,18.61222 56.75,18.20914 0.4125,-0.23016 0.75,-8.8559 0.75,-19.16832 0,-14.07287 -0.17155,-16.17552 0.83202,-17.54798 1.25852,-1.72114 45.94915,-1.94113 45.94915,-1.94113 l 100.93215,0.1063 c 0,0 43.46631,0.5657 44.20044,1.29947 0.65921,0.65889 1.7184,4.56798 1.92486,14.7507 0.18624,9.18529 0.72317,17.10246 1.19318,17.59371 0.49758,0.52007 3.28023,0.0537 6.66138,-1.11646 3.19375,-1.1053 8.28182,-2.73033 11.30682,-3.61119 9.80475,-2.85508 38.41558,-11.4957 41.5,-12.53323 1.65,-0.55502 4.8,-1.47024 7,-2.03383 10.76214,-2.75699 24.93351,-7.74005 25.29313,-8.8938 0.22207,-0.71243 -6.16554,-7.95959 -14.19469,-16.1048 -8.02914,-8.14521 -14.59844,-15.15251 -14.59844,-15.57178 0,-0.41927 14.98184,-15.67211 33.29297,-33.8952 36.97717,-36.79938 80.2904,-81.07251 88.64626,-90.61083 2.99157,-3.41491 6.91568,-7.33509 8.72024,-8.71149 l 3.28101,-2.50255 2.77976,2.15871 c 4.686,3.63906 82.27976,81.25935 82.27976,82.30789 0,0.54059 -18.36756,19.2676 -40.81681,41.61558 -22.44924,22.34797 -41.23674,41.37041 -41.75,42.27208 -0.51325,0.90166 -10.00355,11.02151 -21.08954,22.48855 -11.08599,11.46704 -21.94574,22.76167 -24.13277,25.09917 -2.45466,2.62353 -4.8596,4.25 -6.28418,4.25 -1.56983,0 -5.39961,-3.0377 -11.97715,-9.5 -5.31817,-5.225 -10.31804,-9.5 -11.11083,-9.5 -0.79279,0 -5.01833,1.09107 -9.39008,2.42461 -32.14962,9.80674 -46.00718,14.00527 -52.94864,16.04223 -31.8774,9.35437 -62.106,18.90094 -62.6553,19.78732 -0.36042,0.58158 -0.67165,9.15748 -0.69164,19.05755 -0.0305,15.10618 -0.29263,18.25642 -1.63049,19.59421 -1.41795,1.41789 -7.58645,1.60141 -55.80836,1.66036 -29.81782,0.0365 -69.06421,0.31891 -87.21421,0.62766 -18.15,0.30875 -36.13124,0.36873 -39.95831,0.13328 z"
         id="path6707"
         inkscape:connector-curvature="0"
         sodipodi:nodetypes="sssssssscsscsssssscssssssssscssssscsscssccssssssssssssscsssssssssssssssss"
         inkscape:export-xdpi="150"
         inkscape:export-ydpi="150" />
      <path
         style="fill:#32c823"
         d="m 823.79904,264.09994 c -9.70435,-8.55581 -128.37046,-127.59972 -128.37046,-128.77916 0,-0.67026 7.20482,-8.24764 16.01072,-16.83864 16.23643,-15.84018 18.30388,-18.879686 14.23928,-20.934156 -0.9625,-0.4865 -13.675,-4.85155 -28.25,-9.70011 -14.575,-4.848559 -34.77548,-11.666339 -44.88996,-15.150629 -10.11448,-3.4843 -19.00198,-6.33508 -19.75,-6.33508 -1.10441,0 -1.36004,4.02771 -1.36004,21.428569 0,17.084986 -0.28521,17.168086 -1.40703,18.289906 -1.17968,1.17968 -16.32678,1.50963 -93.74373,2.04199 -81.4285,0.55994 -92.51464,0.45724 -93.84297,-0.86934 -1.23582,-1.2342 -1.56068,-1.10133 -1.80929,-20.031306 l -0.30302,-23.072699 -2.19698,0.53403 c -1.20834,0.29372 -7.28258,2.13209 -13.4983,4.08526 -6.21573,1.95317 -16.56573,4.92554 -23,6.60527 -6.43428,1.67972 -17.54868,4.82315 -24.69868,6.98538 -7.15,2.162229 -15.475,4.629229 -18.5,5.482209 -8.44386,2.38098 -8.54569,2.50005 -6.96545,8.14412 1.16247,4.151926 3.41313,6.916356 16.40637,20.151556 8.28249,8.43672 15.20968,15.76554 15.39374,16.28626 0.18407,0.52072 -29.85723,31.11002 -29.85723,31.11002 l -71.99399,71.82877 c 0,0 -30.45323,30 -30.87076,30 -0.69807,0 -61.67674,-59.30192 -66.83786,-65 -1.24542,-1.375 -5.14993,-5.63118 -8.67669,-9.45819 l -6.41227,-6.95818 9.65707,-10.43873 c 5.31139,-5.7413 19.66363,-20.05503 31.89386,-31.80829 12.23024,-11.75325 34.33785,-33.84964 49.12804,-49.103076 14.79018,-15.253439 30.45153,-30.947109 34.80299,-34.874819 l 7.91175,-7.14128 10.86761,10.39128 c 7.67203,7.33578 11.57966,10.39129 13.28919,10.39129 2.07467,0 95.9375,-26.25194 109.51363,-30.62922 l 4.75,-1.53151 0.0153,-21.169618 c 0.008,-11.6432997 0.42025,-21.8094297 0.91517,-22.5913897 0.75998,-1.2007596 6.85847,-1.3564296 39.23469,-1.00146 51.04039,0.55959 52.66049,0.55293 102.83483,-0.4222296 38.16585,-0.74178 43.74525,-0.65993 45.5,0.6674596 1.86029,1.40723 2.03493,3.00305 2.5,22.8454497 l 0.5,21.332518 57,19.17357 c 31.35,10.54547 58.5333,19.20797 60.40733,19.25 3.04501,0.0683 4.66251,-1.16329 15.21135,-11.5822 l 11.80402,-11.65862 9.71364,8.90862 c 5.34251,4.89975 14.72256,13.85863 20.84457,19.90863 6.122,6.049999 22.13076,21.764435 35.575,34.920975 60.28467,58.99452 68.92867,67.78423 68.10607,69.25405 -1.1468,2.04919 -78.31379,79.27364 -80.32341,80.38321 -1.26835,0.7003 -2.79866,-0.0853 -6.4681,-3.32046 z"
         id="path6705"
         inkscape:connector-curvature="0"
         sodipodi:nodetypes="sssssssssssscssssssscccssscsssscsssccssssscssscssssss" />
      <path
         style="fill:#263314"
         d="m 543.90812,753.72041 c -0.51092,0.5225 -1.3012,3.65 -1.75616,6.95 -0.69632,5.05056 -1.14272,6 -2.82105,6 -1.70084,0 -2.08564,-0.88173 -2.61854,-6 -0.34359,-3.3 -0.9173,-6.9 -1.27492,-8 -0.40229,-1.23741 0.13702,-3.27332 1.41442,-5.33948 1.742,-2.81762 2.30314,-3.14154 3.59086,-2.07283 1.30919,1.08653 4.39434,6.11524 4.39434,7.16265 0,0.19231 -0.41803,0.77716 -0.92895,1.29966 z"
         id="path6074-0-1"
         inkscape:connector-curvature="0"
         sodipodi:nodetypes="sssssssss" />
      <path
         style="fill:#263314"
         d="m 863.00218,418.94424 c 0.5225,0.51092 3.65,1.3012 6.95,1.75616 5.05056,0.69632 6,1.14272 6,2.82105 0,1.70084 -0.88173,2.08564 -6,2.61854 -3.3,0.34359 -6.9,0.9173 -8,1.27492 -1.23741,0.40229 -3.27332,-0.13702 -5.33948,-1.41442 -2.81762,-1.742 -3.14154,-2.30314 -2.07283,-3.59086 1.08653,-1.30919 6.11524,-4.39434 7.16265,-4.39434 0.19231,0 0.77716,0.41803 1.29966,0.92895 z"
         id="path6074-0-5"
         inkscape:connector-curvature="0"
         sodipodi:nodetypes="sssssssss" />
      <path
         style="fill:#263314"
         d="m 303.73265,195.84986 c -0.0509,-0.72901 -1.86263,-3.39797 -4.02613,-5.931 -3.31116,-3.87676 -3.72394,-4.84129 -2.60857,-6.09538 1.13032,-1.27092 2.0449,-0.97248 6.22356,2.03077 2.69418,1.93634 5.76547,3.9001 6.82508,4.3639 1.19198,0.52175 2.35485,2.27774 3.04982,4.60535 0.94772,3.17417 0.81685,3.80874 -0.8375,4.06073 -1.68193,0.25618 -7.48981,-0.78044 -8.27247,-1.47652 -0.1437,-0.1278 -0.3029,-0.82883 -0.35379,-1.55785 z"
         id="path6074-0-7"
         inkscape:connector-curvature="0"
         sodipodi:nodetypes="sssssssss" />
      <text
         xml:space="preserve"
         style="font-size:40px;font-style:normal;font-variant:normal;font-weight:normal;font-stretch:normal;line-height:125%;letter-spacing:0px;word-spacing:0px;fill:#000000;fill-opacity:1;stroke:none;font-family:Trajan Pro;-inkscape-font-specification:Trajan Pro"
         x="410.23807"
         y="-146.39174"
         id="text2990"
         sodipodi:linespacing="125%"
         transform="matrix(0,1,-1,0,0,0)"><tspan
           sodipodi:role="line"
           id="tspan2992"
           x="410.23807"
           y="-146.39174">T</tspan></text>
    </g>
  </g>
</svg>
