 0
SECTION
 2
HEADER
 9
$ACADVER
 1
AC1009
 0
ENDSEC
 0
SECTION
 2
TABLES
 0
TABLE
 2
LTYPE
 70
1
 0
LTYPE
 2
CONTINUOUS
 70
64
 3
solid line
 72
65
 73
0
 40
0.0
 0
ENDTAB
 0
TABLE
 2
LAYER
 70
6
 0
LAYER
 2
0
 70
0
 62
7
 6
CONTINUOUS
 0
LAYER
 2
POLYFACEMESH
 70
64
 62
250
 6
CONTINUOUS
 0
LAYER
 2
POLYFACEMESH.1
 70
64
 62
253
 6
CONTINUOUS
 0
ENDTAB
 0
ENDSEC
 0
SECTION
 2
BLOCKS
 0
ENDSEC
 0
SECTION
 2
ENTITIES
 0
POLYLINE
 8
POLYFACEMESH
 66
1
 10
0.0
 20
0.0
 30
0.0
 70
64
 71
930
 72
404
 0
VERTEX
 8
POLYFACEMESH
 10
-36.1379
 20
-1.755
 30
185
 70
192
 0
VERTEX
 8
POLYFACEMESH
 10
-38.3284
 20
-3.0244
 30
185
 70
192
 0
VERTEX
 8
POLYFACEMESH
 10
-38.0757
 20
-3.3345
 30
185
 70
192
 0
VERTEX
 8
POLYFACEMESH
 10
-36.1379
 20
-1.755
 30
3
 70
192
 0
VERTEX
 8
POLYFACEMESH
 10
-37.4015
 20
-0.2047
 30
3
 70
192
 0
VERTEX
 8
POLYFACEMESH
 10
-36.1379
 20
-1.755
 30
185
 70
192
 0
VERTEX
 8
POLYFACEMESH
 10
-37.4015
 20
-0.2047
 30
185
 70
192
 0
VERTEX
 8
POLYFACEMESH
 10
-36.1379
 20
-1.755
 30
185
 70
192
 0
VERTEX
 8
POLYFACEMESH
 10
-37.4015
 20
-0.2047
 30
3
 70
192
 0
VERTEX
 8
POLYFACEMESH
 10
-37.7115
 20
-0.4574
 30
3
 70
192
 0
VERTEX
 8
POLYFACEMESH
 10
-37.4015
 20
-0.2047
 30
185
 70
192
 0
VERTEX
 8
POLYFACEMESH
 10
-37.7115
 20
-0.4574
 30
185
 70
192
 0
VERTEX
 8
POLYFACEMESH
 10
-37.4015
 20
-0.2047
 30
185
 70
192
 0
VERTEX
 8
POLYFACEMESH
 10
-37.7115
 20
-0.4574
 30
3
 70
192
 0
VERTEX
 8
POLYFACEMESH
 10
-36.7006
 20
-1.6976
 30
3
 70
192
 0
VERTEX
 8
POLYFACEMESH
 10
-37.7115
 20
-0.4574
 30
185
 70
192
 0
VERTEX
 8
POLYFACEMESH
 10
-36.7006
 20
-1.6976
 30
185
 70
192
 0
VERTEX
 8
POLYFACEMESH
 10
-37.7115
 20
-0.4574
 30
185
 70
192
 0
VERTEX
 8
POLYFACEMESH
 10
-38.0757
 20
-3.3345
 30
3
 70
192
 0
VERTEX
 8
POLYFACEMESH
 10
-36.1379
 20
-1.755
 30
3
 70
192
 0
VERTEX
 8
POLYFACEMESH
 10
-38.0757
 20
-3.3345
 30
185
 70
192
 0
VERTEX
 8
POLYFACEMESH
 10
-36.1379
 20
-1.755
 30
3
 70
192
 0
VERTEX
 8
POLYFACEMESH
 10
-36.1379
 20
-1.755
 30
185
 70
192
 0
VERTEX
 8
POLYFACEMESH
 10
-38.0757
 20
-3.3345
 30
185
 70
192
 0
VERTEX
 8
POLYFACEMESH
 10
-38.3284
 20
-3.0244
 30
3
 70
192
 0
VERTEX
 8
POLYFACEMESH
 10
-38.0757
 20
-3.3345
 30
3
 70
192
 0
VERTEX
 8
POLYFACEMESH
 10
-38.3284
 20
-3.0244
 30
185
 70
192
 0
VERTEX
 8
POLYFACEMESH
 10
-38.0757
 20
-3.3345
 30
3
 70
192
 0
VERTEX
 8
POLYFACEMESH
 10
-38.0757
 20
-3.3345
 30
185
 70
192
 0
VERTEX
 8
POLYFACEMESH
 10
-38.3284
 20
-3.0244
 30
185
 70
192
 0
VERTEX
 8
POLYFACEMESH
 10
-36.7006
 20
-1.6976
 30
3
 70
192
 0
VERTEX
 8
POLYFACEMESH
 10
-38.3284
 20
-3.0244
 30
3
 70
192
 0
VERTEX
 8
POLYFACEMESH
 10
-36.7006
 20
-1.6976
 30
185
 70
192
 0
VERTEX
 8
POLYFACEMESH
 10
-38.3284
 20
-3.0244
 30
3
 70
192
 0
VERTEX
 8
POLYFACEMESH
 10
-38.3284
 20
-3.0244
 30
185
 70
192
 0
VERTEX
 8
POLYFACEMESH
 10
-36.7006
 20
-1.6976
 30
185
 70
192
 0
VERTEX
 8
POLYFACEMESH
 10
-37.4015
 20
-0.2047
 30
185
 70
192
 0
VERTEX
 8
POLYFACEMESH
 10
-37.7115
 20
-0.4574
 30
185
 70
192
 0
VERTEX
 8
POLYFACEMESH
 10
-37.7115
 20
-0.4574
 30
185
 70
192
 0
VERTEX
 8
POLYFACEMESH
 10
-36.7006
 20
-1.6976
 30
185
 70
192
 0
VERTEX
 8
POLYFACEMESH
 10
-36.7006
 20
-1.6976
 30
185
 70
192
 0
VERTEX
 8
POLYFACEMESH
 10
-36.1379
 20
-1.755
 30
3
 70
192
 0
VERTEX
 8
POLYFACEMESH
 10
-38.0757
 20
-3.3345
 30
3
 70
192
 0
VERTEX
 8
POLYFACEMESH
 10
-38.3284
 20
-3.0244
 30
3
 70
192
 0
VERTEX
 8
POLYFACEMESH
 10
-36.1379
 20
-1.755
 30
3
 70
192
 0
VERTEX
 8
POLYFACEMESH
 10
-38.3284
 20
-3.0244
 30
3
 70
192
 0
VERTEX
 8
POLYFACEMESH
 10
-36.7006
 20
-1.6976
 30
3
 70
192
 0
VERTEX
 8
POLYFACEMESH
 10
-36.1379
 20
-1.755
 30
3
 70
192
 0
VERTEX
 8
POLYFACEMESH
 10
-36.7006
 20
-1.6976
 30
3
 70
192
 0
VERTEX
 8
POLYFACEMESH
 10
-37.7115
 20
-0.4574
 30
3
 70
192
 0
VERTEX
 8
POLYFACEMESH
 10
-36.1379
 20
-1.755
 30
3
 70
192
 0
VERTEX
 8
POLYFACEMESH
 10
-37.7115
 20
-0.4574
 30
3
 70
192
 0
VERTEX
 8
POLYFACEMESH
 10
-37.4015
 20
-0.2047
 30
3
 70
192
 0
VERTEX
 8
POLYFACEMESH
 10
-35.7977
 20
-2.6006
 30
185
 70
192
 0
VERTEX
 8
POLYFACEMESH
 10
-37.4346
 20
-3.9756
 30
185
 70
192
 0
VERTEX
 8
POLYFACEMESH
 10
-37.1245
 20
-4.2283
 30
185
 70
192
 0
VERTEX
 8
POLYFACEMESH
 10
-35.855
 20
-2.0378
 30
185
 70
192
 0
VERTEX
 8
POLYFACEMESH
 10
-34.3047
 20
-3.3015
 30
185
 70
192
 0
VERTEX
 8
POLYFACEMESH
 10
-35.855
 20
-2.0378
 30
3
 70
192
 0
VERTEX
 8
POLYFACEMESH
 10
-34.3047
 20
-3.3015
 30
3
 70
192
 0
VERTEX
 8
POLYFACEMESH
 10
-34.3047
 20
-3.3015
 30
185
 70
192
 0
VERTEX
 8
POLYFACEMESH
 10
-34.5575
 20
-3.6115
 30
185
 70
192
 0
VERTEX
 8
POLYFACEMESH
 10
-34.3047
 20
-3.3015
 30
3
 70
192
 0
VERTEX
 8
POLYFACEMESH
 10
-34.5575
 20
-3.6115
 30
3
 70
192
 0
VERTEX
 8
POLYFACEMESH
 10
-34.3047
 20
-3.3015
 30
3
 70
192
 0
VERTEX
 8
POLYFACEMESH
 10
-34.5575
 20
-3.6115
 30
185
 70
192
 0
VERTEX
 8
POLYFACEMESH
 10
-35.7977
 20
-2.6006
 30
185
 70
192
 0
VERTEX
 8
POLYFACEMESH
 10
-34.5575
 20
-3.6115
 30
3
 70
192
 0
VERTEX
 8
POLYFACEMESH
 10
-35.7977
 20
-2.6006
 30
185
 70
192
 0
VERTEX
 8
POLYFACEMESH
 10
-35.7977
 20
-2.6006
 30
3
 70
192
 0
VERTEX
 8
POLYFACEMESH
 10
-34.5575
 20
-3.6115
 30
3
 70
192
 0
VERTEX
 8
POLYFACEMESH
 10
-37.4346
 20
-3.9756
 30
185
 70
192
 0
VERTEX
 8
POLYFACEMESH
 10
-35.855
 20
-2.0378
 30
185
 70
192
 0
VERTEX
 8
POLYFACEMESH
 10
-37.4346
 20
-3.9756
 30
3
 70
192
 0
VERTEX
 8
POLYFACEMESH
 10
-35.855
 20
-2.0378
 30
185
 70
192
 0
VERTEX
 8
POLYFACEMESH
 10
-35.855
 20
-2.0378
 30
3
 70
192
 0
VERTEX
 8
POLYFACEMESH
 10
-37.1245
 20
-4.2283
 30
185
 70
192
 0
VERTEX
 8
POLYFACEMESH
 10
-37.4346
 20
-3.9756
 30
185
 70
192
 0
VERTEX
 8
POLYFACEMESH
 10
-37.1245
 20
-4.2283
 30
3
 70
192
 0
VERTEX
 8
POLYFACEMESH
 10
-37.4346
 20
-3.9756
 30
185
 70
192
 0
VERTEX
 8
POLYFACEMESH
 10
-37.4346
 20
-3.9756
 30
3
 70
192
 0
VERTEX
 8
POLYFACEMESH
 10
-35.7977
 20
-2.6006
 30
185
 70
192
 0
VERTEX
 8
POLYFACEMESH
 10
-37.1245
 20
-4.2283
 30
185
 70
192
 0
VERTEX
 8
POLYFACEMESH
 10
-35.7977
 20
-2.6006
 30
3
 70
192
 0
VERTEX
 8
POLYFACEMESH
 10
-37.1245
 20
-4.2283
 30
185
 70
192
 0
VERTEX
 8
POLYFACEMESH
 10
-37.1245
 20
-4.2283
 30
3
 70
192
 0
VERTEX
 8
POLYFACEMESH
 10
-35.7977
 20
-2.6006
 30
3
 70
192
 0
VERTEX
 8
POLYFACEMESH
 10
-34.5575
 20
-3.6115
 30
185
 70
192
 0
VERTEX
 8
POLYFACEMESH
 10
-34.3047
 20
-3.3015
 30
185
 70
192
 0
VERTEX
 8
POLYFACEMESH
 10
-34.3047
 20
-3.3015
 30
185
 70
192
 0
VERTEX
 8
POLYFACEMESH
 10
-35.855
 20
-2.0378
 30
185
 70
192
 0
VERTEX
 8
POLYFACEMESH
 10
-35.855
 20
-2.0378
 30
185
 70
192
 0
VERTEX
 8
POLYFACEMESH
 10
-35.7977
 20
-2.6006
 30
3
 70
192
 0
VERTEX
 8
POLYFACEMESH
 10
-37.1245
 20
-4.2283
 30
3
 70
192
 0
VERTEX
 8
POLYFACEMESH
 10
-37.4346
 20
-3.9756
 30
3
 70
192
 0
VERTEX
 8
POLYFACEMESH
 10
-35.7977
 20
-2.6006
 30
3
 70
192
 0
VERTEX
 8
POLYFACEMESH
 10
-37.4346
 20
-3.9756
 30
3
 70
192
 0
VERTEX
 8
POLYFACEMESH
 10
-35.855
 20
-2.0378
 30
3
 70
192
 0
VERTEX
 8
POLYFACEMESH
 10
-35.7977
 20
-2.6006
 30
3
 70
192
 0
VERTEX
 8
POLYFACEMESH
 10
-35.855
 20
-2.0378
 30
3
 70
192
 0
VERTEX
 8
POLYFACEMESH
 10
-34.3047
 20
-3.3015
 30
3
 70
192
 0
VERTEX
 8
POLYFACEMESH
 10
-35.7977
 20
-2.6006
 30
3
 70
192
 0
VERTEX
 8
POLYFACEMESH
 10
-34.3047
 20
-3.3015
 30
3
 70
192
 0
VERTEX
 8
POLYFACEMESH
 10
-34.5575
 20
-3.6115
 30
3
 70
192
 0
VERTEX
 8
POLYFACEMESH
 10
-46.1612
 20
57.1812
 30
195
 70
192
 0
VERTEX
 8
POLYFACEMESH
 10
-47.0649
 20
58.085
 30
195
 70
192
 0
VERTEX
 8
POLYFACEMESH
 10
-46.1612
 20
57.1812
 30
200
 70
192
 0
VERTEX
 8
POLYFACEMESH
 10
-47.0649
 20
58.085
 30
200
 70
192
 0
VERTEX
 8
POLYFACEMESH
 10
23.0812
 20
-12.0612
 30
195
 70
192
 0
VERTEX
 8
POLYFACEMESH
 10
23.0812
 20
-12.0612
 30
200
 70
192
 0
VERTEX
 8
POLYFACEMESH
 10
23.985
 20
-12.9649
 30
195
 70
192
 0
VERTEX
 8
POLYFACEMESH
 10
23.985
 20
-12.9649
 30
200
 70
192
 0
VERTEX
 8
POLYFACEMESH
 10
19.0912
 20
-13.9808
 30
195
 70
192
 0
VERTEX
 8
POLYFACEMESH
 10
19.0912
 20
-13.9808
 30
200
 70
192
 0
VERTEX
 8
POLYFACEMESH
 10
-47.0649
 20
58.085
 30
195
 70
192
 0
VERTEX
 8
POLYFACEMESH
 10
-49.4791
 20
52.8508
 30
195
 70
192
 0
VERTEX
 8
POLYFACEMESH
 10
-47.0649
 20
58.085
 30
200
 70
192
 0
VERTEX
 8
POLYFACEMESH
 10
-49.4791
 20
52.8508
 30
200
 70
192
 0
VERTEX
 8
POLYFACEMESH
 10
-47.0649
 20
58.085
 30
200
 70
192
 0
VERTEX
 8
POLYFACEMESH
 10
23.985
 20
-12.9649
 30
200
 70
192
 0
VERTEX
 8
POLYFACEMESH
 10
18.7508
 20
-15.3791
 30
200
 70
192
 0
VERTEX
 8
POLYFACEMESH
 10
23.985
 20
-12.9649
 30
195
 70
192
 0
VERTEX
 8
POLYFACEMESH
 10
18.7508
 20
-15.3791
 30
195
 70
192
 0
VERTEX
 8
POLYFACEMESH
 10
23.985
 20
-12.9649
 30
195
 70
192
 0
VERTEX
 8
POLYFACEMESH
 10
-46.1612
 20
57.1812
 30
195
 70
192
 0
VERTEX
 8
POLYFACEMESH
 10
-49.4791
 20
52.8508
 30
195
 70
192
 0
VERTEX
 8
POLYFACEMESH
 10
-47.0649
 20
58.085
 30
195
 70
192
 0
VERTEX
 8
POLYFACEMESH
 10
9.5081
 20
-16.5158
 30
200
 70
192
 0
VERTEX
 8
POLYFACEMESH
 10
9.5081
 20
-16.5158
 30
195
 70
192
 0
VERTEX
 8
POLYFACEMESH
 10
-0.381
 20
-17.1972
 30
200
 70
192
 0
VERTEX
 8
POLYFACEMESH
 10
-0.381
 20
-17.1972
 30
195
 70
192
 0
VERTEX
 8
POLYFACEMESH
 10
-10.2212
 20
-16.0003
 30
200
 70
192
 0
VERTEX
 8
POLYFACEMESH
 10
-10.2212
 20
-16.0003
 30
195
 70
192
 0
VERTEX
 8
POLYFACEMESH
 10
-19.6587
 20
-12.9684
 30
200
 70
192
 0
VERTEX
 8
POLYFACEMESH
 10
-19.6587
 20
-12.9684
 30
195
 70
192
 0
VERTEX
 8
POLYFACEMESH
 10
-28.3547
 20
-8.2102
 30
200
 70
192
 0
VERTEX
 8
POLYFACEMESH
 10
-28.3547
 20
-8.2102
 30
195
 70
192
 0
VERTEX
 8
POLYFACEMESH
 10
-35.9967
 20
-1.8967
 30
200
 70
192
 0
VERTEX
 8
POLYFACEMESH
 10
-35.9967
 20
-1.8967
 30
195
 70
192
 0
VERTEX
 8
POLYFACEMESH
 10
-42.3102
 20
5.7453
 30
200
 70
192
 0
VERTEX
 8
POLYFACEMESH
 10
-35.9967
 20
-1.8967
 30
200
 70
192
 0
VERTEX
 8
POLYFACEMESH
 10
-42.3102
 20
5.7453
 30
195
 70
192
 0
VERTEX
 8
POLYFACEMESH
 10
-35.9967
 20
-1.8967
 30
200
 70
192
 0
VERTEX
 8
POLYFACEMESH
 10
-35.9967
 20
-1.8967
 30
195
 70
192
 0
VERTEX
 8
POLYFACEMESH
 10
-47.0684
 20
14.4413
 30
200
 70
192
 0
VERTEX
 8
POLYFACEMESH
 10
-47.0684
 20
14.4413
 30
195
 70
192
 0
VERTEX
 8
POLYFACEMESH
 10
-50.1003
 20
23.8788
 30
200
 70
192
 0
VERTEX
 8
POLYFACEMESH
 10
-50.1003
 20
23.8788
 30
195
 70
192
 0
VERTEX
 8
POLYFACEMESH
 10
-51.2972
 20
33.719
 30
200
 70
192
 0
VERTEX
 8
POLYFACEMESH
 10
-51.2972
 20
33.719
 30
195
 70
192
 0
VERTEX
 8
POLYFACEMESH
 10
-50.6158
 20
43.6081
 30
200
 70
192
 0
VERTEX
 8
POLYFACEMESH
 10
-50.6159
 20
43.6081
 30
195
 70
192
 0
VERTEX
 8
POLYFACEMESH
 10
-48.0808
 20
53.1912
 30
200
 70
192
 0
VERTEX
 8
POLYFACEMESH
 10
-48.0808
 20
53.1912
 30
195
 70
192
 0
VERTEX
 8
POLYFACEMESH
 10
-51.9048
 20
43.1425
 30
200
 70
192
 0
VERTEX
 8
POLYFACEMESH
 10
-51.9048
 20
43.1425
 30
195
 70
192
 0
VERTEX
 8
POLYFACEMESH
 10
-52.4801
 20
33.1523
 30
200
 70
192
 0
VERTEX
 8
POLYFACEMESH
 10
-52.4801
 20
33.1523
 30
195
 70
192
 0
VERTEX
 8
POLYFACEMESH
 10
-51.1849
 20
23.2297
 30
200
 70
192
 0
VERTEX
 8
POLYFACEMESH
 10
-51.1849
 20
23.2297
 30
195
 70
192
 0
VERTEX
 8
POLYFACEMESH
 10
-48.0646
 20
13.7218
 30
200
 70
192
 0
VERTEX
 8
POLYFACEMESH
 10
-48.0646
 20
13.7218
 30
195
 70
192
 0
VERTEX
 8
POLYFACEMESH
 10
-43.2283
 20
4.9614
 30
200
 70
192
 0
VERTEX
 8
POLYFACEMESH
 10
-43.2283
 20
4.9614
 30
195
 70
192
 0
VERTEX
 8
POLYFACEMESH
 10
-36.8452
 20
-2.7452
 30
200
 70
192
 0
VERTEX
 8
POLYFACEMESH
 10
-36.8452
 20
-2.7452
 30
195
 70
192
 0
VERTEX
 8
POLYFACEMESH
 10
-29.1386
 20
-9.1283
 30
200
 70
192
 0
VERTEX
 8
POLYFACEMESH
 10
-36.8452
 20
-2.7452
 30
200
 70
192
 0
VERTEX
 8
POLYFACEMESH
 10
-29.1386
 20
-9.1283
 30
195
 70
192
 0
VERTEX
 8
POLYFACEMESH
 10
-36.8452
 20
-2.7452
 30
200
 70
192
 0
VERTEX
 8
POLYFACEMESH
 10
-36.8452
 20
-2.7452
 30
195
 70
192
 0
VERTEX
 8
POLYFACEMESH
 10
-20.3782
 20
-13.9646
 30
200
 70
192
 0
VERTEX
 8
POLYFACEMESH
 10
-20.3782
 20
-13.9646
 30
195
 70
192
 0
VERTEX
 8
POLYFACEMESH
 10
-10.8703
 20
-17.0849
 30
200
 70
192
 0
VERTEX
 8
POLYFACEMESH
 10
-10.8703
 20
-17.0849
 30
195
 70
192
 0
VERTEX
 8
POLYFACEMESH
 10
-0.9477
 20
-18.3801
 30
200
 70
192
 0
VERTEX
 8
POLYFACEMESH
 10
-0.9477
 20
-18.3801
 30
195
 70
192
 0
VERTEX
 8
POLYFACEMESH
 10
9.0425
 20
-17.8048
 30
200
 70
192
 0
VERTEX
 8
POLYFACEMESH
 10
9.0425
 20
-17.8048
 30
195
 70
192
 0
VERTEX
 8
POLYFACEMESH
 10
-46.1612
 20
57.1812
 30
195
 70
192
 0
VERTEX
 8
POLYFACEMESH
 10
-48.0808
 20
53.1912
 30
195
 70
192
 0
VERTEX
 8
POLYFACEMESH
 10
-49.4791
 20
52.8508
 30
195
 70
192
 0
VERTEX
 8
POLYFACEMESH
 10
-50.6159
 20
43.6081
 30
195
 70
192
 0
VERTEX
 8
POLYFACEMESH
 10
-49.4791
 20
52.8508
 30
195
 70
192
 0
VERTEX
 8
POLYFACEMESH
 10
-48.0808
 20
53.1912
 30
195
 70
192
 0
VERTEX
 8
POLYFACEMESH
 10
-49.4791
 20
52.8508
 30
195
 70
192
 0
VERTEX
 8
POLYFACEMESH
 10
-50.6159
 20
43.6081
 30
195
 70
192
 0
VERTEX
 8
POLYFACEMESH
 10
-51.9048
 20
43.1425
 30
195
 70
192
 0
VERTEX
 8
POLYFACEMESH
 10
-51.2972
 20
33.719
 30
195
 70
192
 0
VERTEX
 8
POLYFACEMESH
 10
-51.9048
 20
43.1425
 30
195
 70
192
 0
VERTEX
 8
POLYFACEMESH
 10
-50.6159
 20
43.6081
 30
195
 70
192
 0
VERTEX
 8
POLYFACEMESH
 10
-51.9048
 20
43.1425
 30
195
 70
192
 0
VERTEX
 8
POLYFACEMESH
 10
-51.2972
 20
33.719
 30
195
 70
192
 0
VERTEX
 8
POLYFACEMESH
 10
-52.4801
 20
33.1523
 30
195
 70
192
 0
VERTEX
 8
POLYFACEMESH
 10
-50.1003
 20
23.8788
 30
195
 70
192
 0
VERTEX
 8
POLYFACEMESH
 10
-52.4801
 20
33.1523
 30
195
 70
192
 0
VERTEX
 8
POLYFACEMESH
 10
-51.2972
 20
33.719
 30
195
 70
192
 0
VERTEX
 8
POLYFACEMESH
 10
-52.4801
 20
33.1523
 30
195
 70
192
 0
VERTEX
 8
POLYFACEMESH
 10
-50.1003
 20
23.8788
 30
195
 70
192
 0
VERTEX
 8
POLYFACEMESH
 10
-51.1849
 20
23.2297
 30
195
 70
192
 0
VERTEX
 8
POLYFACEMESH
 10
-47.0684
 20
14.4413
 30
195
 70
192
 0
VERTEX
 8
POLYFACEMESH
 10
-51.1849
 20
23.2297
 30
195
 70
192
 0
VERTEX
 8
POLYFACEMESH
 10
-50.1003
 20
23.8788
 30
195
 70
192
 0
VERTEX
 8
POLYFACEMESH
 10
-51.1849
 20
23.2297
 30
195
 70
192
 0
VERTEX
 8
POLYFACEMESH
 10
-47.0684
 20
14.4413
 30
195
 70
192
 0
VERTEX
 8
POLYFACEMESH
 10
-48.0646
 20
13.7218
 30
195
 70
192
 0
VERTEX
 8
POLYFACEMESH
 10
-42.3102
 20
5.7453
 30
195
 70
192
 0
VERTEX
 8
POLYFACEMESH
 10
-48.0646
 20
13.7218
 30
195
 70
192
 0
VERTEX
 8
POLYFACEMESH
 10
-47.0684
 20
14.4413
 30
195
 70
192
 0
VERTEX
 8
POLYFACEMESH
 10
-48.0646
 20
13.7218
 30
195
 70
192
 0
VERTEX
 8
POLYFACEMESH
 10
-42.3102
 20
5.7453
 30
195
 70
192
 0
VERTEX
 8
POLYFACEMESH
 10
-43.2283
 20
4.9614
 30
195
 70
192
 0
VERTEX
 8
POLYFACEMESH
 10
-35.9967
 20
-1.8967
 30
195
 70
192
 0
VERTEX
 8
POLYFACEMESH
 10
-43.2283
 20
4.9614
 30
195
 70
192
 0
VERTEX
 8
POLYFACEMESH
 10
-42.3102
 20
5.7453
 30
195
 70
192
 0
VERTEX
 8
POLYFACEMESH
 10
-43.2283
 20
4.9614
 30
195
 70
192
 0
VERTEX
 8
POLYFACEMESH
 10
-35.9967
 20
-1.8967
 30
195
 70
192
 0
VERTEX
 8
POLYFACEMESH
 10
-36.8452
 20
-2.7452
 30
195
 70
192
 0
VERTEX
 8
POLYFACEMESH
 10
-28.3547
 20
-8.2102
 30
195
 70
192
 0
VERTEX
 8
POLYFACEMESH
 10
-36.8452
 20
-2.7452
 30
195
 70
192
 0
VERTEX
 8
POLYFACEMESH
 10
-35.9967
 20
-1.8967
 30
195
 70
192
 0
VERTEX
 8
POLYFACEMESH
 10
-36.8452
 20
-2.7452
 30
195
 70
192
 0
VERTEX
 8
POLYFACEMESH
 10
-28.3547
 20
-8.2102
 30
195
 70
192
 0
VERTEX
 8
POLYFACEMESH
 10
-29.1386
 20
-9.1283
 30
195
 70
192
 0
VERTEX
 8
POLYFACEMESH
 10
-19.6587
 20
-12.9684
 30
195
 70
192
 0
VERTEX
 8
POLYFACEMESH
 10
-29.1386
 20
-9.1283
 30
195
 70
192
 0
VERTEX
 8
POLYFACEMESH
 10
-28.3547
 20
-8.2102
 30
195
 70
192
 0
VERTEX
 8
POLYFACEMESH
 10
-29.1386
 20
-9.1283
 30
195
 70
192
 0
VERTEX
 8
POLYFACEMESH
 10
-19.6587
 20
-12.9684
 30
195
 70
192
 0
VERTEX
 8
POLYFACEMESH
 10
-20.3782
 20
-13.9646
 30
195
 70
192
 0
VERTEX
 8
POLYFACEMESH
 10
-10.2212
 20
-16.0003
 30
195
 70
192
 0
VERTEX
 8
POLYFACEMESH
 10
-20.3782
 20
-13.9646
 30
195
 70
192
 0
VERTEX
 8
POLYFACEMESH
 10
-19.6587
 20
-12.9684
 30
195
 70
192
 0
VERTEX
 8
POLYFACEMESH
 10
-20.3782
 20
-13.9646
 30
195
 70
192
 0
VERTEX
 8
POLYFACEMESH
 10
-10.2212
 20
-16.0003
 30
195
 70
192
 0
VERTEX
 8
POLYFACEMESH
 10
-10.8703
 20
-17.0849
 30
195
 70
192
 0
VERTEX
 8
POLYFACEMESH
 10
-0.381
 20
-17.1972
 30
195
 70
192
 0
VERTEX
 8
POLYFACEMESH
 10
-10.8703
 20
-17.0849
 30
195
 70
192
 0
VERTEX
 8
POLYFACEMESH
 10
-10.2212
 20
-16.0003
 30
195
 70
192
 0
VERTEX
 8
POLYFACEMESH
 10
-10.8703
 20
-17.0849
 30
195
 70
192
 0
VERTEX
 8
POLYFACEMESH
 10
-0.381
 20
-17.1972
 30
195
 70
192
 0
VERTEX
 8
POLYFACEMESH
 10
-0.9477
 20
-18.3801
 30
195
 70
192
 0
VERTEX
 8
POLYFACEMESH
 10
9.0425
 20
-17.8048
 30
195
 70
192
 0
VERTEX
 8
POLYFACEMESH
 10
-0.9477
 20
-18.3801
 30
195
 70
192
 0
VERTEX
 8
POLYFACEMESH
 10
-0.381
 20
-17.1972
 30
195
 70
192
 0
VERTEX
 8
POLYFACEMESH
 10
23.0812
 20
-12.0612
 30
195
 70
192
 0
VERTEX
 8
POLYFACEMESH
 10
23.985
 20
-12.9649
 30
195
 70
192
 0
VERTEX
 8
POLYFACEMESH
 10
19.0912
 20
-13.9808
 30
195
 70
192
 0
VERTEX
 8
POLYFACEMESH
 10
18.7508
 20
-15.3791
 30
195
 70
192
 0
VERTEX
 8
POLYFACEMESH
 10
19.0912
 20
-13.9808
 30
195
 70
192
 0
VERTEX
 8
POLYFACEMESH
 10
23.985
 20
-12.9649
 30
195
 70
192
 0
VERTEX
 8
POLYFACEMESH
 10
19.0912
 20
-13.9808
 30
195
 70
192
 0
VERTEX
 8
POLYFACEMESH
 10
18.7508
 20
-15.3791
 30
195
 70
192
 0
VERTEX
 8
POLYFACEMESH
 10
9.5081
 20
-16.5158
 30
195
 70
192
 0
VERTEX
 8
POLYFACEMESH
 10
9.0425
 20
-17.8048
 30
195
 70
192
 0
VERTEX
 8
POLYFACEMESH
 10
9.5081
 20
-16.5158
 30
195
 70
192
 0
VERTEX
 8
POLYFACEMESH
 10
18.7508
 20
-15.3791
 30
195
 70
192
 0
VERTEX
 8
POLYFACEMESH
 10
9.5081
 20
-16.5158
 30
195
 70
192
 0
VERTEX
 8
POLYFACEMESH
 10
9.0425
 20
-17.8048
 30
195
 70
192
 0
VERTEX
 8
POLYFACEMESH
 10
-0.381
 20
-17.1972
 30
195
 70
192
 0
VERTEX
 8
POLYFACEMESH
 10
-10.8703
 20
-17.0849
 30
200
 70
192
 0
VERTEX
 8
POLYFACEMESH
 10
-0.9477
 20
-18.3801
 30
200
 70
192
 0
VERTEX
 8
POLYFACEMESH
 10
-0.381
 20
-17.1972
 30
200
 70
192
 0
VERTEX
 8
POLYFACEMESH
 10
9.0425
 20
-17.8048
 30
200
 70
192
 0
VERTEX
 8
POLYFACEMESH
 10
-0.381
 20
-17.1972
 30
200
 70
192
 0
VERTEX
 8
POLYFACEMESH
 10
-0.9477
 20
-18.3801
 30
200
 70
192
 0
VERTEX
 8
POLYFACEMESH
 10
-0.381
 20
-17.1972
 30
200
 70
192
 0
VERTEX
 8
POLYFACEMESH
 10
9.0425
 20
-17.8048
 30
200
 70
192
 0
VERTEX
 8
POLYFACEMESH
 10
9.5081
 20
-16.5158
 30
200
 70
192
 0
VERTEX
 8
POLYFACEMESH
 10
18.7508
 20
-15.3791
 30
200
 70
192
 0
VERTEX
 8
POLYFACEMESH
 10
9.5081
 20
-16.5158
 30
200
 70
192
 0
VERTEX
 8
POLYFACEMESH
 10
9.0425
 20
-17.8048
 30
200
 70
192
 0
VERTEX
 8
POLYFACEMESH
 10
9.5081
 20
-16.5158
 30
200
 70
192
 0
VERTEX
 8
POLYFACEMESH
 10
18.7508
 20
-15.3791
 30
200
 70
192
 0
VERTEX
 8
POLYFACEMESH
 10
19.0912
 20
-13.9808
 30
200
 70
192
 0
VERTEX
 8
POLYFACEMESH
 10
23.985
 20
-12.9649
 30
200
 70
192
 0
VERTEX
 8
POLYFACEMESH
 10
19.0912
 20
-13.9808
 30
200
 70
192
 0
VERTEX
 8
POLYFACEMESH
 10
18.7508
 20
-15.3791
 30
200
 70
192
 0
VERTEX
 8
POLYFACEMESH
 10
19.0912
 20
-13.9808
 30
200
 70
192
 0
VERTEX
 8
POLYFACEMESH
 10
23.985
 20
-12.9649
 30
200
 70
192
 0
VERTEX
 8
POLYFACEMESH
 10
23.0812
 20
-12.0612
 30
200
 70
192
 0
VERTEX
 8
POLYFACEMESH
 10
-48.0808
 20
53.1912
 30
200
 70
192
 0
VERTEX
 8
POLYFACEMESH
 10
-49.4791
 20
52.8508
 30
200
 70
192
 0
VERTEX
 8
POLYFACEMESH
 10
-50.6158
 20
43.6081
 30
200
 70
192
 0
VERTEX
 8
POLYFACEMESH
 10
-51.9048
 20
43.1425
 30
200
 70
192
 0
VERTEX
 8
POLYFACEMESH
 10
-50.6158
 20
43.6081
 30
200
 70
192
 0
VERTEX
 8
POLYFACEMESH
 10
-49.4791
 20
52.8508
 30
200
 70
192
 0
VERTEX
 8
POLYFACEMESH
 10
-50.6158
 20
43.6081
 30
200
 70
192
 0
VERTEX
 8
POLYFACEMESH
 10
-51.9048
 20
43.1425
 30
200
 70
192
 0
VERTEX
 8
POLYFACEMESH
 10
-51.2972
 20
33.719
 30
200
 70
192
 0
VERTEX
 8
POLYFACEMESH
 10
-52.4801
 20
33.1523
 30
200
 70
192
 0
VERTEX
 8
POLYFACEMESH
 10
-51.2972
 20
33.719
 30
200
 70
192
 0
VERTEX
 8
POLYFACEMESH
 10
-51.9048
 20
43.1425
 30
200
 70
192
 0
VERTEX
 8
POLYFACEMESH
 10
-51.2972
 20
33.719
 30
200
 70
192
 0
VERTEX
 8
POLYFACEMESH
 10
-52.4801
 20
33.1523
 30
200
 70
192
 0
VERTEX
 8
POLYFACEMESH
 10
-50.1003
 20
23.8788
 30
200
 70
192
 0
VERTEX
 8
POLYFACEMESH
 10
-51.1849
 20
23.2297
 30
200
 70
192
 0
VERTEX
 8
POLYFACEMESH
 10
-50.1003
 20
23.8788
 30
200
 70
192
 0
VERTEX
 8
POLYFACEMESH
 10
-52.4801
 20
33.1523
 30
200
 70
192
 0
VERTEX
 8
POLYFACEMESH
 10
-50.1003
 20
23.8788
 30
200
 70
192
 0
VERTEX
 8
POLYFACEMESH
 10
-51.1849
 20
23.2297
 30
200
 70
192
 0
VERTEX
 8
POLYFACEMESH
 10
-47.0684
 20
14.4413
 30
200
 70
192
 0
VERTEX
 8
POLYFACEMESH
 10
-48.0646
 20
13.7218
 30
200
 70
192
 0
VERTEX
 8
POLYFACEMESH
 10
-47.0684
 20
14.4413
 30
200
 70
192
 0
VERTEX
 8
POLYFACEMESH
 10
-51.1849
 20
23.2297
 30
200
 70
192
 0
VERTEX
 8
POLYFACEMESH
 10
-47.0684
 20
14.4413
 30
200
 70
192
 0
VERTEX
 8
POLYFACEMESH
 10
-48.0646
 20
13.7218
 30
200
 70
192
 0
VERTEX
 8
POLYFACEMESH
 10
-42.3102
 20
5.7453
 30
200
 70
192
 0
VERTEX
 8
POLYFACEMESH
 10
-43.2283
 20
4.9614
 30
200
 70
192
 0
VERTEX
 8
POLYFACEMESH
 10
-42.3102
 20
5.7453
 30
200
 70
192
 0
VERTEX
 8
POLYFACEMESH
 10
-48.0646
 20
13.7218
 30
200
 70
192
 0
VERTEX
 8
POLYFACEMESH
 10
-42.3102
 20
5.7453
 30
200
 70
192
 0
VERTEX
 8
POLYFACEMESH
 10
-43.2283
 20
4.9614
 30
200
 70
192
 0
VERTEX
 8
POLYFACEMESH
 10
-35.9967
 20
-1.8967
 30
200
 70
192
 0
VERTEX
 8
POLYFACEMESH
 10
-36.8452
 20
-2.7452
 30
200
 70
192
 0
VERTEX
 8
POLYFACEMESH
 10
-35.9967
 20
-1.8967
 30
200
 70
192
 0
VERTEX
 8
POLYFACEMESH
 10
-43.2283
 20
4.9614
 30
200
 70
192
 0
VERTEX
 8
POLYFACEMESH
 10
-35.9967
 20
-1.8967
 30
200
 70
192
 0
VERTEX
 8
POLYFACEMESH
 10
-36.8452
 20
-2.7452
 30
200
 70
192
 0
VERTEX
 8
POLYFACEMESH
 10
-28.3547
 20
-8.2102
 30
200
 70
192
 0
VERTEX
 8
POLYFACEMESH
 10
-29.1386
 20
-9.1283
 30
200
 70
192
 0
VERTEX
 8
POLYFACEMESH
 10
-28.3547
 20
-8.2102
 30
200
 70
192
 0
VERTEX
 8
POLYFACEMESH
 10
-36.8452
 20
-2.7452
 30
200
 70
192
 0
VERTEX
 8
POLYFACEMESH
 10
-28.3547
 20
-8.2102
 30
200
 70
192
 0
VERTEX
 8
POLYFACEMESH
 10
-29.1386
 20
-9.1283
 30
200
 70
192
 0
VERTEX
 8
POLYFACEMESH
 10
-19.6587
 20
-12.9684
 30
200
 70
192
 0
VERTEX
 8
POLYFACEMESH
 10
-20.3782
 20
-13.9646
 30
200
 70
192
 0
VERTEX
 8
POLYFACEMESH
 10
-19.6587
 20
-12.9684
 30
200
 70
192
 0
VERTEX
 8
POLYFACEMESH
 10
-29.1386
 20
-9.1283
 30
200
 70
192
 0
VERTEX
 8
POLYFACEMESH
 10
-19.6587
 20
-12.9684
 30
200
 70
192
 0
VERTEX
 8
POLYFACEMESH
 10
-20.3782
 20
-13.9646
 30
200
 70
192
 0
VERTEX
 8
POLYFACEMESH
 10
-10.2212
 20
-16.0003
 30
200
 70
192
 0
VERTEX
 8
POLYFACEMESH
 10
-10.8703
 20
-17.0849
 30
200
 70
192
 0
VERTEX
 8
POLYFACEMESH
 10
-10.2212
 20
-16.0003
 30
200
 70
192
 0
VERTEX
 8
POLYFACEMESH
 10
-20.3782
 20
-13.9646
 30
200
 70
192
 0
VERTEX
 8
POLYFACEMESH
 10
-10.2212
 20
-16.0003
 30
200
 70
192
 0
VERTEX
 8
POLYFACEMESH
 10
-10.8703
 20
-17.0849
 30
200
 70
192
 0
VERTEX
 8
POLYFACEMESH
 10
-0.381
 20
-17.1972
 30
200
 70
192
 0
VERTEX
 8
POLYFACEMESH
 10
-46.1612
 20
57.1812
 30
200
 70
192
 0
VERTEX
 8
POLYFACEMESH
 10
-47.0649
 20
58.085
 30
200
 70
192
 0
VERTEX
 8
POLYFACEMESH
 10
-49.4791
 20
52.8508
 30
200
 70
192
 0
VERTEX
 8
POLYFACEMESH
 10
-46.1612
 20
57.1812
 30
200
 70
192
 0
VERTEX
 8
POLYFACEMESH
 10
-49.4791
 20
52.8508
 30
200
 70
192
 0
VERTEX
 8
POLYFACEMESH
 10
-48.0808
 20
53.1912
 30
200
 70
192
 0
VERTEX
 8
POLYFACEMESH
 10
10.7587
 20
-18.2874
 30
195
 70
192
 0
VERTEX
 8
POLYFACEMESH
 10
10.7587
 20
-18.2874
 30
191
 70
192
 0
VERTEX
 8
POLYFACEMESH
 10
10.3737
 20
-16.2868
 30
195
 70
192
 0
VERTEX
 8
POLYFACEMESH
 10
10.3737
 20
-16.2868
 30
191
 70
192
 0
VERTEX
 8
POLYFACEMESH
 10
10.7587
 20
-18.2874
 30
195
 70
192
 0
VERTEX
 8
POLYFACEMESH
 10
9.0942
 20
-18.7032
 30
195
 70
192
 0
VERTEX
 8
POLYFACEMESH
 10
10.7587
 20
-18.2874
 30
191
 70
192
 0
VERTEX
 8
POLYFACEMESH
 10
9.0942
 20
-18.7032
 30
191
 70
192
 0
VERTEX
 8
POLYFACEMESH
 10
10.7587
 20
-18.2874
 30
191
 70
192
 0
VERTEX
 8
POLYFACEMESH
 10
3.0683
 20
-19.0503
 30
195
 70
192
 0
VERTEX
 8
POLYFACEMESH
 10
3.0683
 20
-19.0503
 30
191
 70
192
 0
VERTEX
 8
POLYFACEMESH
 10
3.0683
 20
-19.0503
 30
195
 70
192
 0
VERTEX
 8
POLYFACEMESH
 10
2.9484
 20
-16.9677
 30
195
 70
192
 0
VERTEX
 8
POLYFACEMESH
 10
3.0683
 20
-19.0503
 30
191
 70
192
 0
VERTEX
 8
POLYFACEMESH
 10
2.9484
 20
-16.9677
 30
191
 70
192
 0
VERTEX
 8
POLYFACEMESH
 10
3.0683
 20
-19.0503
 30
191
 70
192
 0
VERTEX
 8
POLYFACEMESH
 10
2.9484
 20
-16.9677
 30
195
 70
192
 0
VERTEX
 8
POLYFACEMESH
 10
2.9484
 20
-16.9677
 30
191
 70
192
 0
VERTEX
 8
POLYFACEMESH
 10
9.5081
 20
-16.5158
 30
191
 70
192
 0
VERTEX
 8
POLYFACEMESH
 10
2.9484
 20
-16.9677
 30
191
 70
192
 0
VERTEX
 8
POLYFACEMESH
 10
10.3737
 20
-16.2868
 30
195
 70
192
 0
VERTEX
 8
POLYFACEMESH
 10
10.3737
 20
-16.2868
 30
195
 70
192
 0
VERTEX
 8
POLYFACEMESH
 10
10.3737
 20
-16.2868
 30
191
 70
192
 0
VERTEX
 8
POLYFACEMESH
 10
10.7587
 20
-18.2874
 30
191
 70
192
 0
VERTEX
 8
POLYFACEMESH
 10
9.5081
 20
-16.5158
 30
191
 70
192
 0
VERTEX
 8
POLYFACEMESH
 10
10.3737
 20
-16.2868
 30
191
 70
192
 0
VERTEX
 8
POLYFACEMESH
 10
10.7587
 20
-18.2874
 30
191
 70
192
 0
VERTEX
 8
POLYFACEMESH
 10
9.0942
 20
-18.7032
 30
191
 70
192
 0
VERTEX
 8
POLYFACEMESH
 10
3.0683
 20
-19.0503
 30
191
 70
192
 0
VERTEX
 8
POLYFACEMESH
 10
10.7587
 20
-18.2874
 30
191
 70
192
 0
VERTEX
 8
POLYFACEMESH
 10
3.0683
 20
-19.0503
 30
191
 70
192
 0
VERTEX
 8
POLYFACEMESH
 10
2.9484
 20
-16.9677
 30
191
 70
192
 0
VERTEX
 8
POLYFACEMESH
 10
10.7587
 20
-18.2874
 30
191
 70
192
 0
VERTEX
 8
POLYFACEMESH
 10
2.9484
 20
-16.9677
 30
191
 70
192
 0
VERTEX
 8
POLYFACEMESH
 10
9.5081
 20
-16.5158
 30
191
 70
192
 0
VERTEX
 8
POLYFACEMESH
 10
10.7587
 20
-18.2874
 30
195
 70
192
 0
VERTEX
 8
POLYFACEMESH
 10
10.3737
 20
-16.2868
 30
195
 70
192
 0
VERTEX
 8
POLYFACEMESH
 10
9.5081
 20
-16.5158
 30
195
 70
192
 0
VERTEX
 8
POLYFACEMESH
 10
10.7587
 20
-18.2874
 30
195
 70
192
 0
VERTEX
 8
POLYFACEMESH
 10
9.5081
 20
-16.5158
 30
195
 70
192
 0
VERTEX
 8
POLYFACEMESH
 10
2.9484
 20
-16.9677
 30
195
 70
192
 0
VERTEX
 8
POLYFACEMESH
 10
10.7587
 20
-18.2874
 30
195
 70
192
 0
VERTEX
 8
POLYFACEMESH
 10
2.9484
 20
-16.9677
 30
195
 70
192
 0
VERTEX
 8
POLYFACEMESH
 10
3.0683
 20
-19.0503
 30
195
 70
192
 0
VERTEX
 8
POLYFACEMESH
 10
10.7587
 20
-18.2874
 30
195
 70
192
 0
VERTEX
 8
POLYFACEMESH
 10
3.0683
 20
-19.0503
 30
195
 70
192
 0
VERTEX
 8
POLYFACEMESH
 10
9.0942
 20
-18.7032
 30
195
 70
192
 0
VERTEX
 8
POLYFACEMESH
 10
-50.3869
 20
44.4738
 30
195
 70
192
 0
VERTEX
 8
POLYFACEMESH
 10
-50.3869
 20
44.4738
 30
191
 70
192
 0
VERTEX
 8
POLYFACEMESH
 10
-52.3874
 20
44.8587
 30
195
 70
192
 0
VERTEX
 8
POLYFACEMESH
 10
-52.3874
 20
44.8587
 30
191
 70
192
 0
VERTEX
 8
POLYFACEMESH
 10
-52.3874
 20
44.8587
 30
191
 70
192
 0
VERTEX
 8
POLYFACEMESH
 10
-52.8033
 20
43.1943
 30
191
 70
192
 0
VERTEX
 8
POLYFACEMESH
 10
-52.3874
 20
44.8587
 30
195
 70
192
 0
VERTEX
 8
POLYFACEMESH
 10
-52.8033
 20
43.1943
 30
195
 70
192
 0
VERTEX
 8
POLYFACEMESH
 10
-52.3874
 20
44.8587
 30
195
 70
192
 0
VERTEX
 8
POLYFACEMESH
 10
-53.1503
 20
37.1684
 30
191
 70
192
 0
VERTEX
 8
POLYFACEMESH
 10
-53.1503
 20
37.1684
 30
195
 70
192
 0
VERTEX
 8
POLYFACEMESH
 10
-53.1503
 20
37.1684
 30
191
 70
192
 0
VERTEX
 8
POLYFACEMESH
 10
-51.0678
 20
37.0485
 30
191
 70
192
 0
VERTEX
 8
POLYFACEMESH
 10
-53.1503
 20
37.1684
 30
195
 70
192
 0
VERTEX
 8
POLYFACEMESH
 10
-51.0678
 20
37.0485
 30
195
 70
192
 0
VERTEX
 8
POLYFACEMESH
 10
-53.1503
 20
37.1684
 30
195
 70
192
 0
VERTEX
 8
POLYFACEMESH
 10
-51.0678
 20
37.0485
 30
191
 70
192
 0
VERTEX
 8
POLYFACEMESH
 10
-50.6159
 20
43.6082
 30
191
 70
192
 0
VERTEX
 8
POLYFACEMESH
 10
-51.0678
 20
37.0485
 30
195
 70
192
 0
VERTEX
 8
POLYFACEMESH
 10
-50.6159
 20
43.6081
 30
195
 70
192
 0
VERTEX
 8
POLYFACEMESH
 10
-51.0678
 20
37.0485
 30
195
 70
192
 0
VERTEX
 8
POLYFACEMESH
 10
-50.3869
 20
44.4738
 30
191
 70
192
 0
VERTEX
 8
POLYFACEMESH
 10
-50.6159
 20
43.6081
 30
195
 70
192
 0
VERTEX
 8
POLYFACEMESH
 10
-50.3869
 20
44.4738
 30
191
 70
192
 0
VERTEX
 8
POLYFACEMESH
 10
-50.3869
 20
44.4738
 30
195
 70
192
 0
VERTEX
 8
POLYFACEMESH
 10
-50.6159
 20
43.6081
 30
195
 70
192
 0
VERTEX
 8
POLYFACEMESH
 10
-52.8033
 20
43.1943
 30
191
 70
192
 0
VERTEX
 8
POLYFACEMESH
 10
-51.0678
 20
37.0485
 30
191
 70
192
 0
VERTEX
 8
POLYFACEMESH
 10
-53.1503
 20
37.1684
 30
191
 70
192
 0
VERTEX
 8
POLYFACEMESH
 10
-52.8033
 20
43.1943
 30
191
 70
192
 0
VERTEX
 8
POLYFACEMESH
 10
-52.3874
 20
44.8587
 30
191
 70
192
 0
VERTEX
 8
POLYFACEMESH
 10
-50.3869
 20
44.4738
 30
191
 70
192
 0
VERTEX
 8
POLYFACEMESH
 10
-52.8033
 20
43.1943
 30
191
 70
192
 0
VERTEX
 8
POLYFACEMESH
 10
-50.3869
 20
44.4738
 30
191
 70
192
 0
VERTEX
 8
POLYFACEMESH
 10
-50.6159
 20
43.6082
 30
191
 70
192
 0
VERTEX
 8
POLYFACEMESH
 10
-52.8033
 20
43.1943
 30
191
 70
192
 0
VERTEX
 8
POLYFACEMESH
 10
-50.6159
 20
43.6082
 30
191
 70
192
 0
VERTEX
 8
POLYFACEMESH
 10
-51.0678
 20
37.0485
 30
191
 70
192
 0
VERTEX
 8
POLYFACEMESH
 10
-52.3874
 20
44.8587
 30
195
 70
192
 0
VERTEX
 8
POLYFACEMESH
 10
-52.8033
 20
43.1943
 30
195
 70
192
 0
VERTEX
 8
POLYFACEMESH
 10
-53.1503
 20
37.1684
 30
195
 70
192
 0
VERTEX
 8
POLYFACEMESH
 10
-52.3874
 20
44.8587
 30
195
 70
192
 0
VERTEX
 8
POLYFACEMESH
 10
-53.1503
 20
37.1684
 30
195
 70
192
 0
VERTEX
 8
POLYFACEMESH
 10
-51.0678
 20
37.0485
 30
195
 70
192
 0
VERTEX
 8
POLYFACEMESH
 10
-52.3874
 20
44.8587
 30
195
 70
192
 0
VERTEX
 8
POLYFACEMESH
 10
-51.0678
 20
37.0485
 30
195
 70
192
 0
VERTEX
 8
POLYFACEMESH
 10
-50.6159
 20
43.6081
 30
195
 70
192
 0
VERTEX
 8
POLYFACEMESH
 10
-52.3874
 20
44.8587
 30
195
 70
192
 0
VERTEX
 8
POLYFACEMESH
 10
-50.6159
 20
43.6081
 30
195
 70
192
 0
VERTEX
 8
POLYFACEMESH
 10
-50.3869
 20
44.4738
 30
195
 70
192
 0
VERTEX
 8
POLYFACEMESH
 10
-51.815
 20
67.085
 30
0
 70
192
 0
VERTEX
 8
POLYFACEMESH
 10
-53.015
 20
67.085
 30
0
 70
192
 0
VERTEX
 8
POLYFACEMESH
 10
-51.815
 20
70.585
 30
0
 70
192
 0
VERTEX
 8
POLYFACEMESH
 10
-53.015
 20
70.585
 30
0
 70
192
 0
VERTEX
 8
POLYFACEMESH
 10
-53.015
 20
70.585
 30
185
 70
192
 0
VERTEX
 8
POLYFACEMESH
 10
-53.015
 20
67.085
 30
185
 70
192
 0
VERTEX
 8
POLYFACEMESH
 10
-51.815
 20
70.585
 30
185
 70
192
 0
VERTEX
 8
POLYFACEMESH
 10
-51.815
 20
67.085
 30
185
 70
192
 0
VERTEX
 8
POLYFACEMESH
 10
-51.815
 20
67.085
 30
185
 70
192
 0
VERTEX
 8
POLYFACEMESH
 10
-53.015
 20
67.085
 30
185
 70
192
 0
VERTEX
 8
POLYFACEMESH
 10
-51.815
 20
67.085
 30
0
 70
192
 0
VERTEX
 8
POLYFACEMESH
 10
-53.015
 20
67.085
 30
185
 70
192
 0
VERTEX
 8
POLYFACEMESH
 10
-53.015
 20
67.085
 30
0
 70
192
 0
VERTEX
 8
POLYFACEMESH
 10
-51.815
 20
67.085
 30
0
 70
192
 0
VERTEX
 8
POLYFACEMESH
 10
-51.815
 20
70.585
 30
185
 70
192
 0
VERTEX
 8
POLYFACEMESH
 10
-51.815
 20
67.085
 30
185
 70
192
 0
VERTEX
 8
POLYFACEMESH
 10
-51.815
 20
70.585
 30
0
 70
192
 0
VERTEX
 8
POLYFACEMESH
 10
-51.815
 20
67.085
 30
185
 70
192
 0
VERTEX
 8
POLYFACEMESH
 10
-51.815
 20
67.085
 30
0
 70
192
 0
VERTEX
 8
POLYFACEMESH
 10
-51.815
 20
70.585
 30
0
 70
192
 0
VERTEX
 8
POLYFACEMESH
 10
-53.015
 20
70.585
 30
185
 70
192
 0
VERTEX
 8
POLYFACEMESH
 10
-51.815
 20
70.585
 30
185
 70
192
 0
VERTEX
 8
POLYFACEMESH
 10
-53.015
 20
70.585
 30
0
 70
192
 0
VERTEX
 8
POLYFACEMESH
 10
-51.815
 20
70.585
 30
185
 70
192
 0
VERTEX
 8
POLYFACEMESH
 10
-51.815
 20
70.585
 30
0
 70
192
 0
VERTEX
 8
POLYFACEMESH
 10
-53.015
 20
70.585
 30
0
 70
192
 0
VERTEX
 8
POLYFACEMESH
 10
-53.015
 20
67.085
 30
185
 70
192
 0
VERTEX
 8
POLYFACEMESH
 10
-53.015
 20
70.585
 30
185
 70
192
 0
VERTEX
 8
POLYFACEMESH
 10
-53.015
 20
67.085
 30
0
 70
192
 0
VERTEX
 8
POLYFACEMESH
 10
-53.015
 20
70.585
 30
185
 70
192
 0
VERTEX
 8
POLYFACEMESH
 10
-53.015
 20
70.585
 30
0
 70
192
 0
VERTEX
 8
POLYFACEMESH
 10
-53.015
 20
67.085
 30
0
 70
192
 0
VERTEX
 8
POLYFACEMESH
 10
36.4849
 20
-17.715
 30
185
 70
192
 0
VERTEX
 8
POLYFACEMESH
 10
32.9849
 20
-17.715
 30
185
 70
192
 0
VERTEX
 8
POLYFACEMESH
 10
36.4849
 20
-18.915
 30
185
 70
192
 0
VERTEX
 8
POLYFACEMESH
 10
32.9849
 20
-18.915
 30
185
 70
192
 0
VERTEX
 8
POLYFACEMESH
 10
32.985
 20
-18.915
 30
0
 70
192
 0
VERTEX
 8
POLYFACEMESH
 10
32.985
 20
-17.715
 30
0
 70
192
 0
VERTEX
 8
POLYFACEMESH
 10
36.485
 20
-18.915
 30
0
 70
192
 0
VERTEX
 8
POLYFACEMESH
 10
36.485
 20
-17.715
 30
0
 70
192
 0
VERTEX
 8
POLYFACEMESH
 10
32.9849
 20
-18.915
 30
185
 70
192
 0
VERTEX
 8
POLYFACEMESH
 10
32.9849
 20
-17.715
 30
185
 70
192
 0
VERTEX
 8
POLYFACEMESH
 10
32.985
 20
-18.915
 30
0
 70
192
 0
VERTEX
 8
POLYFACEMESH
 10
32.9849
 20
-17.715
 30
185
 70
192
 0
VERTEX
 8
POLYFACEMESH
 10
32.985
 20
-17.715
 30
0
 70
192
 0
VERTEX
 8
POLYFACEMESH
 10
32.985
 20
-18.915
 30
0
 70
192
 0
VERTEX
 8
POLYFACEMESH
 10
36.4849
 20
-18.915
 30
185
 70
192
 0
VERTEX
 8
POLYFACEMESH
 10
32.9849
 20
-18.915
 30
185
 70
192
 0
VERTEX
 8
POLYFACEMESH
 10
36.485
 20
-18.915
 30
0
 70
192
 0
VERTEX
 8
POLYFACEMESH
 10
32.9849
 20
-18.915
 30
185
 70
192
 0
VERTEX
 8
POLYFACEMESH
 10
32.985
 20
-18.915
 30
0
 70
192
 0
VERTEX
 8
POLYFACEMESH
 10
36.485
 20
-18.915
 30
0
 70
192
 0
VERTEX
 8
POLYFACEMESH
 10
36.4849
 20
-17.715
 30
185
 70
192
 0
VERTEX
 8
POLYFACEMESH
 10
36.4849
 20
-18.915
 30
185
 70
192
 0
VERTEX
 8
POLYFACEMESH
 10
36.485
 20
-17.715
 30
0
 70
192
 0
VERTEX
 8
POLYFACEMESH
 10
36.4849
 20
-18.915
 30
185
 70
192
 0
VERTEX
 8
POLYFACEMESH
 10
36.485
 20
-18.915
 30
0
 70
192
 0
VERTEX
 8
POLYFACEMESH
 10
36.485
 20
-17.715
 30
0
 70
192
 0
VERTEX
 8
POLYFACEMESH
 10
32.9849
 20
-17.715
 30
185
 70
192
 0
VERTEX
 8
POLYFACEMESH
 10
36.4849
 20
-17.715
 30
185
 70
192
 0
VERTEX
 8
POLYFACEMESH
 10
32.985
 20
-17.715
 30
0
 70
192
 0
VERTEX
 8
POLYFACEMESH
 10
36.4849
 20
-17.715
 30
185
 70
192
 0
VERTEX
 8
POLYFACEMESH
 10
36.485
 20
-17.715
 30
0
 70
192
 0
VERTEX
 8
POLYFACEMESH
 10
32.985
 20
-17.715
 30
0
 70
192
 0
VERTEX
 8
POLYFACEMESH
 10
-52.715
 20
35.585
 30
3.3
 70
192
 0
VERTEX
 8
POLYFACEMESH
 10
-52.115
 20
35.585
 30
3.3
 70
192
 0
VERTEX
 8
POLYFACEMESH
 10
-52.715
 20
35.585
 30
0
 70
192
 0
VERTEX
 8
POLYFACEMESH
 10
-52.115
 20
35.585
 30
0
 70
192
 0
VERTEX
 8
POLYFACEMESH
 10
-52.115
 20
37.585
 30
0
 70
192
 0
VERTEX
 8
POLYFACEMESH
 10
-52.115
 20
37.585
 30
3.3
 70
192
 0
VERTEX
 8
POLYFACEMESH
 10
-51.315
 20
37.585
 30
0
 70
192
 0
VERTEX
 8
POLYFACEMESH
 10
-51.315
 20
37.585
 30
3.3
 70
192
 0
VERTEX
 8
POLYFACEMESH
 10
-51.315
 20
37.585
 30
0
 70
192
 0
VERTEX
 8
POLYFACEMESH
 10
-53.515
 20
33.585
 30
3.3
 70
192
 0
VERTEX
 8
POLYFACEMESH
 10
-53.515
 20
37.585
 30
3.3
 70
192
 0
VERTEX
 8
POLYFACEMESH
 10
-53.515
 20
33.585
 30
0
 70
192
 0
VERTEX
 8
POLYFACEMESH
 10
-53.515
 20
37.585
 30
0
 70
192
 0
VERTEX
 8
POLYFACEMESH
 10
-51.315
 20
33.585
 30
3.3
 70
192
 0
VERTEX
 8
POLYFACEMESH
 10
-53.515
 20
33.585
 30
3.3
 70
192
 0
VERTEX
 8
POLYFACEMESH
 10
-51.315
 20
33.585
 30
0
 70
192
 0
VERTEX
 8
POLYFACEMESH
 10
-53.515
 20
33.585
 30
3.3
 70
192
 0
VERTEX
 8
POLYFACEMESH
 10
-53.515
 20
33.585
 30
0
 70
192
 0
VERTEX
 8
POLYFACEMESH
 10
-51.315
 20
37.585
 30
3.3
 70
192
 0
VERTEX
 8
POLYFACEMESH
 10
-51.315
 20
33.585
 30
3.3
 70
192
 0
VERTEX
 8
POLYFACEMESH
 10
-51.315
 20
37.585
 30
0
 70
192
 0
VERTEX
 8
POLYFACEMESH
 10
-51.315
 20
33.585
 30
3.3
 70
192
 0
VERTEX
 8
POLYFACEMESH
 10
-51.315
 20
33.585
 30
0
 70
192
 0
VERTEX
 8
POLYFACEMESH
 10
-51.315
 20
37.585
 30
0
 70
192
 0
VERTEX
 8
POLYFACEMESH
 10
-52.715
 20
37.585
 30
3.3
 70
192
 0
VERTEX
 8
POLYFACEMESH
 10
-52.715
 20
37.585
 30
0
 70
192
 0
VERTEX
 8
POLYFACEMESH
 10
-53.515
 20
37.585
 30
3.3
 70
192
 0
VERTEX
 8
POLYFACEMESH
 10
-53.515
 20
37.585
 30
0
 70
192
 0
VERTEX
 8
POLYFACEMESH
 10
-53.515
 20
37.585
 30
3.3
 70
192
 0
VERTEX
 8
POLYFACEMESH
 10
-52.115
 20
37.585
 30
0
 70
192
 0
VERTEX
 8
POLYFACEMESH
 10
-51.315
 20
33.585
 30
0
 70
192
 0
VERTEX
 8
POLYFACEMESH
 10
-52.115
 20
35.585
 30
0
 70
192
 0
VERTEX
 8
POLYFACEMESH
 10
-52.115
 20
35.585
 30
3.3
 70
192
 0
VERTEX
 8
POLYFACEMESH
 10
-52.115
 20
37.585
 30
3.3
 70
192
 0
VERTEX
 8
POLYFACEMESH
 10
-52.115
 20
35.585
 30
0
 70
192
 0
VERTEX
 8
POLYFACEMESH
 10
-52.115
 20
37.585
 30
3.3
 70
192
 0
VERTEX
 8
POLYFACEMESH
 10
-52.115
 20
37.585
 30
0
 70
192
 0
VERTEX
 8
POLYFACEMESH
 10
-52.115
 20
35.585
 30
0
 70
192
 0
VERTEX
 8
POLYFACEMESH
 10
-52.715
 20
37.585
 30
3.3
 70
192
 0
VERTEX
 8
POLYFACEMESH
 10
-52.715
 20
35.585
 30
3.3
 70
192
 0
VERTEX
 8
POLYFACEMESH
 10
-52.715
 20
37.585
 30
0
 70
192
 0
VERTEX
 8
POLYFACEMESH
 10
-52.715
 20
35.585
 30
3.3
 70
192
 0
VERTEX
 8
POLYFACEMESH
 10
-52.715
 20
35.585
 30
0
 70
192
 0
VERTEX
 8
POLYFACEMESH
 10
-52.715
 20
37.585
 30
0
 70
192
 0
VERTEX
 8
POLYFACEMESH
 10
-52.715
 20
35.585
 30
0
 70
192
 0
VERTEX
 8
POLYFACEMESH
 10
-52.115
 20
35.585
 30
0
 70
192
 0
VERTEX
 8
POLYFACEMESH
 10
-51.315
 20
33.585
 30
0
 70
192
 0
VERTEX
 8
POLYFACEMESH
 10
-52.715
 20
35.585
 30
0
 70
192
 0
VERTEX
 8
POLYFACEMESH
 10
-51.315
 20
33.585
 30
0
 70
192
 0
VERTEX
 8
POLYFACEMESH
 10
-53.515
 20
33.585
 30
0
 70
192
 0
VERTEX
 8
POLYFACEMESH
 10
-52.715
 20
35.585
 30
0
 70
192
 0
VERTEX
 8
POLYFACEMESH
 10
-53.515
 20
33.585
 30
0
 70
192
 0
VERTEX
 8
POLYFACEMESH
 10
-53.515
 20
37.585
 30
0
 70
192
 0
VERTEX
 8
POLYFACEMESH
 10
-52.715
 20
35.585
 30
0
 70
192
 0
VERTEX
 8
POLYFACEMESH
 10
-53.515
 20
37.585
 30
0
 70
192
 0
VERTEX
 8
POLYFACEMESH
 10
-52.715
 20
37.585
 30
0
 70
192
 0
VERTEX
 8
POLYFACEMESH
 10
-52.115
 20
37.585
 30
0
 70
192
 0
VERTEX
 8
POLYFACEMESH
 10
-51.315
 20
37.585
 30
0
 70
192
 0
VERTEX
 8
POLYFACEMESH
 10
-51.315
 20
33.585
 30
0
 70
192
 0
VERTEX
 8
POLYFACEMESH
 10
-52.115
 20
35.585
 30
3.3
 70
192
 0
VERTEX
 8
POLYFACEMESH
 10
-52.715
 20
35.585
 30
3.3
 70
192
 0
VERTEX
 8
POLYFACEMESH
 10
-53.515
 20
33.585
 30
3.3
 70
192
 0
VERTEX
 8
POLYFACEMESH
 10
-52.115
 20
35.585
 30
3.3
 70
192
 0
VERTEX
 8
POLYFACEMESH
 10
-53.515
 20
33.585
 30
3.3
 70
192
 0
VERTEX
 8
POLYFACEMESH
 10
-51.315
 20
33.585
 30
3.3
 70
192
 0
VERTEX
 8
POLYFACEMESH
 10
-52.115
 20
35.585
 30
3.3
 70
192
 0
VERTEX
 8
POLYFACEMESH
 10
-51.315
 20
33.585
 30
3.3
 70
192
 0
VERTEX
 8
POLYFACEMESH
 10
-51.315
 20
37.585
 30
3.3
 70
192
 0
VERTEX
 8
POLYFACEMESH
 10
-52.115
 20
35.585
 30
3.3
 70
192
 0
VERTEX
 8
POLYFACEMESH
 10
-51.315
 20
37.585
 30
3.3
 70
192
 0
VERTEX
 8
POLYFACEMESH
 10
-52.115
 20
37.585
 30
3.3
 70
192
 0
VERTEX
 8
POLYFACEMESH
 10
-52.715
 20
37.585
 30
3.3
 70
192
 0
VERTEX
 8
POLYFACEMESH
 10
-53.515
 20
37.585
 30
3.3
 70
192
 0
VERTEX
 8
POLYFACEMESH
 10
-53.515
 20
33.585
 30
3.3
 70
192
 0
VERTEX
 8
POLYFACEMESH
 10
-52.715
 20
37.585
 30
3.3
 70
192
 0
VERTEX
 8
POLYFACEMESH
 10
-53.515
 20
33.585
 30
3.3
 70
192
 0
VERTEX
 8
POLYFACEMESH
 10
-52.715
 20
35.585
 30
3.3
 70
192
 0
VERTEX
 8
POLYFACEMESH
 10
1.485
 20
-18.015
 30
3.3
 70
192
 0
VERTEX
 8
POLYFACEMESH
 10
1.485
 20
-18.615
 30
3.3
 70
192
 0
VERTEX
 8
POLYFACEMESH
 10
1.485
 20
-18.015
 30
0
 70
192
 0
VERTEX
 8
POLYFACEMESH
 10
1.485
 20
-18.615
 30
0
 70
192
 0
VERTEX
 8
POLYFACEMESH
 10
3.485
 20
-18.615
 30
0
 70
192
 0
VERTEX
 8
POLYFACEMESH
 10
3.485
 20
-18.615
 30
3.3
 70
192
 0
VERTEX
 8
POLYFACEMESH
 10
3.485
 20
-19.415
 30
0
 70
192
 0
VERTEX
 8
POLYFACEMESH
 10
3.485
 20
-19.415
 30
3.3
 70
192
 0
VERTEX
 8
POLYFACEMESH
 10
-0.515
 20
-17.215
 30
3.3
 70
192
 0
VERTEX
 8
POLYFACEMESH
 10
3.485
 20
-17.215
 30
3.3
 70
192
 0
VERTEX
 8
POLYFACEMESH
 10
-0.515
 20
-17.215
 30
0
 70
192
 0
VERTEX
 8
POLYFACEMESH
 10
3.485
 20
-17.215
 30
0
 70
192
 0
VERTEX
 8
POLYFACEMESH
 10
-0.515
 20
-19.415
 30
3.3
 70
192
 0
VERTEX
 8
POLYFACEMESH
 10
-0.515
 20
-17.215
 30
3.3
 70
192
 0
VERTEX
 8
POLYFACEMESH
 10
-0.515
 20
-19.415
 30
0
 70
192
 0
VERTEX
 8
POLYFACEMESH
 10
-0.515
 20
-17.215
 30
3.3
 70
192
 0
VERTEX
 8
POLYFACEMESH
 10
-0.515
 20
-17.215
 30
0
 70
192
 0
VERTEX
 8
POLYFACEMESH
 10
3.485
 20
-19.415
 30
3.3
 70
192
 0
VERTEX
 8
POLYFACEMESH
 10
-0.515
 20
-19.415
 30
3.3
 70
192
 0
VERTEX
 8
POLYFACEMESH
 10
3.485
 20
-19.415
 30
0
 70
192
 0
VERTEX
 8
POLYFACEMESH
 10
-0.515
 20
-19.415
 30
3.3
 70
192
 0
VERTEX
 8
POLYFACEMESH
 10
-0.515
 20
-19.415
 30
0
 70
192
 0
VERTEX
 8
POLYFACEMESH
 10
3.485
 20
-19.415
 30
0
 70
192
 0
VERTEX
 8
POLYFACEMESH
 10
3.485
 20
-18.015
 30
3.3
 70
192
 0
VERTEX
 8
POLYFACEMESH
 10
3.485
 20
-18.015
 30
0
 70
192
 0
VERTEX
 8
POLYFACEMESH
 10
3.485
 20
-17.215
 30
3.3
 70
192
 0
VERTEX
 8
POLYFACEMESH
 10
3.485
 20
-17.215
 30
0
 70
192
 0
VERTEX
 8
POLYFACEMESH
 10
3.485
 20
-17.215
 30
3.3
 70
192
 0
VERTEX
 8
POLYFACEMESH
 10
3.485
 20
-17.215
 30
0
 70
192
 0
VERTEX
 8
POLYFACEMESH
 10
3.485
 20
-18.015
 30
0
 70
192
 0
VERTEX
 8
POLYFACEMESH
 10
-0.515
 20
-17.215
 30
0
 70
192
 0
VERTEX
 8
POLYFACEMESH
 10
1.485
 20
-18.615
 30
3.3
 70
192
 0
VERTEX
 8
POLYFACEMESH
 10
3.485
 20
-18.615
 30
3.3
 70
192
 0
VERTEX
 8
POLYFACEMESH
 10
1.485
 20
-18.615
 30
0
 70
192
 0
VERTEX
 8
POLYFACEMESH
 10
3.485
 20
-18.615
 30
3.3
 70
192
 0
VERTEX
 8
POLYFACEMESH
 10
3.485
 20
-18.615
 30
0
 70
192
 0
VERTEX
 8
POLYFACEMESH
 10
1.485
 20
-18.615
 30
0
 70
192
 0
VERTEX
 8
POLYFACEMESH
 10
3.485
 20
-18.015
 30
3.3
 70
192
 0
VERTEX
 8
POLYFACEMESH
 10
1.485
 20
-18.015
 30
3.3
 70
192
 0
VERTEX
 8
POLYFACEMESH
 10
3.485
 20
-18.015
 30
0
 70
192
 0
VERTEX
 8
POLYFACEMESH
 10
1.485
 20
-18.015
 30
3.3
 70
192
 0
VERTEX
 8
POLYFACEMESH
 10
1.485
 20
-18.015
 30
0
 70
192
 0
VERTEX
 8
POLYFACEMESH
 10
3.485
 20
-18.015
 30
0
 70
192
 0
VERTEX
 8
POLYFACEMESH
 10
3.485
 20
-18.615
 30
0
 70
192
 0
VERTEX
 8
POLYFACEMESH
 10
3.485
 20
-19.415
 30
0
 70
192
 0
VERTEX
 8
POLYFACEMESH
 10
1.485
 20
-18.615
 30
0
 70
192
 0
VERTEX
 8
POLYFACEMESH
 10
-0.515
 20
-19.415
 30
0
 70
192
 0
VERTEX
 8
POLYFACEMESH
 10
1.485
 20
-18.615
 30
0
 70
192
 0
VERTEX
 8
POLYFACEMESH
 10
3.485
 20
-19.415
 30
0
 70
192
 0
VERTEX
 8
POLYFACEMESH
 10
1.485
 20
-18.615
 30
0
 70
192
 0
VERTEX
 8
POLYFACEMESH
 10
-0.515
 20
-19.415
 30
0
 70
192
 0
VERTEX
 8
POLYFACEMESH
 10
1.485
 20
-18.015
 30
0
 70
192
 0
VERTEX
 8
POLYFACEMESH
 10
-0.515
 20
-17.215
 30
0
 70
192
 0
VERTEX
 8
POLYFACEMESH
 10
1.485
 20
-18.015
 30
0
 70
192
 0
VERTEX
 8
POLYFACEMESH
 10
-0.515
 20
-19.415
 30
0
 70
192
 0
VERTEX
 8
POLYFACEMESH
 10
1.485
 20
-18.015
 30
0
 70
192
 0
VERTEX
 8
POLYFACEMESH
 10
-0.515
 20
-17.215
 30
0
 70
192
 0
VERTEX
 8
POLYFACEMESH
 10
3.485
 20
-18.015
 30
0
 70
192
 0
VERTEX
 8
POLYFACEMESH
 10
3.485
 20
-18.015
 30
3.3
 70
192
 0
VERTEX
 8
POLYFACEMESH
 10
-0.515
 20
-17.215
 30
3.3
 70
192
 0
VERTEX
 8
POLYFACEMESH
 10
1.485
 20
-18.015
 30
3.3
 70
192
 0
VERTEX
 8
POLYFACEMESH
 10
-0.515
 20
-19.415
 30
3.3
 70
192
 0
VERTEX
 8
POLYFACEMESH
 10
1.485
 20
-18.015
 30
3.3
 70
192
 0
VERTEX
 8
POLYFACEMESH
 10
-0.515
 20
-17.215
 30
3.3
 70
192
 0
VERTEX
 8
POLYFACEMESH
 10
1.485
 20
-18.015
 30
3.3
 70
192
 0
VERTEX
 8
POLYFACEMESH
 10
-0.515
 20
-19.415
 30
3.3
 70
192
 0
VERTEX
 8
POLYFACEMESH
 10
1.485
 20
-18.615
 30
3.3
 70
192
 0
VERTEX
 8
POLYFACEMESH
 10
3.485
 20
-19.415
 30
3.3
 70
192
 0
VERTEX
 8
POLYFACEMESH
 10
1.485
 20
-18.615
 30
3.3
 70
192
 0
VERTEX
 8
POLYFACEMESH
 10
-0.515
 20
-19.415
 30
3.3
 70
192
 0
VERTEX
 8
POLYFACEMESH
 10
1.485
 20
-18.615
 30
3.3
 70
192
 0
VERTEX
 8
POLYFACEMESH
 10
3.485
 20
-19.415
 30
3.3
 70
192
 0
VERTEX
 8
POLYFACEMESH
 10
3.485
 20
-18.615
 30
3.3
 70
192
 0
VERTEX
 8
POLYFACEMESH
 10
-0.515
 20
-17.215
 30
3.3
 70
192
 0
VERTEX
 8
POLYFACEMESH
 10
3.485
 20
-18.015
 30
3.3
 70
192
 0
VERTEX
 8
POLYFACEMESH
 10
3.485
 20
-17.215
 30
3.3
 70
192
 0
VERTEX
 8
POLYFACEMESH
 10
-49.2071
 20
19.3524
 30
3
 70
192
 0
VERTEX
 8
POLYFACEMESH
 10
-50.7662
 20
25.6734
 30
0
 70
192
 0
VERTEX
 8
POLYFACEMESH
 10
-50.7662
 20
25.6734
 30
3
 70
192
 0
VERTEX
 8
POLYFACEMESH
 10
-50.8908
 20
26.3864
 30
0
 70
192
 0
VERTEX
 8
POLYFACEMESH
 10
-53.1942
 20
33.585
 30
0
 70
192
 0
VERTEX
 8
POLYFACEMESH
 10
-51.5936
 20
33.585
 30
0
 70
192
 0
VERTEX
 8
POLYFACEMESH
 10
-53.1942
 20
33.585
 30
3
 70
192
 0
VERTEX
 8
POLYFACEMESH
 10
-51.5936
 20
33.585
 30
3
 70
192
 0
VERTEX
 8
POLYFACEMESH
 10
-53.1942
 20
33.585
 30
0
 70
192
 0
VERTEX
 8
POLYFACEMESH
 10
-51.5936
 20
33.585
 30
0
 70
192
 0
VERTEX
 8
POLYFACEMESH
 10
-53.1942
 20
33.585
 30
0
 70
192
 0
VERTEX
 8
POLYFACEMESH
 10
-52.4749
 20
26.1587
 30
3
 70
192
 0
VERTEX
 8
POLYFACEMESH
 10
-53.1942
 20
33.585
 30
3
 70
192
 0
VERTEX
 8
POLYFACEMESH
 10
-52.4749
 20
26.1587
 30
0
 70
192
 0
VERTEX
 8
POLYFACEMESH
 10
-53.1942
 20
33.585
 30
3
 70
192
 0
VERTEX
 8
POLYFACEMESH
 10
-53.1942
 20
33.585
 30
0
 70
192
 0
VERTEX
 8
POLYFACEMESH
 10
-50.7425
 20
18.9015
 30
3
 70
192
 0
VERTEX
 8
POLYFACEMESH
 10
-50.7425
 20
18.9015
 30
0
 70
192
 0
VERTEX
 8
POLYFACEMESH
 10
-48.0299
 20
11.951
 30
3
 70
192
 0
VERTEX
 8
POLYFACEMESH
 10
-48.0299
 20
11.951
 30
0
 70
192
 0
VERTEX
 8
POLYFACEMESH
 10
-44.3884
 20
5.4389
 30
3
 70
192
 0
VERTEX
 8
POLYFACEMESH
 10
-44.3884
 20
5.4389
 30
0
 70
192
 0
VERTEX
 8
POLYFACEMESH
 10
-39.8872
 20
-0.5114
 30
3
 70
192
 0
VERTEX
 8
POLYFACEMESH
 10
-39.8872
 20
-0.5114
 30
0
 70
192
 0
VERTEX
 8
POLYFACEMESH
 10
-34.6114
 20
-5.7872
 30
3
 70
192
 0
VERTEX
 8
POLYFACEMESH
 10
-39.8872
 20
-0.5114
 30
3
 70
192
 0
VERTEX
 8
POLYFACEMESH
 10
-34.6114
 20
-5.7872
 30
0
 70
192
 0
VERTEX
 8
POLYFACEMESH
 10
-39.8872
 20
-0.5114
 30
3
 70
192
 0
VERTEX
 8
POLYFACEMESH
 10
-39.8872
 20
-0.5114
 30
0
 70
192
 0
VERTEX
 8
POLYFACEMESH
 10
-28.6611
 20
-10.2884
 30
3
 70
192
 0
VERTEX
 8
POLYFACEMESH
 10
-28.6611
 20
-10.2884
 30
0
 70
192
 0
VERTEX
 8
POLYFACEMESH
 10
-22.149
 20
-13.9299
 30
3
 70
192
 0
VERTEX
 8
POLYFACEMESH
 10
-22.149
 20
-13.9299
 30
0
 70
192
 0
VERTEX
 8
POLYFACEMESH
 10
-15.1985
 20
-16.6425
 30
3
 70
192
 0
VERTEX
 8
POLYFACEMESH
 10
-15.1985
 20
-16.6425
 30
0
 70
192
 0
VERTEX
 8
POLYFACEMESH
 10
-7.9413
 20
-18.3749
 30
3
 70
192
 0
VERTEX
 8
POLYFACEMESH
 10
-7.9413
 20
-18.3749
 30
0
 70
192
 0
VERTEX
 8
POLYFACEMESH
 10
-0.515
 20
-19.0942
 30
3
 70
192
 0
VERTEX
 8
POLYFACEMESH
 10
-0.515
 20
-19.0942
 30
0
 70
192
 0
VERTEX
 8
POLYFACEMESH
 10
-0.515
 20
-17.4936
 30
3
 70
192
 0
VERTEX
 8
POLYFACEMESH
 10
-0.515
 20
-19.0942
 30
3
 70
192
 0
VERTEX
 8
POLYFACEMESH
 10
-0.515
 20
-17.4936
 30
0
 70
192
 0
VERTEX
 8
POLYFACEMESH
 10
-0.515
 20
-19.0942
 30
3
 70
192
 0
VERTEX
 8
POLYFACEMESH
 10
-0.515
 20
-19.0942
 30
0
 70
192
 0
VERTEX
 8
POLYFACEMESH
 10
-52.4749
 20
26.1587
 30
3
 70
192
 0
VERTEX
 8
POLYFACEMESH
 10
-51.5936
 20
33.585
 30
3
 70
192
 0
VERTEX
 8
POLYFACEMESH
 10
-53.1942
 20
33.585
 30
3
 70
192
 0
VERTEX
 8
POLYFACEMESH
 10
-7.7136
 20
-16.7908
 30
3
 70
192
 0
VERTEX
 8
POLYFACEMESH
 10
-8.4266
 20
-16.6662
 30
0
 70
192
 0
VERTEX
 8
POLYFACEMESH
 10
-8.4266
 20
-16.6662
 30
3
 70
192
 0
VERTEX
 8
POLYFACEMESH
 10
-23.428
 20
-11.5065
 30
3
 70
192
 0
VERTEX
 8
POLYFACEMESH
 10
-21.4843
 20
-12.4744
 30
0
 70
192
 0
VERTEX
 8
POLYFACEMESH
 10
-23.428
 20
-11.5065
 30
0
 70
192
 0
VERTEX
 8
POLYFACEMESH
 10
-14.7476
 20
-15.1071
 30
3
 70
192
 0
VERTEX
 8
POLYFACEMESH
 10
-16.1229
 20
-14.6551
 30
0
 70
192
 0
VERTEX
 8
POLYFACEMESH
 10
-16.1229
 20
-14.6551
 30
3
 70
192
 0
VERTEX
 8
POLYFACEMESH
 10
-27.796
 20
-8.9424
 30
3
 70
192
 0
VERTEX
 8
POLYFACEMESH
 10
-30.1747
 20
-7.2922
 30
0
 70
192
 0
VERTEX
 8
POLYFACEMESH
 10
-30.1747
 20
-7.2922
 30
3
 70
192
 0
VERTEX
 8
POLYFACEMESH
 10
-33.5636
 20
-4.578
 30
3
 70
192
 0
VERTEX
 8
POLYFACEMESH
 10
-36.2088
 20
-2.1088
 30
0
 70
192
 0
VERTEX
 8
POLYFACEMESH
 10
-36.2088
 20
-2.1088
 30
3
 70
192
 0
VERTEX
 8
POLYFACEMESH
 10
-45.6065
 20
10.672
 30
3
 70
192
 0
VERTEX
 8
POLYFACEMESH
 10
-43.0424
 20
6.304
 30
0
 70
192
 0
VERTEX
 8
POLYFACEMESH
 10
-45.6065
 20
10.672
 30
0
 70
192
 0
VERTEX
 8
POLYFACEMESH
 10
-41.3922
 20
3.9253
 30
3
 70
192
 0
VERTEX
 8
POLYFACEMESH
 10
-38.678
 20
0.5364
 30
0
 70
192
 0
VERTEX
 8
POLYFACEMESH
 10
-41.3922
 20
3.9253
 30
0
 70
192
 0
VERTEX
 8
POLYFACEMESH
 10
-48.7551
 20
17.9771
 30
3
 70
192
 0
VERTEX
 8
POLYFACEMESH
 10
-46.5744
 20
12.6157
 30
0
 70
192
 0
VERTEX
 8
POLYFACEMESH
 10
-48.7551
 20
17.9771
 30
0
 70
192
 0
VERTEX
 8
POLYFACEMESH
 10
-7.9413
 20
-18.3749
 30
0
 70
192
 0
VERTEX
 8
POLYFACEMESH
 10
-15.1985
 20
-16.6425
 30
0
 70
192
 0
VERTEX
 8
POLYFACEMESH
 10
-8.4266
 20
-16.6662
 30
0
 70
192
 0
VERTEX
 8
POLYFACEMESH
 10
-7.9413
 20
-18.3749
 30
0
 70
192
 0
VERTEX
 8
POLYFACEMESH
 10
-8.4266
 20
-16.6662
 30
0
 70
192
 0
VERTEX
 8
POLYFACEMESH
 10
-7.7136
 20
-16.7908
 30
0
 70
192
 0
VERTEX
 8
POLYFACEMESH
 10
-7.9413
 20
-18.3749
 30
0
 70
192
 0
VERTEX
 8
POLYFACEMESH
 10
-0.515
 20
-17.4936
 30
0
 70
192
 0
VERTEX
 8
POLYFACEMESH
 10
-7.9413
 20
-18.3749
 30
0
 70
192
 0
VERTEX
 8
POLYFACEMESH
 10
-0.515
 20
-17.4936
 30
0
 70
192
 0
VERTEX
 8
POLYFACEMESH
 10
-0.515
 20
-19.0942
 30
0
 70
192
 0
VERTEX
 8
POLYFACEMESH
 10
-23.428
 20
-11.5065
 30
0
 70
192
 0
VERTEX
 8
POLYFACEMESH
 10
-21.4843
 20
-12.4744
 30
0
 70
192
 0
VERTEX
 8
POLYFACEMESH
 10
-22.149
 20
-13.9299
 30
0
 70
192
 0
VERTEX
 8
POLYFACEMESH
 10
-16.1229
 20
-14.6551
 30
0
 70
192
 0
VERTEX
 8
POLYFACEMESH
 10
-22.149
 20
-13.9299
 30
0
 70
192
 0
VERTEX
 8
POLYFACEMESH
 10
-21.4843
 20
-12.4744
 30
0
 70
192
 0
VERTEX
 8
POLYFACEMESH
 10
-22.149
 20
-13.9299
 30
0
 70
192
 0
VERTEX
 8
POLYFACEMESH
 10
-16.1229
 20
-14.6551
 30
0
 70
192
 0
VERTEX
 8
POLYFACEMESH
 10
-15.1985
 20
-16.6425
 30
0
 70
192
 0
VERTEX
 8
POLYFACEMESH
 10
-14.7476
 20
-15.1071
 30
0
 70
192
 0
VERTEX
 8
POLYFACEMESH
 10
-15.1985
 20
-16.6425
 30
0
 70
192
 0
VERTEX
 8
POLYFACEMESH
 10
-16.1229
 20
-14.6551
 30
0
 70
192
 0
VERTEX
 8
POLYFACEMESH
 10
-15.1985
 20
-16.6425
 30
0
 70
192
 0
VERTEX
 8
POLYFACEMESH
 10
-8.4266
 20
-16.6662
 30
0
 70
192
 0
VERTEX
 8
POLYFACEMESH
 10
-28.6611
 20
-10.2884
 30
0
 70
192
 0
VERTEX
 8
POLYFACEMESH
 10
-34.6114
 20
-5.7872
 30
0
 70
192
 0
VERTEX
 8
POLYFACEMESH
 10
-30.1747
 20
-7.2922
 30
0
 70
192
 0
VERTEX
 8
POLYFACEMESH
 10
-28.6611
 20
-10.2884
 30
0
 70
192
 0
VERTEX
 8
POLYFACEMESH
 10
-30.1747
 20
-7.2922
 30
0
 70
192
 0
VERTEX
 8
POLYFACEMESH
 10
-27.796
 20
-8.9424
 30
0
 70
192
 0
VERTEX
 8
POLYFACEMESH
 10
-28.6611
 20
-10.2884
 30
0
 70
192
 0
VERTEX
 8
POLYFACEMESH
 10
-23.428
 20
-11.5065
 30
0
 70
192
 0
VERTEX
 8
POLYFACEMESH
 10
-28.6611
 20
-10.2884
 30
0
 70
192
 0
VERTEX
 8
POLYFACEMESH
 10
-23.428
 20
-11.5065
 30
0
 70
192
 0
VERTEX
 8
POLYFACEMESH
 10
-22.149
 20
-13.9299
 30
0
 70
192
 0
VERTEX
 8
POLYFACEMESH
 10
-41.3922
 20
3.9253
 30
0
 70
192
 0
VERTEX
 8
POLYFACEMESH
 10
-38.678
 20
0.5364
 30
0
 70
192
 0
VERTEX
 8
POLYFACEMESH
 10
-39.8872
 20
-0.5114
 30
0
 70
192
 0
VERTEX
 8
POLYFACEMESH
 10
-36.2088
 20
-2.1088
 30
0
 70
192
 0
VERTEX
 8
POLYFACEMESH
 10
-39.8872
 20
-0.5114
 30
0
 70
192
 0
VERTEX
 8
POLYFACEMESH
 10
-38.678
 20
0.5364
 30
0
 70
192
 0
VERTEX
 8
POLYFACEMESH
 10
-39.8872
 20
-0.5114
 30
0
 70
192
 0
VERTEX
 8
POLYFACEMESH
 10
-36.2088
 20
-2.1088
 30
0
 70
192
 0
VERTEX
 8
POLYFACEMESH
 10
-34.6114
 20
-5.7872
 30
0
 70
192
 0
VERTEX
 8
POLYFACEMESH
 10
-33.5636
 20
-4.578
 30
0
 70
192
 0
VERTEX
 8
POLYFACEMESH
 10
-34.6114
 20
-5.7872
 30
0
 70
192
 0
VERTEX
 8
POLYFACEMESH
 10
-36.2088
 20
-2.1088
 30
0
 70
192
 0
VERTEX
 8
POLYFACEMESH
 10
-34.6114
 20
-5.7872
 30
0
 70
192
 0
VERTEX
 8
POLYFACEMESH
 10
-30.1747
 20
-7.2922
 30
0
 70
192
 0
VERTEX
 8
POLYFACEMESH
 10
-44.3884
 20
5.4389
 30
0
 70
192
 0
VERTEX
 8
POLYFACEMESH
 10
-48.0299
 20
11.951
 30
0
 70
192
 0
VERTEX
 8
POLYFACEMESH
 10
-45.6065
 20
10.672
 30
0
 70
192
 0
VERTEX
 8
POLYFACEMESH
 10
-44.3884
 20
5.4389
 30
0
 70
192
 0
VERTEX
 8
POLYFACEMESH
 10
-45.6065
 20
10.672
 30
0
 70
192
 0
VERTEX
 8
POLYFACEMESH
 10
-43.0424
 20
6.304
 30
0
 70
192
 0
VERTEX
 8
POLYFACEMESH
 10
-44.3884
 20
5.4389
 30
0
 70
192
 0
VERTEX
 8
POLYFACEMESH
 10
-43.0424
 20
6.304
 30
0
 70
192
 0
VERTEX
 8
POLYFACEMESH
 10
-41.3922
 20
3.9253
 30
0
 70
192
 0
VERTEX
 8
POLYFACEMESH
 10
-44.3884
 20
5.4389
 30
0
 70
192
 0
VERTEX
 8
POLYFACEMESH
 10
-41.3922
 20
3.9253
 30
0
 70
192
 0
VERTEX
 8
POLYFACEMESH
 10
-39.8872
 20
-0.5114
 30
0
 70
192
 0
VERTEX
 8
POLYFACEMESH
 10
-50.7662
 20
25.6734
 30
0
 70
192
 0
VERTEX
 8
POLYFACEMESH
 10
-49.2071
 20
19.3524
 30
0
 70
192
 0
VERTEX
 8
POLYFACEMESH
 10
-50.7425
 20
18.9015
 30
0
 70
192
 0
VERTEX
 8
POLYFACEMESH
 10
-48.7551
 20
17.9771
 30
0
 70
192
 0
VERTEX
 8
POLYFACEMESH
 10
-50.7425
 20
18.9015
 30
0
 70
192
 0
VERTEX
 8
POLYFACEMESH
 10
-50.7425
 20
18.9015
 30
0
 70
192
 0
VERTEX
 8
POLYFACEMESH
 10
-48.7551
 20
17.9771
 30
0
 70
192
 0
VERTEX
 8
POLYFACEMESH
 10
-48.0299
 20
11.951
 30
0
 70
192
 0
VERTEX
 8
POLYFACEMESH
 10
-46.5744
 20
12.6157
 30
0
 70
192
 0
VERTEX
 8
POLYFACEMESH
 10
-48.0299
 20
11.951
 30
0
 70
192
 0
VERTEX
 8
POLYFACEMESH
 10
-48.7551
 20
17.9771
 30
0
 70
192
 0
VERTEX
 8
POLYFACEMESH
 10
-48.0299
 20
11.951
 30
0
 70
192
 0
VERTEX
 8
POLYFACEMESH
 10
-46.5744
 20
12.6157
 30
0
 70
192
 0
VERTEX
 8
POLYFACEMESH
 10
-45.6065
 20
10.672
 30
0
 70
192
 0
VERTEX
 8
POLYFACEMESH
 10
-52.4749
 20
26.1587
 30
0
 70
192
 0
VERTEX
 8
POLYFACEMESH
 10
-52.4749
 20
26.1587
 30
0
 70
192
 0
VERTEX
 8
POLYFACEMESH
 10
-50.7662
 20
25.6734
 30
0
 70
192
 0
VERTEX
 8
POLYFACEMESH
 10
-52.4749
 20
26.1587
 30
0
 70
192
 0
VERTEX
 8
POLYFACEMESH
 10
-50.7662
 20
25.6734
 30
0
 70
192
 0
VERTEX
 8
POLYFACEMESH
 10
-50.7425
 20
18.9015
 30
0
 70
192
 0
VERTEX
 8
POLYFACEMESH
 10
-7.9413
 20
-18.3749
 30
3
 70
192
 0
VERTEX
 8
POLYFACEMESH
 10
-0.515
 20
-19.0942
 30
3
 70
192
 0
VERTEX
 8
POLYFACEMESH
 10
-0.515
 20
-17.4936
 30
3
 70
192
 0
VERTEX
 8
POLYFACEMESH
 10
-7.9413
 20
-18.3749
 30
3
 70
192
 0
VERTEX
 8
POLYFACEMESH
 10
-0.515
 20
-17.4936
 30
3
 70
192
 0
VERTEX
 8
POLYFACEMESH
 10
-7.7136
 20
-16.7908
 30
3
 70
192
 0
VERTEX
 8
POLYFACEMESH
 10
-7.9413
 20
-18.3749
 30
3
 70
192
 0
VERTEX
 8
POLYFACEMESH
 10
-7.7136
 20
-16.7908
 30
3
 70
192
 0
VERTEX
 8
POLYFACEMESH
 10
-8.4266
 20
-16.6662
 30
3
 70
192
 0
VERTEX
 8
POLYFACEMESH
 10
-7.9413
 20
-18.3749
 30
3
 70
192
 0
VERTEX
 8
POLYFACEMESH
 10
-8.4266
 20
-16.6662
 30
3
 70
192
 0
VERTEX
 8
POLYFACEMESH
 10
-15.1985
 20
-16.6425
 30
3
 70
192
 0
VERTEX
 8
POLYFACEMESH
 10
-8.4266
 20
-16.6662
 30
3
 70
192
 0
VERTEX
 8
POLYFACEMESH
 10
-14.7476
 20
-15.1071
 30
3
 70
192
 0
VERTEX
 8
POLYFACEMESH
 10
-15.1985
 20
-16.6425
 30
3
 70
192
 0
VERTEX
 8
POLYFACEMESH
 10
-16.1229
 20
-14.6551
 30
3
 70
192
 0
VERTEX
 8
POLYFACEMESH
 10
-15.1985
 20
-16.6425
 30
3
 70
192
 0
VERTEX
 8
POLYFACEMESH
 10
-14.7476
 20
-15.1071
 30
3
 70
192
 0
VERTEX
 8
POLYFACEMESH
 10
-15.1985
 20
-16.6425
 30
3
 70
192
 0
VERTEX
 8
POLYFACEMESH
 10
-16.1229
 20
-14.6551
 30
3
 70
192
 0
VERTEX
 8
POLYFACEMESH
 10
-22.149
 20
-13.9299
 30
3
 70
192
 0
VERTEX
 8
POLYFACEMESH
 10
-21.4843
 20
-12.4744
 30
3
 70
192
 0
VERTEX
 8
POLYFACEMESH
 10
-22.149
 20
-13.9299
 30
3
 70
192
 0
VERTEX
 8
POLYFACEMESH
 10
-16.1229
 20
-14.6551
 30
3
 70
192
 0
VERTEX
 8
POLYFACEMESH
 10
-22.149
 20
-13.9299
 30
3
 70
192
 0
VERTEX
 8
POLYFACEMESH
 10
-23.428
 20
-11.5065
 30
3
 70
192
 0
VERTEX
 8
POLYFACEMESH
 10
-28.6611
 20
-10.2884
 30
3
 70
192
 0
VERTEX
 8
POLYFACEMESH
 10
-22.149
 20
-13.9299
 30
3
 70
192
 0
VERTEX
 8
POLYFACEMESH
 10
-23.428
 20
-11.5065
 30
3
 70
192
 0
VERTEX
 8
POLYFACEMESH
 10
-28.6611
 20
-10.2884
 30
3
 70
192
 0
VERTEX
 8
POLYFACEMESH
 10
-23.428
 20
-11.5065
 30
3
 70
192
 0
VERTEX
 8
POLYFACEMESH
 10
-27.796
 20
-8.9424
 30
3
 70
192
 0
VERTEX
 8
POLYFACEMESH
 10
-28.6611
 20
-10.2884
 30
3
 70
192
 0
VERTEX
 8
POLYFACEMESH
 10
-27.796
 20
-8.9424
 30
3
 70
192
 0
VERTEX
 8
POLYFACEMESH
 10
-30.1747
 20
-7.2922
 30
3
 70
192
 0
VERTEX
 8
POLYFACEMESH
 10
-28.6611
 20
-10.2884
 30
3
 70
192
 0
VERTEX
 8
POLYFACEMESH
 10
-30.1747
 20
-7.2922
 30
3
 70
192
 0
VERTEX
 8
POLYFACEMESH
 10
-34.6114
 20
-5.7872
 30
3
 70
192
 0
VERTEX
 8
POLYFACEMESH
 10
-30.1747
 20
-7.2922
 30
3
 70
192
 0
VERTEX
 8
POLYFACEMESH
 10
-33.5636
 20
-4.578
 30
3
 70
192
 0
VERTEX
 8
POLYFACEMESH
 10
-34.6114
 20
-5.7872
 30
3
 70
192
 0
VERTEX
 8
POLYFACEMESH
 10
-36.2088
 20
-2.1088
 30
3
 70
192
 0
VERTEX
 8
POLYFACEMESH
 10
-34.6114
 20
-5.7872
 30
3
 70
192
 0
VERTEX
 8
POLYFACEMESH
 10
-33.5636
 20
-4.578
 30
3
 70
192
 0
VERTEX
 8
POLYFACEMESH
 10
-34.6114
 20
-5.7872
 30
3
 70
192
 0
VERTEX
 8
POLYFACEMESH
 10
-36.2088
 20
-2.1088
 30
3
 70
192
 0
VERTEX
 8
POLYFACEMESH
 10
-39.8872
 20
-0.5114
 30
3
 70
192
 0
VERTEX
 8
POLYFACEMESH
 10
-38.678
 20
0.5364
 30
3
 70
192
 0
VERTEX
 8
POLYFACEMESH
 10
-39.8872
 20
-0.5114
 30
3
 70
192
 0
VERTEX
 8
POLYFACEMESH
 10
-36.2088
 20
-2.1088
 30
3
 70
192
 0
VERTEX
 8
POLYFACEMESH
 10
-39.8872
 20
-0.5114
 30
3
 70
192
 0
VERTEX
 8
POLYFACEMESH
 10
-41.3922
 20
3.9253
 30
3
 70
192
 0
VERTEX
 8
POLYFACEMESH
 10
-44.3884
 20
5.4389
 30
3
 70
192
 0
VERTEX
 8
POLYFACEMESH
 10
-39.8872
 20
-0.5114
 30
3
 70
192
 0
VERTEX
 8
POLYFACEMESH
 10
-41.3922
 20
3.9253
 30
3
 70
192
 0
VERTEX
 8
POLYFACEMESH
 10
-44.3884
 20
5.4389
 30
3
 70
192
 0
VERTEX
 8
POLYFACEMESH
 10
-41.3922
 20
3.9253
 30
3
 70
192
 0
VERTEX
 8
POLYFACEMESH
 10
-43.0424
 20
6.304
 30
3
 70
192
 0
VERTEX
 8
POLYFACEMESH
 10
-44.3884
 20
5.4389
 30
3
 70
192
 0
VERTEX
 8
POLYFACEMESH
 10
-45.6065
 20
10.672
 30
3
 70
192
 0
VERTEX
 8
POLYFACEMESH
 10
-44.3884
 20
5.4389
 30
3
 70
192
 0
VERTEX
 8
POLYFACEMESH
 10
-45.6065
 20
10.672
 30
3
 70
192
 0
VERTEX
 8
POLYFACEMESH
 10
-48.0299
 20
11.951
 30
3
 70
192
 0
VERTEX
 8
POLYFACEMESH
 10
-45.6065
 20
10.672
 30
3
 70
192
 0
VERTEX
 8
POLYFACEMESH
 10
-46.5744
 20
12.6157
 30
3
 70
192
 0
VERTEX
 8
POLYFACEMESH
 10
-48.0299
 20
11.951
 30
3
 70
192
 0
VERTEX
 8
POLYFACEMESH
 10
-48.7551
 20
17.9771
 30
3
 70
192
 0
VERTEX
 8
POLYFACEMESH
 10
-48.0299
 20
11.951
 30
3
 70
192
 0
VERTEX
 8
POLYFACEMESH
 10
-48.0299
 20
11.951
 30
3
 70
192
 0
VERTEX
 8
POLYFACEMESH
 10
-48.7551
 20
17.9771
 30
3
 70
192
 0
VERTEX
 8
POLYFACEMESH
 10
-50.7425
 20
18.9015
 30
3
 70
192
 0
VERTEX
 8
POLYFACEMESH
 10
-49.2071
 20
19.3524
 30
3
 70
192
 0
VERTEX
 8
POLYFACEMESH
 10
-50.7425
 20
18.9015
 30
3
 70
192
 0
VERTEX
 8
POLYFACEMESH
 10
-48.7551
 20
17.9771
 30
3
 70
192
 0
VERTEX
 8
POLYFACEMESH
 10
-50.7425
 20
18.9015
 30
3
 70
192
 0
VERTEX
 8
POLYFACEMESH
 10
-49.2071
 20
19.3524
 30
3
 70
192
 0
VERTEX
 8
POLYFACEMESH
 10
-50.7662
 20
25.6734
 30
3
 70
192
 0
VERTEX
 8
POLYFACEMESH
 10
-52.4749
 20
26.1587
 30
3
 70
192
 0
VERTEX
 8
POLYFACEMESH
 10
-50.7425
 20
18.9015
 30
3
 70
192
 0
VERTEX
 8
POLYFACEMESH
 10
-50.7662
 20
25.6734
 30
3
 70
192
 0
VERTEX
 8
POLYFACEMESH
 10
-52.4749
 20
26.1587
 30
3
 70
192
 0
VERTEX
 8
POLYFACEMESH
 10
-50.7662
 20
25.6734
 30
3
 70
192
 0
VERTEX
 8
POLYFACEMESH
 10
-50.8908
 20
26.3864
 30
3
 70
192
 0
VERTEX
 8
POLYFACEMESH
 10
-52.4749
 20
26.1587
 30
3
 70
192
 0
VERTEX
 8
POLYFACEMESH
 10
-51.5936
 20
33.585
 30
3
 70
192
 0
VERTEX
 8
POLYFACEMESH
 10
-0.515
 20
-17.4936
 30
3
 70
192
 0
VERTEX
 8
POLYFACEMESH
 10
-0.515
 20
-17.4936
 30
0
 70
192
 0
VERTEX
 8
POLYFACEMESH
 10
-0.515
 20
-17.4936
 30
0
 70
192
 0
VERTEX
 8
POLYFACEMESH
 10
-7.7136
 20
-16.7908
 30
0
 70
192
 0
VERTEX
 8
POLYFACEMESH
 10
-7.7136
 20
-16.7908
 30
0
 70
192
 0
VERTEX
 8
POLYFACEMESH
 10
-23.428
 20
-11.5065
 30
3
 70
192
 0
VERTEX
 8
POLYFACEMESH
 10
-16.1229
 20
-14.6551
 30
3
 70
192
 0
VERTEX
 8
POLYFACEMESH
 10
-14.7476
 20
-15.1071
 30
0
 70
192
 0
VERTEX
 8
POLYFACEMESH
 10
-14.7476
 20
-15.1071
 30
0
 70
192
 0
VERTEX
 8
POLYFACEMESH
 10
-14.7476
 20
-15.1071
 30
0
 70
192
 0
VERTEX
 8
POLYFACEMESH
 10
-27.796
 20
-8.9424
 30
0
 70
192
 0
VERTEX
 8
POLYFACEMESH
 10
-27.796
 20
-8.9424
 30
0
 70
192
 0
VERTEX
 8
POLYFACEMESH
 10
-27.796
 20
-8.9424
 30
0
 70
192
 0
VERTEX
 8
POLYFACEMESH
 10
-33.5636
 20
-4.578
 30
0
 70
192
 0
VERTEX
 8
POLYFACEMESH
 10
-33.5636
 20
-4.578
 30
0
 70
192
 0
VERTEX
 8
POLYFACEMESH
 10
-45.6065
 20
10.672
 30
3
 70
192
 0
VERTEX
 8
POLYFACEMESH
 10
-41.3922
 20
3.9253
 30
3
 70
192
 0
VERTEX
 8
POLYFACEMESH
 10
-41.3922
 20
3.9253
 30
3
 70
192
 0
VERTEX
 8
POLYFACEMESH
 10
-36.2088
 20
-2.1088
 30
3
 70
192
 0
VERTEX
 8
POLYFACEMESH
 10
-36.2088
 20
-2.1088
 30
3
 70
192
 0
VERTEX
 8
POLYFACEMESH
 10
-36.2088
 20
-2.1088
 30
0
 70
192
 0
VERTEX
 8
POLYFACEMESH
 10
-36.2088
 20
-2.1088
 30
0
 70
192
 0
VERTEX
 8
POLYFACEMESH
 10
-48.7551
 20
17.9771
 30
3
 70
192
 0
VERTEX
 8
POLYFACEMESH
 10
-45.6065
 20
10.672
 30
3
 70
192
 0
VERTEX
 8
POLYFACEMESH
 10
-49.2071
 20
19.3524
 30
0
 70
192
 0
VERTEX
 8
POLYFACEMESH
 10
-49.2071
 20
19.3524
 30
0
 70
192
 0
VERTEX
 8
POLYFACEMESH
 10
-51.5936
 20
33.585
 30
3
 70
192
 0
VERTEX
 8
POLYFACEMESH
 10
-50.7662
 20
25.6734
 30
3
 70
192
 0
VERTEX
 8
POLYFACEMESH
 10
-51.5936
 20
33.585
 30
3
 70
192
 0
VERTEX
 8
POLYFACEMESH
 10
-51.5936
 20
33.585
 30
3
 70
192
 0
VERTEX
 8
POLYFACEMESH
 10
-50.8908
 20
26.3864
 30
0
 70
192
 0
VERTEX
 8
POLYFACEMESH
 10
-51.5936
 20
33.585
 30
3
 70
192
 0
VERTEX
 8
POLYFACEMESH
 10
-50.8908
 20
26.3864
 30
0
 70
192
 0
VERTEX
 8
POLYFACEMESH
 10
-51.5936
 20
33.585
 30
0
 70
192
 0
VERTEX
 8
POLYFACEMESH
 10
0
 20
0
 30
0
 70
128
 71
1
 72
2
 73
3
 74
3
 0
VERTEX
 8
POLYFACEMESH
 10
0
 20
0
 30
0
 70
128
 71
4
 72
5
 73
6
 74
6
 0
VERTEX
 8
POLYFACEMESH
 10
0
 20
0
 30
0
 70
128
 71
5
 72
7
 73
8
 74
8
 0
VERTEX
 8
POLYFACEMESH
 10
0
 20
0
 30
0
 70
128
 71
9
 72
10
 73
11
 74
11
 0
VERTEX
 8
POLYFACEMESH
 10
0
 20
0
 30
0
 70
128
 71
10
 72
12
 73
13
 74
13
 0
VERTEX
 8
POLYFACEMESH
 10
0
 20
0
 30
0
 70
128
 71
14
 72
15
 73
16
 74
16
 0
VERTEX
 8
POLYFACEMESH
 10
0
 20
0
 30
0
 70
128
 71
15
 72
17
 73
18
 74
18
 0
VERTEX
 8
POLYFACEMESH
 10
0
 20
0
 30
0
 70
128
 71
19
 72
20
 73
21
 74
21
 0
VERTEX
 8
POLYFACEMESH
 10
0
 20
0
 30
0
 70
128
 71
22
 72
23
 73
24
 74
24
 0
VERTEX
 8
POLYFACEMESH
 10
0
 20
0
 30
0
 70
128
 71
25
 72
26
 73
27
 74
27
 0
VERTEX
 8
POLYFACEMESH
 10
0
 20
0
 30
0
 70
128
 71
28
 72
29
 73
30
 74
30
 0
VERTEX
 8
POLYFACEMESH
 10
0
 20
0
 30
0
 70
128
 71
31
 72
32
 73
33
 74
33
 0
VERTEX
 8
POLYFACEMESH
 10
0
 20
0
 30
0
 70
128
 71
34
 72
35
 73
36
 74
36
 0
VERTEX
 8
POLYFACEMESH
 10
0
 20
0
 30
0
 70
128
 71
1
 72
37
 73
38
 74
38
 0
VERTEX
 8
POLYFACEMESH
 10
0
 20
0
 30
0
 70
128
 71
1
 72
39
 73
40
 74
40
 0
VERTEX
 8
POLYFACEMESH
 10
0
 20
0
 30
0
 70
128
 71
1
 72
41
 73
2
 74
2
 0
VERTEX
 8
POLYFACEMESH
 10
0
 20
0
 30
0
 70
128
 71
42
 72
43
 73
44
 74
44
 0
VERTEX
 8
POLYFACEMESH
 10
0
 20
0
 30
0
 70
128
 71
45
 72
46
 73
47
 74
47
 0
VERTEX
 8
POLYFACEMESH
 10
0
 20
0
 30
0
 70
128
 71
48
 72
49
 73
50
 74
50
 0
VERTEX
 8
POLYFACEMESH
 10
0
 20
0
 30
0
 70
128
 71
51
 72
52
 73
53
 74
53
 0
VERTEX
 8
POLYFACEMESH
 10
0
 20
0
 30
0
 70
128
 71
54
 72
55
 73
56
 74
56
 0
VERTEX
 8
POLYFACEMESH
 10
0
 20
0
 30
0
 70
128
 71
57
 72
58
 73
59
 74
59
 0
VERTEX
 8
POLYFACEMESH
 10
0
 20
0
 30
0
 70
128
 71
58
 72
60
 73
59
 74
59
 0
VERTEX
 8
POLYFACEMESH
 10
0
 20
0
 30
0
 70
128
 71
61
 72
62
 73
63
 74
63
 0
VERTEX
 8
POLYFACEMESH
 10
0
 20
0
 30
0
 70
128
 71
62
 72
64
 73
65
 74
65
 0
VERTEX
 8
POLYFACEMESH
 10
0
 20
0
 30
0
 70
128
 71
66
 72
67
 73
68
 74
68
 0
VERTEX
 8
POLYFACEMESH
 10
0
 20
0
 30
0
 70
128
 71
69
 72
70
 73
71
 74
71
 0
VERTEX
 8
POLYFACEMESH
 10
0
 20
0
 30
0
 70
128
 71
72
 72
73
 73
74
 74
74
 0
VERTEX
 8
POLYFACEMESH
 10
0
 20
0
 30
0
 70
128
 71
75
 72
76
 73
74
 74
74
 0
VERTEX
 8
POLYFACEMESH
 10
0
 20
0
 30
0
 70
128
 71
77
 72
78
 73
79
 74
79
 0
VERTEX
 8
POLYFACEMESH
 10
0
 20
0
 30
0
 70
128
 71
80
 72
81
 73
79
 74
79
 0
VERTEX
 8
POLYFACEMESH
 10
0
 20
0
 30
0
 70
128
 71
82
 72
83
 73
84
 74
84
 0
VERTEX
 8
POLYFACEMESH
 10
0
 20
0
 30
0
 70
128
 71
85
 72
86
 73
87
 74
87
 0
VERTEX
 8
POLYFACEMESH
 10
0
 20
0
 30
0
 70
128
 71
54
 72
88
 73
89
 74
89
 0
VERTEX
 8
POLYFACEMESH
 10
0
 20
0
 30
0
 70
128
 71
54
 72
90
 73
91
 74
91
 0
VERTEX
 8
POLYFACEMESH
 10
0
 20
0
 30
0
 70
128
 71
54
 72
92
 73
55
 74
55
 0
VERTEX
 8
POLYFACEMESH
 10
0
 20
0
 30
0
 70
128
 71
93
 72
94
 73
95
 74
95
 0
VERTEX
 8
POLYFACEMESH
 10
0
 20
0
 30
0
 70
128
 71
96
 72
97
 73
98
 74
98
 0
VERTEX
 8
POLYFACEMESH
 10
0
 20
0
 30
0
 70
128
 71
99
 72
100
 73
101
 74
101
 0
VERTEX
 8
POLYFACEMESH
 10
0
 20
0
 30
0
 70
128
 71
102
 72
103
 73
104
 74
104
 0
VERTEX
 8
POLYFACEMESH
 10
0
 20
0
 30
0
 70
128
 71
105
 72
106
 73
107
 74
107
 0
VERTEX
 8
POLYFACEMESH
 10
0
 20
0
 30
0
 70
128
 71
106
 72
108
 73
107
 74
107
 0
VERTEX
 8
POLYFACEMESH
 10
0
 20
0
 30
0
 70
128
 71
109
 72
110
 73
111
 74
111
 0
VERTEX
 8
POLYFACEMESH
 10
0
 20
0
 30
0
 70
128
 71
110
 72
112
 73
111
 74
111
 0
VERTEX
 8
POLYFACEMESH
 10
0
 20
0
 30
0
 70
128
 71
109
 72
113
 73
110
 74
110
 0
VERTEX
 8
POLYFACEMESH
 10
0
 20
0
 30
0
 70
128
 71
113
 72
114
 73
110
 74
110
 0
VERTEX
 8
POLYFACEMESH
 10
0
 20
0
 30
0
 70
128
 71
115
 72
116
 73
117
 74
117
 0
VERTEX
 8
POLYFACEMESH
 10
0
 20
0
 30
0
 70
128
 71
116
 72
118
 73
119
 74
119
 0
VERTEX
 8
POLYFACEMESH
 10
0
 20
0
 30
0
 70
128
 71
120
 72
121
 73
122
 74
122
 0
VERTEX
 8
POLYFACEMESH
 10
0
 20
0
 30
0
 70
128
 71
121
 72
123
 73
124
 74
124
 0
VERTEX
 8
POLYFACEMESH
 10
0
 20
0
 30
0
 70
128
 71
125
 72
126
 73
127
 74
127
 0
VERTEX
 8
POLYFACEMESH
 10
0
 20
0
 30
0
 70
128
 71
128
 72
114
 73
129
 74
129
 0
VERTEX
 8
POLYFACEMESH
 10
0
 20
0
 30
0
 70
128
 71
114
 72
113
 73
129
 74
129
 0
VERTEX
 8
POLYFACEMESH
 10
0
 20
0
 30
0
 70
128
 71
130
 72
128
 73
131
 74
131
 0
VERTEX
 8
POLYFACEMESH
 10
0
 20
0
 30
0
 70
128
 71
128
 72
129
 73
131
 74
131
 0
VERTEX
 8
POLYFACEMESH
 10
0
 20
0
 30
0
 70
128
 71
132
 72
130
 73
133
 74
133
 0
VERTEX
 8
POLYFACEMESH
 10
0
 20
0
 30
0
 70
128
 71
130
 72
131
 73
133
 74
133
 0
VERTEX
 8
POLYFACEMESH
 10
0
 20
0
 30
0
 70
128
 71
134
 72
132
 73
135
 74
135
 0
VERTEX
 8
POLYFACEMESH
 10
0
 20
0
 30
0
 70
128
 71
132
 72
133
 73
135
 74
135
 0
VERTEX
 8
POLYFACEMESH
 10
0
 20
0
 30
0
 70
128
 71
136
 72
134
 73
137
 74
137
 0
VERTEX
 8
POLYFACEMESH
 10
0
 20
0
 30
0
 70
128
 71
134
 72
135
 73
137
 74
137
 0
VERTEX
 8
POLYFACEMESH
 10
0
 20
0
 30
0
 70
128
 71
138
 72
136
 73
139
 74
139
 0
VERTEX
 8
POLYFACEMESH
 10
0
 20
0
 30
0
 70
128
 71
136
 72
137
 73
139
 74
139
 0
VERTEX
 8
POLYFACEMESH
 10
0
 20
0
 30
0
 70
128
 71
140
 72
141
 73
142
 74
142
 0
VERTEX
 8
POLYFACEMESH
 10
0
 20
0
 30
0
 70
128
 71
143
 72
144
 73
142
 74
142
 0
VERTEX
 8
POLYFACEMESH
 10
0
 20
0
 30
0
 70
128
 71
145
 72
140
 73
146
 74
146
 0
VERTEX
 8
POLYFACEMESH
 10
0
 20
0
 30
0
 70
128
 71
140
 72
142
 73
146
 74
146
 0
VERTEX
 8
POLYFACEMESH
 10
0
 20
0
 30
0
 70
128
 71
147
 72
145
 73
148
 74
148
 0
VERTEX
 8
POLYFACEMESH
 10
0
 20
0
 30
0
 70
128
 71
145
 72
146
 73
148
 74
148
 0
VERTEX
 8
POLYFACEMESH
 10
0
 20
0
 30
0
 70
128
 71
149
 72
147
 73
150
 74
150
 0
VERTEX
 8
POLYFACEMESH
 10
0
 20
0
 30
0
 70
128
 71
147
 72
148
 73
150
 74
150
 0
VERTEX
 8
POLYFACEMESH
 10
0
 20
0
 30
0
 70
128
 71
151
 72
149
 73
152
 74
152
 0
VERTEX
 8
POLYFACEMESH
 10
0
 20
0
 30
0
 70
128
 71
149
 72
150
 73
152
 74
152
 0
VERTEX
 8
POLYFACEMESH
 10
0
 20
0
 30
0
 70
128
 71
153
 72
151
 73
154
 74
154
 0
VERTEX
 8
POLYFACEMESH
 10
0
 20
0
 30
0
 70
128
 71
151
 72
152
 73
154
 74
154
 0
VERTEX
 8
POLYFACEMESH
 10
0
 20
0
 30
0
 70
128
 71
107
 72
153
 73
105
 74
105
 0
VERTEX
 8
POLYFACEMESH
 10
0
 20
0
 30
0
 70
128
 71
153
 72
154
 73
105
 74
105
 0
VERTEX
 8
POLYFACEMESH
 10
0
 20
0
 30
0
 70
128
 71
155
 72
118
 73
156
 74
156
 0
VERTEX
 8
POLYFACEMESH
 10
0
 20
0
 30
0
 70
128
 71
118
 72
116
 73
156
 74
156
 0
VERTEX
 8
POLYFACEMESH
 10
0
 20
0
 30
0
 70
128
 71
157
 72
155
 73
158
 74
158
 0
VERTEX
 8
POLYFACEMESH
 10
0
 20
0
 30
0
 70
128
 71
155
 72
156
 73
158
 74
158
 0
VERTEX
 8
POLYFACEMESH
 10
0
 20
0
 30
0
 70
128
 71
159
 72
157
 73
160
 74
160
 0
VERTEX
 8
POLYFACEMESH
 10
0
 20
0
 30
0
 70
128
 71
157
 72
158
 73
160
 74
160
 0
VERTEX
 8
POLYFACEMESH
 10
0
 20
0
 30
0
 70
128
 71
161
 72
159
 73
162
 74
162
 0
VERTEX
 8
POLYFACEMESH
 10
0
 20
0
 30
0
 70
128
 71
159
 72
160
 73
162
 74
162
 0
VERTEX
 8
POLYFACEMESH
 10
0
 20
0
 30
0
 70
128
 71
163
 72
161
 73
164
 74
164
 0
VERTEX
 8
POLYFACEMESH
 10
0
 20
0
 30
0
 70
128
 71
161
 72
162
 73
164
 74
164
 0
VERTEX
 8
POLYFACEMESH
 10
0
 20
0
 30
0
 70
128
 71
165
 72
163
 73
166
 74
166
 0
VERTEX
 8
POLYFACEMESH
 10
0
 20
0
 30
0
 70
128
 71
163
 72
164
 73
166
 74
166
 0
VERTEX
 8
POLYFACEMESH
 10
0
 20
0
 30
0
 70
128
 71
167
 72
168
 73
169
 74
169
 0
VERTEX
 8
POLYFACEMESH
 10
0
 20
0
 30
0
 70
128
 71
170
 72
171
 73
169
 74
169
 0
VERTEX
 8
POLYFACEMESH
 10
0
 20
0
 30
0
 70
128
 71
172
 72
167
 73
173
 74
173
 0
VERTEX
 8
POLYFACEMESH
 10
0
 20
0
 30
0
 70
128
 71
167
 72
169
 73
173
 74
173
 0
VERTEX
 8
POLYFACEMESH
 10
0
 20
0
 30
0
 70
128
 71
174
 72
172
 73
175
 74
175
 0
VERTEX
 8
POLYFACEMESH
 10
0
 20
0
 30
0
 70
128
 71
172
 72
173
 73
175
 74
175
 0
VERTEX
 8
POLYFACEMESH
 10
0
 20
0
 30
0
 70
128
 71
176
 72
174
 73
177
 74
177
 0
VERTEX
 8
POLYFACEMESH
 10
0
 20
0
 30
0
 70
128
 71
174
 72
175
 73
177
 74
177
 0
VERTEX
 8
POLYFACEMESH
 10
0
 20
0
 30
0
 70
128
 71
178
 72
176
 73
179
 74
179
 0
VERTEX
 8
POLYFACEMESH
 10
0
 20
0
 30
0
 70
128
 71
176
 72
177
 73
179
 74
179
 0
VERTEX
 8
POLYFACEMESH
 10
0
 20
0
 30
0
 70
128
 71
121
 72
178
 73
123
 74
123
 0
VERTEX
 8
POLYFACEMESH
 10
0
 20
0
 30
0
 70
128
 71
178
 72
179
 73
123
 74
123
 0
VERTEX
 8
POLYFACEMESH
 10
0
 20
0
 30
0
 70
128
 71
180
 72
181
 73
182
 74
182
 0
VERTEX
 8
POLYFACEMESH
 10
0
 20
0
 30
0
 70
128
 71
183
 72
184
 73
185
 74
185
 0
VERTEX
 8
POLYFACEMESH
 10
0
 20
0
 30
0
 70
128
 71
186
 72
187
 73
188
 74
188
 0
VERTEX
 8
POLYFACEMESH
 10
0
 20
0
 30
0
 70
128
 71
189
 72
190
 73
191
 74
191
 0
VERTEX
 8
POLYFACEMESH
 10
0
 20
0
 30
0
 70
128
 71
192
 72
193
 73
194
 74
194
 0
VERTEX
 8
POLYFACEMESH
 10
0
 20
0
 30
0
 70
128
 71
195
 72
196
 73
197
 74
197
 0
VERTEX
 8
POLYFACEMESH
 10
0
 20
0
 30
0
 70
128
 71
198
 72
199
 73
200
 74
200
 0
VERTEX
 8
POLYFACEMESH
 10
0
 20
0
 30
0
 70
128
 71
201
 72
202
 73
203
 74
203
 0
VERTEX
 8
POLYFACEMESH
 10
0
 20
0
 30
0
 70
128
 71
204
 72
205
 73
206
 74
206
 0
VERTEX
 8
POLYFACEMESH
 10
0
 20
0
 30
0
 70
128
 71
207
 72
208
 73
209
 74
209
 0
VERTEX
 8
POLYFACEMESH
 10
0
 20
0
 30
0
 70
128
 71
210
 72
211
 73
212
 74
212
 0
VERTEX
 8
POLYFACEMESH
 10
0
 20
0
 30
0
 70
128
 71
213
 72
214
 73
215
 74
215
 0
VERTEX
 8
POLYFACEMESH
 10
0
 20
0
 30
0
 70
128
 71
216
 72
217
 73
218
 74
218
 0
VERTEX
 8
POLYFACEMESH
 10
0
 20
0
 30
0
 70
128
 71
219
 72
220
 73
221
 74
221
 0
VERTEX
 8
POLYFACEMESH
 10
0
 20
0
 30
0
 70
128
 71
222
 72
223
 73
224
 74
224
 0
VERTEX
 8
POLYFACEMESH
 10
0
 20
0
 30
0
 70
128
 71
225
 72
226
 73
227
 74
227
 0
VERTEX
 8
POLYFACEMESH
 10
0
 20
0
 30
0
 70
128
 71
228
 72
229
 73
230
 74
230
 0
VERTEX
 8
POLYFACEMESH
 10
0
 20
0
 30
0
 70
128
 71
231
 72
232
 73
233
 74
233
 0
VERTEX
 8
POLYFACEMESH
 10
0
 20
0
 30
0
 70
128
 71
234
 72
235
 73
236
 74
236
 0
VERTEX
 8
POLYFACEMESH
 10
0
 20
0
 30
0
 70
128
 71
237
 72
238
 73
239
 74
239
 0
VERTEX
 8
POLYFACEMESH
 10
0
 20
0
 30
0
 70
128
 71
240
 72
241
 73
242
 74
242
 0
VERTEX
 8
POLYFACEMESH
 10
0
 20
0
 30
0
 70
128
 71
243
 72
244
 73
245
 74
245
 0
VERTEX
 8
POLYFACEMESH
 10
0
 20
0
 30
0
 70
128
 71
246
 72
247
 73
248
 74
248
 0
VERTEX
 8
POLYFACEMESH
 10
0
 20
0
 30
0
 70
128
 71
249
 72
250
 73
251
 74
251
 0
VERTEX
 8
POLYFACEMESH
 10
0
 20
0
 30
0
 70
128
 71
252
 72
253
 73
254
 74
254
 0
VERTEX
 8
POLYFACEMESH
 10
0
 20
0
 30
0
 70
128
 71
255
 72
256
 73
257
 74
257
 0
VERTEX
 8
POLYFACEMESH
 10
0
 20
0
 30
0
 70
128
 71
258
 72
259
 73
260
 74
260
 0
VERTEX
 8
POLYFACEMESH
 10
0
 20
0
 30
0
 70
128
 71
261
 72
262
 73
263
 74
263
 0
VERTEX
 8
POLYFACEMESH
 10
0
 20
0
 30
0
 70
128
 71
264
 72
265
 73
266
 74
266
 0
VERTEX
 8
POLYFACEMESH
 10
0
 20
0
 30
0
 70
128
 71
267
 72
268
 73
269
 74
269
 0
VERTEX
 8
POLYFACEMESH
 10
0
 20
0
 30
0
 70
128
 71
270
 72
271
 73
272
 74
272
 0
VERTEX
 8
POLYFACEMESH
 10
0
 20
0
 30
0
 70
128
 71
273
 72
274
 73
275
 74
275
 0
VERTEX
 8
POLYFACEMESH
 10
0
 20
0
 30
0
 70
128
 71
276
 72
277
 73
278
 74
278
 0
VERTEX
 8
POLYFACEMESH
 10
0
 20
0
 30
0
 70
128
 71
279
 72
280
 73
281
 74
281
 0
VERTEX
 8
POLYFACEMESH
 10
0
 20
0
 30
0
 70
128
 71
282
 72
283
 73
284
 74
284
 0
VERTEX
 8
POLYFACEMESH
 10
0
 20
0
 30
0
 70
128
 71
285
 72
286
 73
287
 74
287
 0
VERTEX
 8
POLYFACEMESH
 10
0
 20
0
 30
0
 70
128
 71
288
 72
289
 73
290
 74
290
 0
VERTEX
 8
POLYFACEMESH
 10
0
 20
0
 30
0
 70
128
 71
291
 72
292
 73
293
 74
293
 0
VERTEX
 8
POLYFACEMESH
 10
0
 20
0
 30
0
 70
128
 71
294
 72
295
 73
296
 74
296
 0
VERTEX
 8
POLYFACEMESH
 10
0
 20
0
 30
0
 70
128
 71
297
 72
298
 73
299
 74
299
 0
VERTEX
 8
POLYFACEMESH
 10
0
 20
0
 30
0
 70
128
 71
300
 72
301
 73
302
 74
302
 0
VERTEX
 8
POLYFACEMESH
 10
0
 20
0
 30
0
 70
128
 71
303
 72
304
 73
305
 74
305
 0
VERTEX
 8
POLYFACEMESH
 10
0
 20
0
 30
0
 70
128
 71
306
 72
307
 73
308
 74
308
 0
VERTEX
 8
POLYFACEMESH
 10
0
 20
0
 30
0
 70
128
 71
309
 72
310
 73
311
 74
311
 0
VERTEX
 8
POLYFACEMESH
 10
0
 20
0
 30
0
 70
128
 71
312
 72
313
 73
314
 74
314
 0
VERTEX
 8
POLYFACEMESH
 10
0
 20
0
 30
0
 70
128
 71
315
 72
316
 73
317
 74
317
 0
VERTEX
 8
POLYFACEMESH
 10
0
 20
0
 30
0
 70
128
 71
318
 72
319
 73
320
 74
320
 0
VERTEX
 8
POLYFACEMESH
 10
0
 20
0
 30
0
 70
128
 71
321
 72
322
 73
323
 74
323
 0
VERTEX
 8
POLYFACEMESH
 10
0
 20
0
 30
0
 70
128
 71
324
 72
325
 73
326
 74
326
 0
VERTEX
 8
POLYFACEMESH
 10
0
 20
0
 30
0
 70
128
 71
327
 72
328
 73
329
 74
329
 0
VERTEX
 8
POLYFACEMESH
 10
0
 20
0
 30
0
 70
128
 71
330
 72
331
 73
332
 74
332
 0
VERTEX
 8
POLYFACEMESH
 10
0
 20
0
 30
0
 70
128
 71
333
 72
334
 73
335
 74
335
 0
VERTEX
 8
POLYFACEMESH
 10
0
 20
0
 30
0
 70
128
 71
336
 72
337
 73
338
 74
338
 0
VERTEX
 8
POLYFACEMESH
 10
0
 20
0
 30
0
 70
128
 71
339
 72
340
 73
341
 74
341
 0
VERTEX
 8
POLYFACEMESH
 10
0
 20
0
 30
0
 70
128
 71
342
 72
343
 73
344
 74
344
 0
VERTEX
 8
POLYFACEMESH
 10
0
 20
0
 30
0
 70
128
 71
345
 72
346
 73
347
 74
347
 0
VERTEX
 8
POLYFACEMESH
 10
0
 20
0
 30
0
 70
128
 71
346
 72
348
 73
347
 74
347
 0
VERTEX
 8
POLYFACEMESH
 10
0
 20
0
 30
0
 70
128
 71
349
 72
350
 73
351
 74
351
 0
VERTEX
 8
POLYFACEMESH
 10
0
 20
0
 30
0
 70
128
 71
350
 72
352
 73
353
 74
353
 0
VERTEX
 8
POLYFACEMESH
 10
0
 20
0
 30
0
 70
128
 71
350
 72
354
 73
352
 74
352
 0
VERTEX
 8
POLYFACEMESH
 10
0
 20
0
 30
0
 70
128
 71
354
 72
355
 73
352
 74
352
 0
VERTEX
 8
POLYFACEMESH
 10
0
 20
0
 30
0
 70
128
 71
356
 72
357
 73
358
 74
358
 0
VERTEX
 8
POLYFACEMESH
 10
0
 20
0
 30
0
 70
128
 71
357
 72
359
 73
360
 74
360
 0
VERTEX
 8
POLYFACEMESH
 10
0
 20
0
 30
0
 70
128
 71
361
 72
129
 73
362
 74
362
 0
VERTEX
 8
POLYFACEMESH
 10
0
 20
0
 30
0
 70
128
 71
129
 72
363
 73
364
 74
364
 0
VERTEX
 8
POLYFACEMESH
 10
0
 20
0
 30
0
 70
128
 71
129
 72
365
 73
363
 74
363
 0
VERTEX
 8
POLYFACEMESH
 10
0
 20
0
 30
0
 70
128
 71
366
 72
367
 73
363
 74
363
 0
VERTEX
 8
POLYFACEMESH
 10
0
 20
0
 30
0
 70
128
 71
368
 72
369
 73
370
 74
370
 0
VERTEX
 8
POLYFACEMESH
 10
0
 20
0
 30
0
 70
128
 71
371
 72
372
 73
373
 74
373
 0
VERTEX
 8
POLYFACEMESH
 10
0
 20
0
 30
0
 70
128
 71
374
 72
375
 73
376
 74
376
 0
VERTEX
 8
POLYFACEMESH
 10
0
 20
0
 30
0
 70
128
 71
377
 72
378
 73
379
 74
379
 0
VERTEX
 8
POLYFACEMESH
 10
0
 20
0
 30
0
 70
128
 71
380
 72
381
 73
382
 74
382
 0
VERTEX
 8
POLYFACEMESH
 10
0
 20
0
 30
0
 70
128
 71
383
 72
384
 73
385
 74
385
 0
VERTEX
 8
POLYFACEMESH
 10
0
 20
0
 30
0
 70
128
 71
386
 72
387
 73
388
 74
388
 0
VERTEX
 8
POLYFACEMESH
 10
0
 20
0
 30
0
 70
128
 71
389
 72
390
 73
391
 74
391
 0
VERTEX
 8
POLYFACEMESH
 10
0
 20
0
 30
0
 70
128
 71
392
 72
393
 73
394
 74
394
 0
VERTEX
 8
POLYFACEMESH
 10
0
 20
0
 30
0
 70
128
 71
393
 72
395
 73
394
 74
394
 0
VERTEX
 8
POLYFACEMESH
 10
0
 20
0
 30
0
 70
128
 71
396
 72
397
 73
398
 74
398
 0
VERTEX
 8
POLYFACEMESH
 10
0
 20
0
 30
0
 70
128
 71
397
 72
399
 73
400
 74
400
 0
VERTEX
 8
POLYFACEMESH
 10
0
 20
0
 30
0
 70
128
 71
397
 72
401
 73
399
 74
399
 0
VERTEX
 8
POLYFACEMESH
 10
0
 20
0
 30
0
 70
128
 71
401
 72
402
 73
399
 74
399
 0
VERTEX
 8
POLYFACEMESH
 10
0
 20
0
 30
0
 70
128
 71
403
 72
404
 73
405
 74
405
 0
VERTEX
 8
POLYFACEMESH
 10
0
 20
0
 30
0
 70
128
 71
404
 72
406
 73
407
 74
407
 0
VERTEX
 8
POLYFACEMESH
 10
0
 20
0
 30
0
 70
128
 71
408
 72
409
 73
410
 74
410
 0
VERTEX
 8
POLYFACEMESH
 10
0
 20
0
 30
0
 70
128
 71
409
 72
411
 73
412
 74
412
 0
VERTEX
 8
POLYFACEMESH
 10
0
 20
0
 30
0
 70
128
 71
409
 72
413
 73
414
 74
414
 0
VERTEX
 8
POLYFACEMESH
 10
0
 20
0
 30
0
 70
128
 71
415
 72
416
 73
417
 74
417
 0
VERTEX
 8
POLYFACEMESH
 10
0
 20
0
 30
0
 70
128
 71
418
 72
419
 73
420
 74
420
 0
VERTEX
 8
POLYFACEMESH
 10
0
 20
0
 30
0
 70
128
 71
421
 72
422
 73
423
 74
423
 0
VERTEX
 8
POLYFACEMESH
 10
0
 20
0
 30
0
 70
128
 71
424
 72
425
 73
426
 74
426
 0
VERTEX
 8
POLYFACEMESH
 10
0
 20
0
 30
0
 70
128
 71
427
 72
428
 73
429
 74
429
 0
VERTEX
 8
POLYFACEMESH
 10
0
 20
0
 30
0
 70
128
 71
430
 72
431
 73
432
 74
432
 0
VERTEX
 8
POLYFACEMESH
 10
0
 20
0
 30
0
 70
128
 71
433
 72
434
 73
435
 74
435
 0
VERTEX
 8
POLYFACEMESH
 10
0
 20
0
 30
0
 70
128
 71
436
 72
437
 73
438
 74
438
 0
VERTEX
 8
POLYFACEMESH
 10
0
 20
0
 30
0
 70
128
 71
439
 72
440
 73
441
 74
441
 0
VERTEX
 8
POLYFACEMESH
 10
0
 20
0
 30
0
 70
128
 71
442
 72
443
 73
444
 74
444
 0
VERTEX
 8
POLYFACEMESH
 10
0
 20
0
 30
0
 70
128
 71
443
 72
445
 73
444
 74
444
 0
VERTEX
 8
POLYFACEMESH
 10
0
 20
0
 30
0
 70
128
 71
446
 72
447
 73
448
 74
448
 0
VERTEX
 8
POLYFACEMESH
 10
0
 20
0
 30
0
 70
128
 71
447
 72
449
 73
448
 74
448
 0
VERTEX
 8
POLYFACEMESH
 10
0
 20
0
 30
0
 70
128
 71
450
 72
451
 73
452
 74
452
 0
VERTEX
 8
POLYFACEMESH
 10
0
 20
0
 30
0
 70
128
 71
453
 72
454
 73
455
 74
455
 0
VERTEX
 8
POLYFACEMESH
 10
0
 20
0
 30
0
 70
128
 71
456
 72
457
 73
458
 74
458
 0
VERTEX
 8
POLYFACEMESH
 10
0
 20
0
 30
0
 70
128
 71
459
 72
460
 73
461
 74
461
 0
VERTEX
 8
POLYFACEMESH
 10
0
 20
0
 30
0
 70
128
 71
462
 72
463
 73
464
 74
464
 0
VERTEX
 8
POLYFACEMESH
 10
0
 20
0
 30
0
 70
128
 71
465
 72
466
 73
467
 74
467
 0
VERTEX
 8
POLYFACEMESH
 10
0
 20
0
 30
0
 70
128
 71
468
 72
469
 73
470
 74
470
 0
VERTEX
 8
POLYFACEMESH
 10
0
 20
0
 30
0
 70
128
 71
471
 72
472
 73
473
 74
473
 0
VERTEX
 8
POLYFACEMESH
 10
0
 20
0
 30
0
 70
128
 71
474
 72
475
 73
476
 74
476
 0
VERTEX
 8
POLYFACEMESH
 10
0
 20
0
 30
0
 70
128
 71
475
 72
477
 73
476
 74
476
 0
VERTEX
 8
POLYFACEMESH
 10
0
 20
0
 30
0
 70
128
 71
478
 72
479
 73
480
 74
480
 0
VERTEX
 8
POLYFACEMESH
 10
0
 20
0
 30
0
 70
128
 71
479
 72
481
 73
480
 74
480
 0
VERTEX
 8
POLYFACEMESH
 10
0
 20
0
 30
0
 70
128
 71
482
 72
483
 73
484
 74
484
 0
VERTEX
 8
POLYFACEMESH
 10
0
 20
0
 30
0
 70
128
 71
485
 72
486
 73
487
 74
487
 0
VERTEX
 8
POLYFACEMESH
 10
0
 20
0
 30
0
 70
128
 71
488
 72
489
 73
490
 74
490
 0
VERTEX
 8
POLYFACEMESH
 10
0
 20
0
 30
0
 70
128
 71
491
 72
492
 73
493
 74
493
 0
VERTEX
 8
POLYFACEMESH
 10
0
 20
0
 30
0
 70
128
 71
494
 72
495
 73
496
 74
496
 0
VERTEX
 8
POLYFACEMESH
 10
0
 20
0
 30
0
 70
128
 71
497
 72
498
 73
499
 74
499
 0
VERTEX
 8
POLYFACEMESH
 10
0
 20
0
 30
0
 70
128
 71
500
 72
501
 73
502
 74
502
 0
VERTEX
 8
POLYFACEMESH
 10
0
 20
0
 30
0
 70
128
 71
503
 72
504
 73
505
 74
505
 0
VERTEX
 8
POLYFACEMESH
 10
0
 20
0
 30
0
 70
128
 71
506
 72
507
 73
508
 74
508
 0
VERTEX
 8
POLYFACEMESH
 10
0
 20
0
 30
0
 70
128
 71
507
 72
509
 73
508
 74
508
 0
VERTEX
 8
POLYFACEMESH
 10
0
 20
0
 30
0
 70
128
 71
510
 72
511
 73
512
 74
512
 0
VERTEX
 8
POLYFACEMESH
 10
0
 20
0
 30
0
 70
128
 71
511
 72
513
 73
514
 74
514
 0
VERTEX
 8
POLYFACEMESH
 10
0
 20
0
 30
0
 70
128
 71
515
 72
516
 73
517
 74
517
 0
VERTEX
 8
POLYFACEMESH
 10
0
 20
0
 30
0
 70
128
 71
516
 72
518
 73
517
 74
517
 0
VERTEX
 8
POLYFACEMESH
 10
0
 20
0
 30
0
 70
128
 71
519
 72
520
 73
521
 74
521
 0
VERTEX
 8
POLYFACEMESH
 10
0
 20
0
 30
0
 70
128
 71
522
 72
523
 73
521
 74
521
 0
VERTEX
 8
POLYFACEMESH
 10
0
 20
0
 30
0
 70
128
 71
524
 72
525
 73
526
 74
526
 0
VERTEX
 8
POLYFACEMESH
 10
0
 20
0
 30
0
 70
128
 71
527
 72
528
 73
529
 74
529
 0
VERTEX
 8
POLYFACEMESH
 10
0
 20
0
 30
0
 70
128
 71
530
 72
531
 73
532
 74
532
 0
VERTEX
 8
POLYFACEMESH
 10
0
 20
0
 30
0
 70
128
 71
531
 72
533
 73
534
 74
534
 0
VERTEX
 8
POLYFACEMESH
 10
0
 20
0
 30
0
 70
128
 71
535
 72
536
 73
537
 74
537
 0
VERTEX
 8
POLYFACEMESH
 10
0
 20
0
 30
0
 70
128
 71
538
 72
539
 73
540
 74
540
 0
VERTEX
 8
POLYFACEMESH
 10
0
 20
0
 30
0
 70
128
 71
541
 72
542
 73
543
 74
543
 0
VERTEX
 8
POLYFACEMESH
 10
0
 20
0
 30
0
 70
128
 71
544
 72
545
 73
546
 74
546
 0
VERTEX
 8
POLYFACEMESH
 10
0
 20
0
 30
0
 70
128
 71
547
 72
548
 73
549
 74
549
 0
VERTEX
 8
POLYFACEMESH
 10
0
 20
0
 30
0
 70
128
 71
550
 72
551
 73
552
 74
552
 0
VERTEX
 8
POLYFACEMESH
 10
0
 20
0
 30
0
 70
128
 71
553
 72
554
 73
555
 74
555
 0
VERTEX
 8
POLYFACEMESH
 10
0
 20
0
 30
0
 70
128
 71
556
 72
557
 73
558
 74
558
 0
VERTEX
 8
POLYFACEMESH
 10
0
 20
0
 30
0
 70
128
 71
559
 72
560
 73
561
 74
561
 0
VERTEX
 8
POLYFACEMESH
 10
0
 20
0
 30
0
 70
128
 71
562
 72
563
 73
564
 74
564
 0
VERTEX
 8
POLYFACEMESH
 10
0
 20
0
 30
0
 70
128
 71
565
 72
566
 73
567
 74
567
 0
VERTEX
 8
POLYFACEMESH
 10
0
 20
0
 30
0
 70
128
 71
568
 72
569
 73
570
 74
570
 0
VERTEX
 8
POLYFACEMESH
 10
0
 20
0
 30
0
 70
128
 71
571
 72
572
 73
573
 74
573
 0
VERTEX
 8
POLYFACEMESH
 10
0
 20
0
 30
0
 70
128
 71
574
 72
575
 73
576
 74
576
 0
VERTEX
 8
POLYFACEMESH
 10
0
 20
0
 30
0
 70
128
 71
577
 72
578
 73
579
 74
579
 0
VERTEX
 8
POLYFACEMESH
 10
0
 20
0
 30
0
 70
128
 71
580
 72
581
 73
582
 74
582
 0
VERTEX
 8
POLYFACEMESH
 10
0
 20
0
 30
0
 70
128
 71
583
 72
584
 73
585
 74
585
 0
VERTEX
 8
POLYFACEMESH
 10
0
 20
0
 30
0
 70
128
 71
584
 72
586
 73
585
 74
585
 0
VERTEX
 8
POLYFACEMESH
 10
0
 20
0
 30
0
 70
128
 71
587
 72
588
 73
589
 74
589
 0
VERTEX
 8
POLYFACEMESH
 10
0
 20
0
 30
0
 70
128
 71
588
 72
590
 73
589
 74
589
 0
VERTEX
 8
POLYFACEMESH
 10
0
 20
0
 30
0
 70
128
 71
591
 72
592
 73
593
 74
593
 0
VERTEX
 8
POLYFACEMESH
 10
0
 20
0
 30
0
 70
128
 71
592
 72
594
 73
593
 74
593
 0
VERTEX
 8
POLYFACEMESH
 10
0
 20
0
 30
0
 70
128
 71
595
 72
596
 73
597
 74
597
 0
VERTEX
 8
POLYFACEMESH
 10
0
 20
0
 30
0
 70
128
 71
598
 72
599
 73
597
 74
597
 0
VERTEX
 8
POLYFACEMESH
 10
0
 20
0
 30
0
 70
128
 71
600
 72
601
 73
602
 74
602
 0
VERTEX
 8
POLYFACEMESH
 10
0
 20
0
 30
0
 70
128
 71
603
 72
604
 73
605
 74
605
 0
VERTEX
 8
POLYFACEMESH
 10
0
 20
0
 30
0
 70
128
 71
606
 72
607
 73
608
 74
608
 0
VERTEX
 8
POLYFACEMESH
 10
0
 20
0
 30
0
 70
128
 71
607
 72
609
 73
610
 74
610
 0
VERTEX
 8
POLYFACEMESH
 10
0
 20
0
 30
0
 70
128
 71
611
 72
612
 73
613
 74
613
 0
VERTEX
 8
POLYFACEMESH
 10
0
 20
0
 30
0
 70
128
 71
614
 72
615
 73
616
 74
616
 0
VERTEX
 8
POLYFACEMESH
 10
0
 20
0
 30
0
 70
128
 71
617
 72
618
 73
619
 74
619
 0
VERTEX
 8
POLYFACEMESH
 10
0
 20
0
 30
0
 70
128
 71
620
 72
621
 73
622
 74
622
 0
VERTEX
 8
POLYFACEMESH
 10
0
 20
0
 30
0
 70
128
 71
623
 72
624
 73
625
 74
625
 0
VERTEX
 8
POLYFACEMESH
 10
0
 20
0
 30
0
 70
128
 71
626
 72
627
 73
628
 74
628
 0
VERTEX
 8
POLYFACEMESH
 10
0
 20
0
 30
0
 70
128
 71
629
 72
630
 73
631
 74
631
 0
VERTEX
 8
POLYFACEMESH
 10
0
 20
0
 30
0
 70
128
 71
632
 72
633
 73
634
 74
634
 0
VERTEX
 8
POLYFACEMESH
 10
0
 20
0
 30
0
 70
128
 71
635
 72
636
 73
637
 74
637
 0
VERTEX
 8
POLYFACEMESH
 10
0
 20
0
 30
0
 70
128
 71
638
 72
639
 73
640
 74
640
 0
VERTEX
 8
POLYFACEMESH
 10
0
 20
0
 30
0
 70
128
 71
641
 72
642
 73
643
 74
643
 0
VERTEX
 8
POLYFACEMESH
 10
0
 20
0
 30
0
 70
128
 71
644
 72
645
 73
646
 74
646
 0
VERTEX
 8
POLYFACEMESH
 10
0
 20
0
 30
0
 70
128
 71
647
 72
648
 73
649
 74
649
 0
VERTEX
 8
POLYFACEMESH
 10
0
 20
0
 30
0
 70
128
 71
650
 72
651
 73
652
 74
652
 0
VERTEX
 8
POLYFACEMESH
 10
0
 20
0
 30
0
 70
128
 71
653
 72
654
 73
655
 74
655
 0
VERTEX
 8
POLYFACEMESH
 10
0
 20
0
 30
0
 70
128
 71
656
 72
657
 73
658
 74
658
 0
VERTEX
 8
POLYFACEMESH
 10
0
 20
0
 30
0
 70
128
 71
659
 72
660
 73
661
 74
661
 0
VERTEX
 8
POLYFACEMESH
 10
0
 20
0
 30
0
 70
128
 71
662
 72
663
 73
664
 74
664
 0
VERTEX
 8
POLYFACEMESH
 10
0
 20
0
 30
0
 70
128
 71
665
 72
666
 73
667
 74
667
 0
VERTEX
 8
POLYFACEMESH
 10
0
 20
0
 30
0
 70
128
 71
666
 72
668
 73
669
 74
669
 0
VERTEX
 8
POLYFACEMESH
 10
0
 20
0
 30
0
 70
128
 71
670
 72
671
 73
672
 74
672
 0
VERTEX
 8
POLYFACEMESH
 10
0
 20
0
 30
0
 70
128
 71
673
 72
674
 73
672
 74
672
 0
VERTEX
 8
POLYFACEMESH
 10
0
 20
0
 30
0
 70
128
 71
675
 72
670
 73
676
 74
676
 0
VERTEX
 8
POLYFACEMESH
 10
0
 20
0
 30
0
 70
128
 71
670
 72
672
 73
676
 74
676
 0
VERTEX
 8
POLYFACEMESH
 10
0
 20
0
 30
0
 70
128
 71
677
 72
675
 73
678
 74
678
 0
VERTEX
 8
POLYFACEMESH
 10
0
 20
0
 30
0
 70
128
 71
675
 72
676
 73
678
 74
678
 0
VERTEX
 8
POLYFACEMESH
 10
0
 20
0
 30
0
 70
128
 71
679
 72
677
 73
680
 74
680
 0
VERTEX
 8
POLYFACEMESH
 10
0
 20
0
 30
0
 70
128
 71
677
 72
678
 73
680
 74
680
 0
VERTEX
 8
POLYFACEMESH
 10
0
 20
0
 30
0
 70
128
 71
681
 72
679
 73
682
 74
682
 0
VERTEX
 8
POLYFACEMESH
 10
0
 20
0
 30
0
 70
128
 71
679
 72
680
 73
682
 74
682
 0
VERTEX
 8
POLYFACEMESH
 10
0
 20
0
 30
0
 70
128
 71
683
 72
684
 73
685
 74
685
 0
VERTEX
 8
POLYFACEMESH
 10
0
 20
0
 30
0
 70
128
 71
686
 72
687
 73
685
 74
685
 0
VERTEX
 8
POLYFACEMESH
 10
0
 20
0
 30
0
 70
128
 71
688
 72
683
 73
689
 74
689
 0
VERTEX
 8
POLYFACEMESH
 10
0
 20
0
 30
0
 70
128
 71
683
 72
685
 73
689
 74
689
 0
VERTEX
 8
POLYFACEMESH
 10
0
 20
0
 30
0
 70
128
 71
690
 72
688
 73
691
 74
691
 0
VERTEX
 8
POLYFACEMESH
 10
0
 20
0
 30
0
 70
128
 71
688
 72
689
 73
691
 74
691
 0
VERTEX
 8
POLYFACEMESH
 10
0
 20
0
 30
0
 70
128
 71
692
 72
690
 73
693
 74
693
 0
VERTEX
 8
POLYFACEMESH
 10
0
 20
0
 30
0
 70
128
 71
690
 72
691
 73
693
 74
693
 0
VERTEX
 8
POLYFACEMESH
 10
0
 20
0
 30
0
 70
128
 71
694
 72
692
 73
695
 74
695
 0
VERTEX
 8
POLYFACEMESH
 10
0
 20
0
 30
0
 70
128
 71
692
 72
693
 73
695
 74
695
 0
VERTEX
 8
POLYFACEMESH
 10
0
 20
0
 30
0
 70
128
 71
696
 72
694
 73
697
 74
697
 0
VERTEX
 8
POLYFACEMESH
 10
0
 20
0
 30
0
 70
128
 71
694
 72
695
 73
697
 74
697
 0
VERTEX
 8
POLYFACEMESH
 10
0
 20
0
 30
0
 70
128
 71
698
 72
699
 73
700
 74
700
 0
VERTEX
 8
POLYFACEMESH
 10
0
 20
0
 30
0
 70
128
 71
701
 72
702
 73
700
 74
700
 0
VERTEX
 8
POLYFACEMESH
 10
0
 20
0
 30
0
 70
128
 71
703
 72
704
 73
705
 74
705
 0
VERTEX
 8
POLYFACEMESH
 10
0
 20
0
 30
0
 70
128
 71
706
 72
707
 73
708
 74
708
 0
VERTEX
 8
POLYFACEMESH
 10
0
 20
0
 30
0
 70
128
 71
709
 72
710
 73
711
 74
711
 0
VERTEX
 8
POLYFACEMESH
 10
0
 20
0
 30
0
 70
128
 71
712
 72
713
 73
714
 74
714
 0
VERTEX
 8
POLYFACEMESH
 10
0
 20
0
 30
0
 70
128
 71
715
 72
716
 73
717
 74
717
 0
VERTEX
 8
POLYFACEMESH
 10
0
 20
0
 30
0
 70
128
 71
718
 72
719
 73
720
 74
720
 0
VERTEX
 8
POLYFACEMESH
 10
0
 20
0
 30
0
 70
128
 71
721
 72
722
 73
723
 74
723
 0
VERTEX
 8
POLYFACEMESH
 10
0
 20
0
 30
0
 70
128
 71
724
 72
725
 73
726
 74
726
 0
VERTEX
 8
POLYFACEMESH
 10
0
 20
0
 30
0
 70
128
 71
727
 72
728
 73
729
 74
729
 0
VERTEX
 8
POLYFACEMESH
 10
0
 20
0
 30
0
 70
128
 71
730
 72
731
 73
732
 74
732
 0
VERTEX
 8
POLYFACEMESH
 10
0
 20
0
 30
0
 70
128
 71
733
 72
734
 73
735
 74
735
 0
VERTEX
 8
POLYFACEMESH
 10
0
 20
0
 30
0
 70
128
 71
736
 72
735
 73
737
 74
737
 0
VERTEX
 8
POLYFACEMESH
 10
0
 20
0
 30
0
 70
128
 71
738
 72
739
 73
740
 74
740
 0
VERTEX
 8
POLYFACEMESH
 10
0
 20
0
 30
0
 70
128
 71
741
 72
742
 73
743
 74
743
 0
VERTEX
 8
POLYFACEMESH
 10
0
 20
0
 30
0
 70
128
 71
744
 72
745
 73
746
 74
746
 0
VERTEX
 8
POLYFACEMESH
 10
0
 20
0
 30
0
 70
128
 71
747
 72
748
 73
749
 74
749
 0
VERTEX
 8
POLYFACEMESH
 10
0
 20
0
 30
0
 70
128
 71
750
 72
751
 73
752
 74
752
 0
VERTEX
 8
POLYFACEMESH
 10
0
 20
0
 30
0
 70
128
 71
753
 72
750
 73
754
 74
754
 0
VERTEX
 8
POLYFACEMESH
 10
0
 20
0
 30
0
 70
128
 71
755
 72
756
 73
757
 74
757
 0
VERTEX
 8
POLYFACEMESH
 10
0
 20
0
 30
0
 70
128
 71
758
 72
759
 73
760
 74
760
 0
VERTEX
 8
POLYFACEMESH
 10
0
 20
0
 30
0
 70
128
 71
761
 72
760
 73
762
 74
762
 0
VERTEX
 8
POLYFACEMESH
 10
0
 20
0
 30
0
 70
128
 71
763
 72
764
 73
765
 74
765
 0
VERTEX
 8
POLYFACEMESH
 10
0
 20
0
 30
0
 70
128
 71
766
 72
767
 73
768
 74
768
 0
VERTEX
 8
POLYFACEMESH
 10
0
 20
0
 30
0
 70
128
 71
769
 72
770
 73
771
 74
771
 0
VERTEX
 8
POLYFACEMESH
 10
0
 20
0
 30
0
 70
128
 71
772
 72
773
 73
774
 74
774
 0
VERTEX
 8
POLYFACEMESH
 10
0
 20
0
 30
0
 70
128
 71
775
 72
776
 73
777
 74
777
 0
VERTEX
 8
POLYFACEMESH
 10
0
 20
0
 30
0
 70
128
 71
778
 72
775
 73
779
 74
779
 0
VERTEX
 8
POLYFACEMESH
 10
0
 20
0
 30
0
 70
128
 71
780
 72
781
 73
782
 74
782
 0
VERTEX
 8
POLYFACEMESH
 10
0
 20
0
 30
0
 70
128
 71
783
 72
784
 73
785
 74
785
 0
VERTEX
 8
POLYFACEMESH
 10
0
 20
0
 30
0
 70
128
 71
786
 72
787
 73
788
 74
788
 0
VERTEX
 8
POLYFACEMESH
 10
0
 20
0
 30
0
 70
128
 71
789
 72
790
 73
791
 74
791
 0
VERTEX
 8
POLYFACEMESH
 10
0
 20
0
 30
0
 70
128
 71
792
 72
793
 73
794
 74
794
 0
VERTEX
 8
POLYFACEMESH
 10
0
 20
0
 30
0
 70
128
 71
795
 72
796
 73
793
 74
793
 0
VERTEX
 8
POLYFACEMESH
 10
0
 20
0
 30
0
 70
128
 71
797
 72
798
 73
799
 74
799
 0
VERTEX
 8
POLYFACEMESH
 10
0
 20
0
 30
0
 70
128
 71
800
 72
801
 73
802
 74
802
 0
VERTEX
 8
POLYFACEMESH
 10
0
 20
0
 30
0
 70
128
 71
803
 72
804
 73
805
 74
805
 0
VERTEX
 8
POLYFACEMESH
 10
0
 20
0
 30
0
 70
128
 71
806
 72
663
 73
662
 74
662
 0
VERTEX
 8
POLYFACEMESH
 10
0
 20
0
 30
0
 70
128
 71
807
 72
662
 73
808
 74
808
 0
VERTEX
 8
POLYFACEMESH
 10
0
 20
0
 30
0
 70
128
 71
809
 72
810
 73
811
 74
811
 0
VERTEX
 8
POLYFACEMESH
 10
0
 20
0
 30
0
 70
128
 71
812
 72
813
 73
814
 74
814
 0
VERTEX
 8
POLYFACEMESH
 10
0
 20
0
 30
0
 70
128
 71
815
 72
816
 73
817
 74
817
 0
VERTEX
 8
POLYFACEMESH
 10
0
 20
0
 30
0
 70
128
 71
818
 72
819
 73
820
 74
820
 0
VERTEX
 8
POLYFACEMESH
 10
0
 20
0
 30
0
 70
128
 71
821
 72
822
 73
823
 74
823
 0
VERTEX
 8
POLYFACEMESH
 10
0
 20
0
 30
0
 70
128
 71
824
 72
825
 73
826
 74
826
 0
VERTEX
 8
POLYFACEMESH
 10
0
 20
0
 30
0
 70
128
 71
827
 72
828
 73
829
 74
829
 0
VERTEX
 8
POLYFACEMESH
 10
0
 20
0
 30
0
 70
128
 71
830
 72
831
 73
832
 74
832
 0
VERTEX
 8
POLYFACEMESH
 10
0
 20
0
 30
0
 70
128
 71
833
 72
834
 73
835
 74
835
 0
VERTEX
 8
POLYFACEMESH
 10
0
 20
0
 30
0
 70
128
 71
836
 72
833
 73
837
 74
837
 0
VERTEX
 8
POLYFACEMESH
 10
0
 20
0
 30
0
 70
128
 71
838
 72
839
 73
840
 74
840
 0
VERTEX
 8
POLYFACEMESH
 10
0
 20
0
 30
0
 70
128
 71
841
 72
842
 73
843
 74
843
 0
VERTEX
 8
POLYFACEMESH
 10
0
 20
0
 30
0
 70
128
 71
844
 72
845
 73
846
 74
846
 0
VERTEX
 8
POLYFACEMESH
 10
0
 20
0
 30
0
 70
128
 71
847
 72
848
 73
849
 74
849
 0
VERTEX
 8
POLYFACEMESH
 10
0
 20
0
 30
0
 70
128
 71
850
 72
851
 73
852
 74
852
 0
VERTEX
 8
POLYFACEMESH
 10
0
 20
0
 30
0
 70
128
 71
853
 72
854
 73
855
 74
855
 0
VERTEX
 8
POLYFACEMESH
 10
0
 20
0
 30
0
 70
128
 71
856
 72
857
 73
858
 74
858
 0
VERTEX
 8
POLYFACEMESH
 10
0
 20
0
 30
0
 70
128
 71
859
 72
860
 73
861
 74
861
 0
VERTEX
 8
POLYFACEMESH
 10
0
 20
0
 30
0
 70
128
 71
862
 72
859
 73
863
 74
863
 0
VERTEX
 8
POLYFACEMESH
 10
0
 20
0
 30
0
 70
128
 71
864
 72
865
 73
866
 74
866
 0
VERTEX
 8
POLYFACEMESH
 10
0
 20
0
 30
0
 70
128
 71
867
 72
868
 73
869
 74
869
 0
VERTEX
 8
POLYFACEMESH
 10
0
 20
0
 30
0
 70
128
 71
870
 72
869
 73
871
 74
871
 0
VERTEX
 8
POLYFACEMESH
 10
0
 20
0
 30
0
 70
128
 71
872
 72
873
 73
874
 74
874
 0
VERTEX
 8
POLYFACEMESH
 10
0
 20
0
 30
0
 70
128
 71
875
 72
876
 73
877
 74
877
 0
VERTEX
 8
POLYFACEMESH
 10
0
 20
0
 30
0
 70
128
 71
878
 72
879
 73
876
 74
876
 0
VERTEX
 8
POLYFACEMESH
 10
0
 20
0
 30
0
 70
128
 71
880
 72
881
 73
882
 74
882
 0
VERTEX
 8
POLYFACEMESH
 10
0
 20
0
 30
0
 70
128
 71
883
 72
884
 73
885
 74
885
 0
VERTEX
 8
POLYFACEMESH
 10
0
 20
0
 30
0
 70
128
 71
886
 72
887
 73
888
 74
888
 0
VERTEX
 8
POLYFACEMESH
 10
0
 20
0
 30
0
 70
128
 71
889
 72
890
 73
891
 74
891
 0
VERTEX
 8
POLYFACEMESH
 10
0
 20
0
 30
0
 70
128
 71
892
 72
893
 73
894
 74
894
 0
VERTEX
 8
POLYFACEMESH
 10
0
 20
0
 30
0
 70
128
 71
895
 72
894
 73
896
 74
896
 0
VERTEX
 8
POLYFACEMESH
 10
0
 20
0
 30
0
 70
128
 71
706
 72
897
 73
898
 74
898
 0
VERTEX
 8
POLYFACEMESH
 10
0
 20
0
 30
0
 70
128
 71
706
 72
899
 73
900
 74
900
 0
VERTEX
 8
POLYFACEMESH
 10
0
 20
0
 30
0
 70
128
 71
706
 72
901
 73
707
 74
707
 0
VERTEX
 8
POLYFACEMESH
 10
0
 20
0
 30
0
 70
128
 71
902
 72
833
 73
903
 74
903
 0
VERTEX
 8
POLYFACEMESH
 10
0
 20
0
 30
0
 70
128
 71
709
 72
714
 73
713
 74
713
 0
VERTEX
 8
POLYFACEMESH
 10
0
 20
0
 30
0
 70
128
 71
709
 72
713
 73
710
 74
710
 0
VERTEX
 8
POLYFACEMESH
 10
0
 20
0
 30
0
 70
128
 71
904
 72
713
 73
712
 74
712
 0
VERTEX
 8
POLYFACEMESH
 10
0
 20
0
 30
0
 70
128
 71
905
 72
712
 73
708
 74
708
 0
VERTEX
 8
POLYFACEMESH
 10
0
 20
0
 30
0
 70
128
 71
906
 72
708
 73
707
 74
707
 0
VERTEX
 8
POLYFACEMESH
 10
0
 20
0
 30
0
 70
128
 71
907
 72
716
 73
715
 74
715
 0
VERTEX
 8
POLYFACEMESH
 10
0
 20
0
 30
0
 70
128
 71
908
 72
715
 73
709
 74
709
 0
VERTEX
 8
POLYFACEMESH
 10
0
 20
0
 30
0
 70
128
 71
909
 72
709
 73
711
 74
711
 0
VERTEX
 8
POLYFACEMESH
 10
0
 20
0
 30
0
 70
128
 71
718
 72
717
 73
716
 74
716
 0
VERTEX
 8
POLYFACEMESH
 10
0
 20
0
 30
0
 70
128
 71
718
 72
716
 73
910
 74
910
 0
VERTEX
 8
POLYFACEMESH
 10
0
 20
0
 30
0
 70
128
 71
718
 72
911
 73
719
 74
719
 0
VERTEX
 8
POLYFACEMESH
 10
0
 20
0
 30
0
 70
128
 71
912
 72
869
 73
913
 74
913
 0
VERTEX
 8
POLYFACEMESH
 10
0
 20
0
 30
0
 70
128
 71
721
 72
724
 73
726
 74
726
 0
VERTEX
 8
POLYFACEMESH
 10
0
 20
0
 30
0
 70
128
 71
721
 72
726
 73
722
 74
722
 0
VERTEX
 8
POLYFACEMESH
 10
0
 20
0
 30
0
 70
128
 71
914
 72
859
 73
915
 74
915
 0
VERTEX
 8
POLYFACEMESH
 10
0
 20
0
 30
0
 70
128
 71
724
 72
916
 73
917
 74
917
 0
VERTEX
 8
POLYFACEMESH
 10
0
 20
0
 30
0
 70
128
 71
724
 72
918
 73
725
 74
725
 0
VERTEX
 8
POLYFACEMESH
 10
0
 20
0
 30
0
 70
128
 71
919
 72
876
 73
920
 74
920
 0
VERTEX
 8
POLYFACEMESH
 10
0
 20
0
 30
0
 70
128
 71
727
 72
721
 73
723
 74
723
 0
VERTEX
 8
POLYFACEMESH
 10
0
 20
0
 30
0
 70
128
 71
727
 72
723
 73
728
 74
728
 0
VERTEX
 8
POLYFACEMESH
 10
0
 20
0
 30
0
 70
128
 71
659
 72
727
 73
729
 74
729
 0
VERTEX
 8
POLYFACEMESH
 10
0
 20
0
 30
0
 70
128
 71
659
 72
729
 73
921
 74
921
 0
VERTEX
 8
POLYFACEMESH
 10
0
 20
0
 30
0
 70
128
 71
659
 72
922
 73
660
 74
660
 0
VERTEX
 8
POLYFACEMESH
 10
0
 20
0
 30
0
 70
128
 71
923
 72
894
 73
924
 74
924
 0
VERTEX
 8
POLYFACEMESH
 10
0
 20
0
 30
0
 70
128
 71
925
 72
661
 73
660
 74
660
 0
VERTEX
 8
POLYFACEMESH
 10
0
 20
0
 30
0
 70
128
 71
926
 72
660
 73
927
 74
927
 0
VERTEX
 8
POLYFACEMESH
 10
0
 20
0
 30
0
 70
128
 71
928
 72
929
 73
930
 74
930
 0
SEQEND
 0
POLYLINE
 8
POLYFACEMESH.1
 66
1
 10
0.0
 20
0.0
 30
0.0
 70
64
 71
253
 72
112
 0
VERTEX
 8
POLYFACEMESH.1
 10
-36.1378
 20
-1.755
 30
198
 70
192
 0
VERTEX
 8
POLYFACEMESH.1
 10
-42.584
 20
6.1535
 30
198
 70
192
 0
VERTEX
 8
POLYFACEMESH.1
 10
-36.1378
 20
-1.755
 30
0
 70
192
 0
VERTEX
 8
POLYFACEMESH.1
 10
-42.584
 20
6.1535
 30
0
 70
192
 0
VERTEX
 8
POLYFACEMESH.1
 10
-50.715
 20
35.085
 30
0
 70
192
 0
VERTEX
 8
POLYFACEMESH.1
 10
-51.315
 20
37.585
 30
0
 70
192
 0
VERTEX
 8
POLYFACEMESH.1
 10
-50.715
 20
37.585
 30
0
 70
192
 0
VERTEX
 8
POLYFACEMESH.1
 10
-35.7136
 20
-1.3307
 30
198
 70
192
 0
VERTEX
 8
POLYFACEMESH.1
 10
-36.1378
 20
-1.755
 30
198
 70
192
 0
VERTEX
 8
POLYFACEMESH.1
 10
-35.7136
 20
-1.3307
 30
0
 70
192
 0
VERTEX
 8
POLYFACEMESH.1
 10
-36.1378
 20
-1.755
 30
198
 70
192
 0
VERTEX
 8
POLYFACEMESH.1
 10
-36.1378
 20
-1.755
 30
0
 70
192
 0
VERTEX
 8
POLYFACEMESH.1
 10
-42.0851
 20
6.4869
 30
198
 70
192
 0
VERTEX
 8
POLYFACEMESH.1
 10
-42.0851
 20
6.4869
 30
0
 70
192
 0
VERTEX
 8
POLYFACEMESH.1
 10
-46.8177
 20
15.3927
 30
198
 70
192
 0
VERTEX
 8
POLYFACEMESH.1
 10
-46.8177
 20
15.3927
 30
0
 70
192
 0
VERTEX
 8
POLYFACEMESH.1
 10
-49.7313
 20
25.0479
 30
198
 70
192
 0
VERTEX
 8
POLYFACEMESH.1
 10
-49.7313
 20
25.0479
 30
0
 70
192
 0
VERTEX
 8
POLYFACEMESH.1
 10
-50.715
 20
35.085
 30
198
 70
192
 0
VERTEX
 8
POLYFACEMESH.1
 10
-50.715
 20
35.085
 30
0
 70
192
 0
VERTEX
 8
POLYFACEMESH.1
 10
-50.715
 20
35.085
 30
0
 70
192
 0
VERTEX
 8
POLYFACEMESH.1
 10
-50.715
 20
37.585
 30
198
 70
192
 0
VERTEX
 8
POLYFACEMESH.1
 10
-50.715
 20
37.585
 30
0
 70
192
 0
VERTEX
 8
POLYFACEMESH.1
 10
-50.715
 20
35.085
 30
0
 70
192
 0
VERTEX
 8
POLYFACEMESH.1
 10
-50.715
 20
37.585
 30
0
 70
192
 0
VERTEX
 8
POLYFACEMESH.1
 10
-51.315
 20
37.585
 30
198
 70
192
 0
VERTEX
 8
POLYFACEMESH.1
 10
-50.715
 20
37.585
 30
198
 70
192
 0
VERTEX
 8
POLYFACEMESH.1
 10
-51.315
 20
37.585
 30
0
 70
192
 0
VERTEX
 8
POLYFACEMESH.1
 10
-50.715
 20
37.585
 30
198
 70
192
 0
VERTEX
 8
POLYFACEMESH.1
 10
-50.715
 20
37.585
 30
0
 70
192
 0
VERTEX
 8
POLYFACEMESH.1
 10
-51.315
 20
37.585
 30
0
 70
192
 0
VERTEX
 8
POLYFACEMESH.1
 10
-51.315
 20
35.085
 30
198
 70
192
 0
VERTEX
 8
POLYFACEMESH.1
 10
-51.315
 20
37.585
 30
198
 70
192
 0
VERTEX
 8
POLYFACEMESH.1
 10
-51.315
 20
35.085
 30
0
 70
192
 0
VERTEX
 8
POLYFACEMESH.1
 10
-51.315
 20
37.585
 30
198
 70
192
 0
VERTEX
 8
POLYFACEMESH.1
 10
-51.315
 20
37.585
 30
0
 70
192
 0
VERTEX
 8
POLYFACEMESH.1
 10
-50.3198
 20
24.9308
 30
198
 70
192
 0
VERTEX
 8
POLYFACEMESH.1
 10
-50.3198
 20
24.9308
 30
0
 70
192
 0
VERTEX
 8
POLYFACEMESH.1
 10
-47.3721
 20
15.1631
 30
198
 70
192
 0
VERTEX
 8
POLYFACEMESH.1
 10
-47.3721
 20
15.1631
 30
0
 70
192
 0
VERTEX
 8
POLYFACEMESH.1
 10
-51.315
 20
35.085
 30
0
 70
192
 0
VERTEX
 8
POLYFACEMESH.1
 10
-49.7313
 20
25.0479
 30
0
 70
192
 0
VERTEX
 8
POLYFACEMESH.1
 10
-51.315
 20
35.085
 30
0
 70
192
 0
VERTEX
 8
POLYFACEMESH.1
 10
-51.315
 20
35.085
 30
0
 70
192
 0
VERTEX
 8
POLYFACEMESH.1
 10
-49.7313
 20
25.0479
 30
0
 70
192
 0
VERTEX
 8
POLYFACEMESH.1
 10
-50.3198
 20
24.9308
 30
0
 70
192
 0
VERTEX
 8
POLYFACEMESH.1
 10
-46.8177
 20
15.3927
 30
0
 70
192
 0
VERTEX
 8
POLYFACEMESH.1
 10
-50.3198
 20
24.9308
 30
0
 70
192
 0
VERTEX
 8
POLYFACEMESH.1
 10
-49.7313
 20
25.0479
 30
0
 70
192
 0
VERTEX
 8
POLYFACEMESH.1
 10
-50.3198
 20
24.9308
 30
0
 70
192
 0
VERTEX
 8
POLYFACEMESH.1
 10
-46.8177
 20
15.3927
 30
0
 70
192
 0
VERTEX
 8
POLYFACEMESH.1
 10
-47.3721
 20
15.1631
 30
0
 70
192
 0
VERTEX
 8
POLYFACEMESH.1
 10
-42.0851
 20
6.4869
 30
0
 70
192
 0
VERTEX
 8
POLYFACEMESH.1
 10
-47.3721
 20
15.1631
 30
0
 70
192
 0
VERTEX
 8
POLYFACEMESH.1
 10
-46.8177
 20
15.3927
 30
0
 70
192
 0
VERTEX
 8
POLYFACEMESH.1
 10
-47.3721
 20
15.1631
 30
0
 70
192
 0
VERTEX
 8
POLYFACEMESH.1
 10
-42.0851
 20
6.4869
 30
0
 70
192
 0
VERTEX
 8
POLYFACEMESH.1
 10
-42.584
 20
6.1535
 30
0
 70
192
 0
VERTEX
 8
POLYFACEMESH.1
 10
-35.7136
 20
-1.3307
 30
0
 70
192
 0
VERTEX
 8
POLYFACEMESH.1
 10
-42.584
 20
6.1535
 30
0
 70
192
 0
VERTEX
 8
POLYFACEMESH.1
 10
-42.0851
 20
6.4869
 30
0
 70
192
 0
VERTEX
 8
POLYFACEMESH.1
 10
-42.584
 20
6.1535
 30
0
 70
192
 0
VERTEX
 8
POLYFACEMESH.1
 10
-35.7136
 20
-1.3307
 30
0
 70
192
 0
VERTEX
 8
POLYFACEMESH.1
 10
-36.1378
 20
-1.755
 30
0
 70
192
 0
VERTEX
 8
POLYFACEMESH.1
 10
-36.1378
 20
-1.755
 30
198
 70
192
 0
VERTEX
 8
POLYFACEMESH.1
 10
-35.7136
 20
-1.3307
 30
198
 70
192
 0
VERTEX
 8
POLYFACEMESH.1
 10
-42.584
 20
6.1535
 30
198
 70
192
 0
VERTEX
 8
POLYFACEMESH.1
 10
-42.0851
 20
6.4869
 30
198
 70
192
 0
VERTEX
 8
POLYFACEMESH.1
 10
-42.584
 20
6.1535
 30
198
 70
192
 0
VERTEX
 8
POLYFACEMESH.1
 10
-35.7136
 20
-1.3307
 30
198
 70
192
 0
VERTEX
 8
POLYFACEMESH.1
 10
-42.584
 20
6.1535
 30
198
 70
192
 0
VERTEX
 8
POLYFACEMESH.1
 10
-42.0851
 20
6.4869
 30
198
 70
192
 0
VERTEX
 8
POLYFACEMESH.1
 10
-47.3721
 20
15.1631
 30
198
 70
192
 0
VERTEX
 8
POLYFACEMESH.1
 10
-46.8177
 20
15.3927
 30
198
 70
192
 0
VERTEX
 8
POLYFACEMESH.1
 10
-47.3721
 20
15.1631
 30
198
 70
192
 0
VERTEX
 8
POLYFACEMESH.1
 10
-42.0851
 20
6.4869
 30
198
 70
192
 0
VERTEX
 8
POLYFACEMESH.1
 10
-47.3721
 20
15.1631
 30
198
 70
192
 0
VERTEX
 8
POLYFACEMESH.1
 10
-46.8177
 20
15.3927
 30
198
 70
192
 0
VERTEX
 8
POLYFACEMESH.1
 10
-50.3198
 20
24.9308
 30
198
 70
192
 0
VERTEX
 8
POLYFACEMESH.1
 10
-49.7313
 20
25.0479
 30
198
 70
192
 0
VERTEX
 8
POLYFACEMESH.1
 10
-50.3198
 20
24.9308
 30
198
 70
192
 0
VERTEX
 8
POLYFACEMESH.1
 10
-46.8177
 20
15.3927
 30
198
 70
192
 0
VERTEX
 8
POLYFACEMESH.1
 10
-50.3198
 20
24.9308
 30
198
 70
192
 0
VERTEX
 8
POLYFACEMESH.1
 10
-49.7313
 20
25.0479
 30
198
 70
192
 0
VERTEX
 8
POLYFACEMESH.1
 10
-50.715
 20
35.085
 30
198
 70
192
 0
VERTEX
 8
POLYFACEMESH.1
 10
-51.315
 20
35.085
 30
198
 70
192
 0
VERTEX
 8
POLYFACEMESH.1
 10
-50.3198
 20
24.9308
 30
198
 70
192
 0
VERTEX
 8
POLYFACEMESH.1
 10
-50.715
 20
35.085
 30
198
 70
192
 0
VERTEX
 8
POLYFACEMESH.1
 10
-51.315
 20
35.085
 30
198
 70
192
 0
VERTEX
 8
POLYFACEMESH.1
 10
-50.715
 20
35.085
 30
198
 70
192
 0
VERTEX
 8
POLYFACEMESH.1
 10
-50.715
 20
37.585
 30
198
 70
192
 0
VERTEX
 8
POLYFACEMESH.1
 10
-51.315
 20
35.085
 30
198
 70
192
 0
VERTEX
 8
POLYFACEMESH.1
 10
-50.715
 20
37.585
 30
198
 70
192
 0
VERTEX
 8
POLYFACEMESH.1
 10
-51.315
 20
37.585
 30
198
 70
192
 0
VERTEX
 8
POLYFACEMESH.1
 10
-35.4308
 20
-1.6136
 30
198
 70
192
 0
VERTEX
 8
POLYFACEMESH.1
 10
-27.6132
 20
-7.985
 30
198
 70
192
 0
VERTEX
 8
POLYFACEMESH.1
 10
-35.4307
 20
-1.6136
 30
0
 70
192
 0
VERTEX
 8
POLYFACEMESH.1
 10
-27.6131
 20
-7.9851
 30
0
 70
192
 0
VERTEX
 8
POLYFACEMESH.1
 10
-9.1693
 20
-16.2197
 30
198
 70
192
 0
VERTEX
 8
POLYFACEMESH.1
 10
-9.0522
 20
-15.6313
 30
198
 70
192
 0
VERTEX
 8
POLYFACEMESH.1
 10
-18.937
 20
-13.2721
 30
198
 70
192
 0
VERTEX
 8
POLYFACEMESH.1
 10
-35.8551
 20
-2.0378
 30
198
 70
192
 0
VERTEX
 8
POLYFACEMESH.1
 10
-35.855
 20
-2.0378
 30
0
 70
192
 0
VERTEX
 8
POLYFACEMESH.1
 10
-27.9466
 20
-8.484
 30
198
 70
192
 0
VERTEX
 8
POLYFACEMESH.1
 10
-35.8551
 20
-2.0378
 30
198
 70
192
 0
VERTEX
 8
POLYFACEMESH.1
 10
-27.9465
 20
-8.484
 30
0
 70
192
 0
VERTEX
 8
POLYFACEMESH.1
 10
-35.8551
 20
-2.0378
 30
198
 70
192
 0
VERTEX
 8
POLYFACEMESH.1
 10
-35.855
 20
-2.0378
 30
0
 70
192
 0
VERTEX
 8
POLYFACEMESH.1
 10
-18.937
 20
-13.2721
 30
198
 70
192
 0
VERTEX
 8
POLYFACEMESH.1
 10
-18.9369
 20
-13.2721
 30
0
 70
192
 0
VERTEX
 8
POLYFACEMESH.1
 10
-9.1693
 20
-16.2197
 30
198
 70
192
 0
VERTEX
 8
POLYFACEMESH.1
 10
-18.937
 20
-13.2721
 30
198
 70
192
 0
VERTEX
 8
POLYFACEMESH.1
 10
-9.1692
 20
-16.2198
 30
0
 70
192
 0
VERTEX
 8
POLYFACEMESH.1
 10
-18.937
 20
-13.2721
 30
198
 70
192
 0
VERTEX
 8
POLYFACEMESH.1
 10
0.9849
 20
-17.215
 30
198
 70
192
 0
VERTEX
 8
POLYFACEMESH.1
 10
-9.1693
 20
-16.2197
 30
198
 70
192
 0
VERTEX
 8
POLYFACEMESH.1
 10
0.985
 20
-17.215
 30
0
 70
192
 0
VERTEX
 8
POLYFACEMESH.1
 10
-9.1693
 20
-16.2197
 30
198
 70
192
 0
VERTEX
 8
POLYFACEMESH.1
 10
3.4849
 20
-17.215
 30
198
 70
192
 0
VERTEX
 8
POLYFACEMESH.1
 10
3.485
 20
-17.215
 30
0
 70
192
 0
VERTEX
 8
POLYFACEMESH.1
 10
3.4849
 20
-16.615
 30
198
 70
192
 0
VERTEX
 8
POLYFACEMESH.1
 10
3.4849
 20
-17.215
 30
198
 70
192
 0
VERTEX
 8
POLYFACEMESH.1
 10
3.485
 20
-16.615
 30
0
 70
192
 0
VERTEX
 8
POLYFACEMESH.1
 10
3.4849
 20
-17.215
 30
198
 70
192
 0
VERTEX
 8
POLYFACEMESH.1
 10
3.485
 20
-17.215
 30
0
 70
192
 0
VERTEX
 8
POLYFACEMESH.1
 10
0.9849
 20
-16.615
 30
198
 70
192
 0
VERTEX
 8
POLYFACEMESH.1
 10
3.4849
 20
-16.615
 30
198
 70
192
 0
VERTEX
 8
POLYFACEMESH.1
 10
0.985
 20
-16.615
 30
0
 70
192
 0
VERTEX
 8
POLYFACEMESH.1
 10
3.4849
 20
-16.615
 30
198
 70
192
 0
VERTEX
 8
POLYFACEMESH.1
 10
3.485
 20
-16.615
 30
0
 70
192
 0
VERTEX
 8
POLYFACEMESH.1
 10
-9.0522
 20
-15.6313
 30
198
 70
192
 0
VERTEX
 8
POLYFACEMESH.1
 10
-9.0521
 20
-15.6313
 30
0
 70
192
 0
VERTEX
 8
POLYFACEMESH.1
 10
-18.7074
 20
-12.7176
 30
198
 70
192
 0
VERTEX
 8
POLYFACEMESH.1
 10
-9.0522
 20
-15.6313
 30
198
 70
192
 0
VERTEX
 8
POLYFACEMESH.1
 10
-18.7073
 20
-12.7177
 30
0
 70
192
 0
VERTEX
 8
POLYFACEMESH.1
 10
-9.0522
 20
-15.6313
 30
198
 70
192
 0
VERTEX
 8
POLYFACEMESH.1
 10
0.9849
 20
-16.615
 30
198
 70
192
 0
VERTEX
 8
POLYFACEMESH.1
 10
0.9849
 20
-16.615
 30
198
 70
192
 0
VERTEX
 8
POLYFACEMESH.1
 10
0.9849
 20
-17.215
 30
198
 70
192
 0
VERTEX
 8
POLYFACEMESH.1
 10
0.9849
 20
-16.615
 30
198
 70
192
 0
VERTEX
 8
POLYFACEMESH.1
 10
0.9849
 20
-17.215
 30
198
 70
192
 0
VERTEX
 8
POLYFACEMESH.1
 10
3.4849
 20
-17.215
 30
198
 70
192
 0
VERTEX
 8
POLYFACEMESH.1
 10
0.9849
 20
-16.615
 30
198
 70
192
 0
VERTEX
 8
POLYFACEMESH.1
 10
3.4849
 20
-17.215
 30
198
 70
192
 0
VERTEX
 8
POLYFACEMESH.1
 10
3.4849
 20
-16.615
 30
198
 70
192
 0
VERTEX
 8
POLYFACEMESH.1
 10
-35.4308
 20
-1.6136
 30
198
 70
192
 0
VERTEX
 8
POLYFACEMESH.1
 10
-35.8551
 20
-2.0378
 30
198
 70
192
 0
VERTEX
 8
POLYFACEMESH.1
 10
-27.6132
 20
-7.985
 30
198
 70
192
 0
VERTEX
 8
POLYFACEMESH.1
 10
-27.9466
 20
-8.484
 30
198
 70
192
 0
VERTEX
 8
POLYFACEMESH.1
 10
-27.6132
 20
-7.985
 30
198
 70
192
 0
VERTEX
 8
POLYFACEMESH.1
 10
-35.8551
 20
-2.0378
 30
198
 70
192
 0
VERTEX
 8
POLYFACEMESH.1
 10
-27.6132
 20
-7.985
 30
198
 70
192
 0
VERTEX
 8
POLYFACEMESH.1
 10
-27.9466
 20
-8.484
 30
198
 70
192
 0
VERTEX
 8
POLYFACEMESH.1
 10
-18.7074
 20
-12.7176
 30
198
 70
192
 0
VERTEX
 8
POLYFACEMESH.1
 10
-18.7074
 20
-12.7176
 30
198
 70
192
 0
VERTEX
 8
POLYFACEMESH.1
 10
-27.9466
 20
-8.484
 30
198
 70
192
 0
VERTEX
 8
POLYFACEMESH.1
 10
-18.7074
 20
-12.7176
 30
198
 70
192
 0
VERTEX
 8
POLYFACEMESH.1
 10
3.485
 20
-17.215
 30
0
 70
192
 0
VERTEX
 8
POLYFACEMESH.1
 10
0.985
 20
-17.215
 30
0
 70
192
 0
VERTEX
 8
POLYFACEMESH.1
 10
0.985
 20
-16.615
 30
0
 70
192
 0
VERTEX
 8
POLYFACEMESH.1
 10
-9.1692
 20
-16.2198
 30
0
 70
192
 0
VERTEX
 8
POLYFACEMESH.1
 10
0.985
 20
-16.615
 30
0
 70
192
 0
VERTEX
 8
POLYFACEMESH.1
 10
0.985
 20
-17.215
 30
0
 70
192
 0
VERTEX
 8
POLYFACEMESH.1
 10
0.985
 20
-16.615
 30
0
 70
192
 0
VERTEX
 8
POLYFACEMESH.1
 10
-9.1692
 20
-16.2198
 30
0
 70
192
 0
VERTEX
 8
POLYFACEMESH.1
 10
-9.0521
 20
-15.6313
 30
0
 70
192
 0
VERTEX
 8
POLYFACEMESH.1
 10
-18.9369
 20
-13.2721
 30
0
 70
192
 0
VERTEX
 8
POLYFACEMESH.1
 10
-9.0521
 20
-15.6313
 30
0
 70
192
 0
VERTEX
 8
POLYFACEMESH.1
 10
-9.1692
 20
-16.2198
 30
0
 70
192
 0
VERTEX
 8
POLYFACEMESH.1
 10
-9.0521
 20
-15.6313
 30
0
 70
192
 0
VERTEX
 8
POLYFACEMESH.1
 10
-18.9369
 20
-13.2721
 30
0
 70
192
 0
VERTEX
 8
POLYFACEMESH.1
 10
-18.7073
 20
-12.7177
 30
0
 70
192
 0
VERTEX
 8
POLYFACEMESH.1
 10
-27.9465
 20
-8.484
 30
0
 70
192
 0
VERTEX
 8
POLYFACEMESH.1
 10
-18.7073
 20
-12.7177
 30
0
 70
192
 0
VERTEX
 8
POLYFACEMESH.1
 10
-18.9369
 20
-13.2721
 30
0
 70
192
 0
VERTEX
 8
POLYFACEMESH.1
 10
-18.7073
 20
-12.7177
 30
0
 70
192
 0
VERTEX
 8
POLYFACEMESH.1
 10
-27.9465
 20
-8.484
 30
0
 70
192
 0
VERTEX
 8
POLYFACEMESH.1
 10
-27.6131
 20
-7.9851
 30
0
 70
192
 0
VERTEX
 8
POLYFACEMESH.1
 10
-35.855
 20
-2.0378
 30
0
 70
192
 0
VERTEX
 8
POLYFACEMESH.1
 10
-27.6131
 20
-7.9851
 30
0
 70
192
 0
VERTEX
 8
POLYFACEMESH.1
 10
-27.9465
 20
-8.484
 30
0
 70
192
 0
VERTEX
 8
POLYFACEMESH.1
 10
-27.6131
 20
-7.9851
 30
0
 70
192
 0
VERTEX
 8
POLYFACEMESH.1
 10
-35.855
 20
-2.0378
 30
0
 70
192
 0
VERTEX
 8
POLYFACEMESH.1
 10
-35.4307
 20
-1.6136
 30
0
 70
192
 0
VERTEX
 8
POLYFACEMESH.1
 10
3.485
 20
-17.215
 30
0
 70
192
 0
VERTEX
 8
POLYFACEMESH.1
 10
0.985
 20
-16.615
 30
0
 70
192
 0
VERTEX
 8
POLYFACEMESH.1
 10
3.485
 20
-16.615
 30
0
 70
192
 0
VERTEX
 8
POLYFACEMESH.1
 10
-52.115
 20
67.085
 30
195
 70
192
 0
VERTEX
 8
POLYFACEMESH.1
 10
-52.115
 20
35.585
 30
195
 70
192
 0
VERTEX
 8
POLYFACEMESH.1
 10
-52.115
 20
67.085
 30
0
 70
192
 0
VERTEX
 8
POLYFACEMESH.1
 10
-52.115
 20
35.585
 30
0
 70
192
 0
VERTEX
 8
POLYFACEMESH.1
 10
-52.715
 20
67.085
 30
0
 70
192
 0
VERTEX
 8
POLYFACEMESH.1
 10
-52.115
 20
67.085
 30
0
 70
192
 0
VERTEX
 8
POLYFACEMESH.1
 10
-52.715
 20
35.585
 30
0
 70
192
 0
VERTEX
 8
POLYFACEMESH.1
 10
-52.115
 20
67.085
 30
0
 70
192
 0
VERTEX
 8
POLYFACEMESH.1
 10
-52.115
 20
35.585
 30
0
 70
192
 0
VERTEX
 8
POLYFACEMESH.1
 10
-52.715
 20
35.585
 30
0
 70
192
 0
VERTEX
 8
POLYFACEMESH.1
 10
-52.715
 20
35.585
 30
195
 70
192
 0
VERTEX
 8
POLYFACEMESH.1
 10
-52.715
 20
67.085
 30
195
 70
192
 0
VERTEX
 8
POLYFACEMESH.1
 10
-52.715
 20
35.585
 30
0
 70
192
 0
VERTEX
 8
POLYFACEMESH.1
 10
-52.715
 20
67.085
 30
0
 70
192
 0
VERTEX
 8
POLYFACEMESH.1
 10
-52.715
 20
35.585
 30
0
 70
192
 0
VERTEX
 8
POLYFACEMESH.1
 10
-52.115
 20
35.585
 30
195
 70
192
 0
VERTEX
 8
POLYFACEMESH.1
 10
-52.715
 20
35.585
 30
195
 70
192
 0
VERTEX
 8
POLYFACEMESH.1
 10
-52.115
 20
35.585
 30
0
 70
192
 0
VERTEX
 8
POLYFACEMESH.1
 10
-52.715
 20
35.585
 30
195
 70
192
 0
VERTEX
 8
POLYFACEMESH.1
 10
-52.715
 20
35.585
 30
0
 70
192
 0
VERTEX
 8
POLYFACEMESH.1
 10
-52.115
 20
35.585
 30
0
 70
192
 0
VERTEX
 8
POLYFACEMESH.1
 10
-52.115
 20
35.585
 30
195
 70
192
 0
VERTEX
 8
POLYFACEMESH.1
 10
-52.115
 20
67.085
 30
195
 70
192
 0
VERTEX
 8
POLYFACEMESH.1
 10
-52.715
 20
35.585
 30
195
 70
192
 0
VERTEX
 8
POLYFACEMESH.1
 10
-52.115
 20
67.085
 30
195
 70
192
 0
VERTEX
 8
POLYFACEMESH.1
 10
-52.715
 20
67.085
 30
195
 70
192
 0
VERTEX
 8
POLYFACEMESH.1
 10
-52.715
 20
35.585
 30
195
 70
192
 0
VERTEX
 8
POLYFACEMESH.1
 10
-52.715
 20
67.085
 30
195
 70
192
 0
VERTEX
 8
POLYFACEMESH.1
 10
-52.115
 20
67.085
 30
195
 70
192
 0
VERTEX
 8
POLYFACEMESH.1
 10
-52.715
 20
67.085
 30
0
 70
192
 0
VERTEX
 8
POLYFACEMESH.1
 10
-52.115
 20
67.085
 30
195
 70
192
 0
VERTEX
 8
POLYFACEMESH.1
 10
-52.115
 20
67.085
 30
0
 70
192
 0
VERTEX
 8
POLYFACEMESH.1
 10
-52.715
 20
67.085
 30
0
 70
192
 0
VERTEX
 8
POLYFACEMESH.1
 10
32.985
 20
-18.615
 30
195
 70
192
 0
VERTEX
 8
POLYFACEMESH.1
 10
1.485
 20
-18.615
 30
195
 70
192
 0
VERTEX
 8
POLYFACEMESH.1
 10
32.985
 20
-18.615
 30
0
 70
192
 0
VERTEX
 8
POLYFACEMESH.1
 10
1.485
 20
-18.615
 30
0
 70
192
 0
VERTEX
 8
POLYFACEMESH.1
 10
32.985
 20
-18.015
 30
0
 70
192
 0
VERTEX
 8
POLYFACEMESH.1
 10
32.985
 20
-18.615
 30
0
 70
192
 0
VERTEX
 8
POLYFACEMESH.1
 10
1.485
 20
-18.015
 30
0
 70
192
 0
VERTEX
 8
POLYFACEMESH.1
 10
32.985
 20
-18.615
 30
0
 70
192
 0
VERTEX
 8
POLYFACEMESH.1
 10
1.485
 20
-18.615
 30
0
 70
192
 0
VERTEX
 8
POLYFACEMESH.1
 10
1.485
 20
-18.015
 30
0
 70
192
 0
VERTEX
 8
POLYFACEMESH.1
 10
1.485
 20
-18.015
 30
195
 70
192
 0
VERTEX
 8
POLYFACEMESH.1
 10
32.985
 20
-18.015
 30
195
 70
192
 0
VERTEX
 8
POLYFACEMESH.1
 10
1.485
 20
-18.015
 30
0
 70
192
 0
VERTEX
 8
POLYFACEMESH.1
 10
32.985
 20
-18.015
 30
0
 70
192
 0
VERTEX
 8
POLYFACEMESH.1
 10
1.485
 20
-18.015
 30
0
 70
192
 0
VERTEX
 8
POLYFACEMESH.1
 10
1.485
 20
-18.615
 30
195
 70
192
 0
VERTEX
 8
POLYFACEMESH.1
 10
1.485
 20
-18.015
 30
195
 70
192
 0
VERTEX
 8
POLYFACEMESH.1
 10
1.485
 20
-18.615
 30
0
 70
192
 0
VERTEX
 8
POLYFACEMESH.1
 10
1.485
 20
-18.015
 30
195
 70
192
 0
VERTEX
 8
POLYFACEMESH.1
 10
1.485
 20
-18.015
 30
0
 70
192
 0
VERTEX
 8
POLYFACEMESH.1
 10
1.485
 20
-18.615
 30
0
 70
192
 0
VERTEX
 8
POLYFACEMESH.1
 10
32.985
 20
-18.015
 30
195
 70
192
 0
VERTEX
 8
POLYFACEMESH.1
 10
1.485
 20
-18.015
 30
195
 70
192
 0
VERTEX
 8
POLYFACEMESH.1
 10
32.985
 20
-18.615
 30
195
 70
192
 0
VERTEX
 8
POLYFACEMESH.1
 10
1.485
 20
-18.015
 30
195
 70
192
 0
VERTEX
 8
POLYFACEMESH.1
 10
1.485
 20
-18.615
 30
195
 70
192
 0
VERTEX
 8
POLYFACEMESH.1
 10
32.985
 20
-18.615
 30
195
 70
192
 0
VERTEX
 8
POLYFACEMESH.1
 10
32.985
 20
-18.015
 30
195
 70
192
 0
VERTEX
 8
POLYFACEMESH.1
 10
32.985
 20
-18.615
 30
195
 70
192
 0
VERTEX
 8
POLYFACEMESH.1
 10
32.985
 20
-18.015
 30
0
 70
192
 0
VERTEX
 8
POLYFACEMESH.1
 10
32.985
 20
-18.615
 30
195
 70
192
 0
VERTEX
 8
POLYFACEMESH.1
 10
32.985
 20
-18.615
 30
0
 70
192
 0
VERTEX
 8
POLYFACEMESH.1
 10
32.985
 20
-18.015
 30
0
 70
192
 0
VERTEX
 8
POLYFACEMESH.1
 10
0
 20
0
 30
0
 70
128
 71
1
 72
2
 73
3
 74
3
 0
VERTEX
 8
POLYFACEMESH.1
 10
0
 20
0
 30
0
 70
128
 71
2
 72
4
 73
3
 74
3
 0
VERTEX
 8
POLYFACEMESH.1
 10
0
 20
0
 30
0
 70
128
 71
5
 72
6
 73
7
 74
7
 0
VERTEX
 8
POLYFACEMESH.1
 10
0
 20
0
 30
0
 70
128
 71
8
 72
9
 73
10
 74
10
 0
VERTEX
 8
POLYFACEMESH.1
 10
0
 20
0
 30
0
 70
128
 71
11
 72
12
 73
10
 74
10
 0
VERTEX
 8
POLYFACEMESH.1
 10
0
 20
0
 30
0
 70
128
 71
13
 72
8
 73
14
 74
14
 0
VERTEX
 8
POLYFACEMESH.1
 10
0
 20
0
 30
0
 70
128
 71
8
 72
10
 73
14
 74
14
 0
VERTEX
 8
POLYFACEMESH.1
 10
0
 20
0
 30
0
 70
128
 71
15
 72
13
 73
16
 74
16
 0
VERTEX
 8
POLYFACEMESH.1
 10
0
 20
0
 30
0
 70
128
 71
13
 72
14
 73
16
 74
16
 0
VERTEX
 8
POLYFACEMESH.1
 10
0
 20
0
 30
0
 70
128
 71
17
 72
15
 73
18
 74
18
 0
VERTEX
 8
POLYFACEMESH.1
 10
0
 20
0
 30
0
 70
128
 71
15
 72
16
 73
18
 74
18
 0
VERTEX
 8
POLYFACEMESH.1
 10
0
 20
0
 30
0
 70
128
 71
19
 72
17
 73
20
 74
20
 0
VERTEX
 8
POLYFACEMESH.1
 10
0
 20
0
 30
0
 70
128
 71
17
 72
18
 73
21
 74
21
 0
VERTEX
 8
POLYFACEMESH.1
 10
0
 20
0
 30
0
 70
128
 71
22
 72
19
 73
23
 74
23
 0
VERTEX
 8
POLYFACEMESH.1
 10
0
 20
0
 30
0
 70
128
 71
19
 72
24
 73
25
 74
25
 0
VERTEX
 8
POLYFACEMESH.1
 10
0
 20
0
 30
0
 70
128
 71
26
 72
27
 73
28
 74
28
 0
VERTEX
 8
POLYFACEMESH.1
 10
0
 20
0
 30
0
 70
128
 71
29
 72
30
 73
31
 74
31
 0
VERTEX
 8
POLYFACEMESH.1
 10
0
 20
0
 30
0
 70
128
 71
32
 72
33
 73
34
 74
34
 0
VERTEX
 8
POLYFACEMESH.1
 10
0
 20
0
 30
0
 70
128
 71
35
 72
36
 73
34
 74
34
 0
VERTEX
 8
POLYFACEMESH.1
 10
0
 20
0
 30
0
 70
128
 71
37
 72
32
 73
38
 74
38
 0
VERTEX
 8
POLYFACEMESH.1
 10
0
 20
0
 30
0
 70
128
 71
32
 72
34
 73
38
 74
38
 0
VERTEX
 8
POLYFACEMESH.1
 10
0
 20
0
 30
0
 70
128
 71
39
 72
37
 73
40
 74
40
 0
VERTEX
 8
POLYFACEMESH.1
 10
0
 20
0
 30
0
 70
128
 71
37
 72
38
 73
40
 74
40
 0
VERTEX
 8
POLYFACEMESH.1
 10
0
 20
0
 30
0
 70
128
 71
2
 72
39
 73
4
 74
4
 0
VERTEX
 8
POLYFACEMESH.1
 10
0
 20
0
 30
0
 70
128
 71
39
 72
40
 73
4
 74
4
 0
VERTEX
 8
POLYFACEMESH.1
 10
0
 20
0
 30
0
 70
128
 71
6
 72
5
 73
41
 74
41
 0
VERTEX
 8
POLYFACEMESH.1
 10
0
 20
0
 30
0
 70
128
 71
42
 72
43
 73
5
 74
5
 0
VERTEX
 8
POLYFACEMESH.1
 10
0
 20
0
 30
0
 70
128
 71
44
 72
45
 73
46
 74
46
 0
VERTEX
 8
POLYFACEMESH.1
 10
0
 20
0
 30
0
 70
128
 71
47
 72
48
 73
49
 74
49
 0
VERTEX
 8
POLYFACEMESH.1
 10
0
 20
0
 30
0
 70
128
 71
50
 72
51
 73
52
 74
52
 0
VERTEX
 8
POLYFACEMESH.1
 10
0
 20
0
 30
0
 70
128
 71
53
 72
54
 73
55
 74
55
 0
VERTEX
 8
POLYFACEMESH.1
 10
0
 20
0
 30
0
 70
128
 71
56
 72
57
 73
58
 74
58
 0
VERTEX
 8
POLYFACEMESH.1
 10
0
 20
0
 30
0
 70
128
 71
59
 72
60
 73
61
 74
61
 0
VERTEX
 8
POLYFACEMESH.1
 10
0
 20
0
 30
0
 70
128
 71
62
 72
63
 73
64
 74
64
 0
VERTEX
 8
POLYFACEMESH.1
 10
0
 20
0
 30
0
 70
128
 71
65
 72
66
 73
67
 74
67
 0
VERTEX
 8
POLYFACEMESH.1
 10
0
 20
0
 30
0
 70
128
 71
68
 72
69
 73
70
 74
70
 0
VERTEX
 8
POLYFACEMESH.1
 10
0
 20
0
 30
0
 70
128
 71
71
 72
72
 73
73
 74
73
 0
VERTEX
 8
POLYFACEMESH.1
 10
0
 20
0
 30
0
 70
128
 71
74
 72
75
 73
76
 74
76
 0
VERTEX
 8
POLYFACEMESH.1
 10
0
 20
0
 30
0
 70
128
 71
77
 72
78
 73
79
 74
79
 0
VERTEX
 8
POLYFACEMESH.1
 10
0
 20
0
 30
0
 70
128
 71
80
 72
81
 73
82
 74
82
 0
VERTEX
 8
POLYFACEMESH.1
 10
0
 20
0
 30
0
 70
128
 71
83
 72
84
 73
85
 74
85
 0
VERTEX
 8
POLYFACEMESH.1
 10
0
 20
0
 30
0
 70
128
 71
86
 72
87
 73
88
 74
88
 0
VERTEX
 8
POLYFACEMESH.1
 10
0
 20
0
 30
0
 70
128
 71
89
 72
90
 73
91
 74
91
 0
VERTEX
 8
POLYFACEMESH.1
 10
0
 20
0
 30
0
 70
128
 71
92
 72
93
 73
94
 74
94
 0
VERTEX
 8
POLYFACEMESH.1
 10
0
 20
0
 30
0
 70
128
 71
95
 72
96
 73
97
 74
97
 0
VERTEX
 8
POLYFACEMESH.1
 10
0
 20
0
 30
0
 70
128
 71
96
 72
98
 73
97
 74
97
 0
VERTEX
 8
POLYFACEMESH.1
 10
0
 20
0
 30
0
 70
128
 71
99
 72
100
 73
101
 74
101
 0
VERTEX
 8
POLYFACEMESH.1
 10
0
 20
0
 30
0
 70
128
 71
102
 72
95
 73
103
 74
103
 0
VERTEX
 8
POLYFACEMESH.1
 10
0
 20
0
 30
0
 70
128
 71
95
 72
97
 73
103
 74
103
 0
VERTEX
 8
POLYFACEMESH.1
 10
0
 20
0
 30
0
 70
128
 71
104
 72
105
 73
106
 74
106
 0
VERTEX
 8
POLYFACEMESH.1
 10
0
 20
0
 30
0
 70
128
 71
107
 72
108
 73
106
 74
106
 0
VERTEX
 8
POLYFACEMESH.1
 10
0
 20
0
 30
0
 70
128
 71
109
 72
104
 73
110
 74
110
 0
VERTEX
 8
POLYFACEMESH.1
 10
0
 20
0
 30
0
 70
128
 71
104
 72
106
 73
110
 74
110
 0
VERTEX
 8
POLYFACEMESH.1
 10
0
 20
0
 30
0
 70
128
 71
111
 72
112
 73
113
 74
113
 0
VERTEX
 8
POLYFACEMESH.1
 10
0
 20
0
 30
0
 70
128
 71
114
 72
110
 73
113
 74
113
 0
VERTEX
 8
POLYFACEMESH.1
 10
0
 20
0
 30
0
 70
128
 71
115
 72
116
 73
117
 74
117
 0
VERTEX
 8
POLYFACEMESH.1
 10
0
 20
0
 30
0
 70
128
 71
118
 72
113
 73
117
 74
117
 0
VERTEX
 8
POLYFACEMESH.1
 10
0
 20
0
 30
0
 70
128
 71
119
 72
115
 73
120
 74
120
 0
VERTEX
 8
POLYFACEMESH.1
 10
0
 20
0
 30
0
 70
128
 71
115
 72
117
 73
120
 74
120
 0
VERTEX
 8
POLYFACEMESH.1
 10
0
 20
0
 30
0
 70
128
 71
121
 72
122
 73
123
 74
123
 0
VERTEX
 8
POLYFACEMESH.1
 10
0
 20
0
 30
0
 70
128
 71
124
 72
125
 73
123
 74
123
 0
VERTEX
 8
POLYFACEMESH.1
 10
0
 20
0
 30
0
 70
128
 71
126
 72
127
 73
128
 74
128
 0
VERTEX
 8
POLYFACEMESH.1
 10
0
 20
0
 30
0
 70
128
 71
129
 72
130
 73
128
 74
128
 0
VERTEX
 8
POLYFACEMESH.1
 10
0
 20
0
 30
0
 70
128
 71
131
 72
126
 73
132
 74
132
 0
VERTEX
 8
POLYFACEMESH.1
 10
0
 20
0
 30
0
 70
128
 71
126
 72
128
 73
132
 74
132
 0
VERTEX
 8
POLYFACEMESH.1
 10
0
 20
0
 30
0
 70
128
 71
133
 72
134
 73
135
 74
135
 0
VERTEX
 8
POLYFACEMESH.1
 10
0
 20
0
 30
0
 70
128
 71
136
 72
132
 73
135
 74
135
 0
VERTEX
 8
POLYFACEMESH.1
 10
0
 20
0
 30
0
 70
128
 71
96
 72
133
 73
98
 74
98
 0
VERTEX
 8
POLYFACEMESH.1
 10
0
 20
0
 30
0
 70
128
 71
133
 72
135
 73
98
 74
98
 0
VERTEX
 8
POLYFACEMESH.1
 10
0
 20
0
 30
0
 70
128
 71
137
 72
100
 73
99
 74
99
 0
VERTEX
 8
POLYFACEMESH.1
 10
0
 20
0
 30
0
 70
128
 71
138
 72
99
 73
139
 74
139
 0
VERTEX
 8
POLYFACEMESH.1
 10
0
 20
0
 30
0
 70
128
 71
140
 72
141
 73
142
 74
142
 0
VERTEX
 8
POLYFACEMESH.1
 10
0
 20
0
 30
0
 70
128
 71
143
 72
144
 73
145
 74
145
 0
VERTEX
 8
POLYFACEMESH.1
 10
0
 20
0
 30
0
 70
128
 71
146
 72
147
 73
148
 74
148
 0
VERTEX
 8
POLYFACEMESH.1
 10
0
 20
0
 30
0
 70
128
 71
149
 72
150
 73
151
 74
151
 0
VERTEX
 8
POLYFACEMESH.1
 10
0
 20
0
 30
0
 70
128
 71
152
 72
153
 73
154
 74
154
 0
VERTEX
 8
POLYFACEMESH.1
 10
0
 20
0
 30
0
 70
128
 71
101
 72
155
 73
156
 74
156
 0
VERTEX
 8
POLYFACEMESH.1
 10
0
 20
0
 30
0
 70
128
 71
157
 72
101
 73
100
 74
100
 0
VERTEX
 8
POLYFACEMESH.1
 10
0
 20
0
 30
0
 70
128
 71
158
 72
159
 73
160
 74
160
 0
VERTEX
 8
POLYFACEMESH.1
 10
0
 20
0
 30
0
 70
128
 71
161
 72
162
 73
163
 74
163
 0
VERTEX
 8
POLYFACEMESH.1
 10
0
 20
0
 30
0
 70
128
 71
164
 72
165
 73
166
 74
166
 0
VERTEX
 8
POLYFACEMESH.1
 10
0
 20
0
 30
0
 70
128
 71
167
 72
168
 73
169
 74
169
 0
VERTEX
 8
POLYFACEMESH.1
 10
0
 20
0
 30
0
 70
128
 71
170
 72
171
 73
172
 74
172
 0
VERTEX
 8
POLYFACEMESH.1
 10
0
 20
0
 30
0
 70
128
 71
173
 72
174
 73
175
 74
175
 0
VERTEX
 8
POLYFACEMESH.1
 10
0
 20
0
 30
0
 70
128
 71
176
 72
177
 73
178
 74
178
 0
VERTEX
 8
POLYFACEMESH.1
 10
0
 20
0
 30
0
 70
128
 71
179
 72
180
 73
181
 74
181
 0
VERTEX
 8
POLYFACEMESH.1
 10
0
 20
0
 30
0
 70
128
 71
182
 72
183
 73
184
 74
184
 0
VERTEX
 8
POLYFACEMESH.1
 10
0
 20
0
 30
0
 70
128
 71
185
 72
186
 73
187
 74
187
 0
VERTEX
 8
POLYFACEMESH.1
 10
0
 20
0
 30
0
 70
128
 71
188
 72
189
 73
190
 74
190
 0
VERTEX
 8
POLYFACEMESH.1
 10
0
 20
0
 30
0
 70
128
 71
189
 72
191
 73
190
 74
190
 0
VERTEX
 8
POLYFACEMESH.1
 10
0
 20
0
 30
0
 70
128
 71
192
 72
193
 73
194
 74
194
 0
VERTEX
 8
POLYFACEMESH.1
 10
0
 20
0
 30
0
 70
128
 71
195
 72
196
 73
197
 74
197
 0
VERTEX
 8
POLYFACEMESH.1
 10
0
 20
0
 30
0
 70
128
 71
198
 72
199
 73
200
 74
200
 0
VERTEX
 8
POLYFACEMESH.1
 10
0
 20
0
 30
0
 70
128
 71
199
 72
201
 73
202
 74
202
 0
VERTEX
 8
POLYFACEMESH.1
 10
0
 20
0
 30
0
 70
128
 71
203
 72
204
 73
205
 74
205
 0
VERTEX
 8
POLYFACEMESH.1
 10
0
 20
0
 30
0
 70
128
 71
206
 72
207
 73
208
 74
208
 0
VERTEX
 8
POLYFACEMESH.1
 10
0
 20
0
 30
0
 70
128
 71
209
 72
210
 73
211
 74
211
 0
VERTEX
 8
POLYFACEMESH.1
 10
0
 20
0
 30
0
 70
128
 71
212
 72
213
 73
214
 74
214
 0
VERTEX
 8
POLYFACEMESH.1
 10
0
 20
0
 30
0
 70
128
 71
215
 72
216
 73
217
 74
217
 0
VERTEX
 8
POLYFACEMESH.1
 10
0
 20
0
 30
0
 70
128
 71
218
 72
219
 73
220
 74
220
 0
VERTEX
 8
POLYFACEMESH.1
 10
0
 20
0
 30
0
 70
128
 71
221
 72
222
 73
223
 74
223
 0
VERTEX
 8
POLYFACEMESH.1
 10
0
 20
0
 30
0
 70
128
 71
222
 72
224
 73
223
 74
223
 0
VERTEX
 8
POLYFACEMESH.1
 10
0
 20
0
 30
0
 70
128
 71
225
 72
226
 73
227
 74
227
 0
VERTEX
 8
POLYFACEMESH.1
 10
0
 20
0
 30
0
 70
128
 71
228
 72
229
 73
230
 74
230
 0
VERTEX
 8
POLYFACEMESH.1
 10
0
 20
0
 30
0
 70
128
 71
231
 72
232
 73
233
 74
233
 0
VERTEX
 8
POLYFACEMESH.1
 10
0
 20
0
 30
0
 70
128
 71
232
 72
234
 73
235
 74
235
 0
VERTEX
 8
POLYFACEMESH.1
 10
0
 20
0
 30
0
 70
128
 71
236
 72
237
 73
238
 74
238
 0
VERTEX
 8
POLYFACEMESH.1
 10
0
 20
0
 30
0
 70
128
 71
239
 72
240
 73
241
 74
241
 0
VERTEX
 8
POLYFACEMESH.1
 10
0
 20
0
 30
0
 70
128
 71
242
 72
243
 73
244
 74
244
 0
VERTEX
 8
POLYFACEMESH.1
 10
0
 20
0
 30
0
 70
128
 71
245
 72
246
 73
247
 74
247
 0
VERTEX
 8
POLYFACEMESH.1
 10
0
 20
0
 30
0
 70
128
 71
248
 72
249
 73
250
 74
250
 0
VERTEX
 8
POLYFACEMESH.1
 10
0
 20
0
 30
0
 70
128
 71
251
 72
252
 73
253
 74
253
 0
SEQEND
 0
ENDSEC
 0
EOF
