<?xml version="1.0" encoding="UTF-8" standalone="no"?>
<!-- Created with Inkscape (http://www.inkscape.org/) -->

<svg
   xmlns:dc="http://purl.org/dc/elements/1.1/"
   xmlns:cc="http://creativecommons.org/ns#"
   xmlns:rdf="http://www.w3.org/1999/02/22-rdf-syntax-ns#"
   xmlns:svg="http://www.w3.org/2000/svg"
   xmlns="http://www.w3.org/2000/svg"
   xmlns:sodipodi="http://sodipodi.sourceforge.net/DTD/sodipodi-0.dtd"
   xmlns:inkscape="http://www.inkscape.org/namespaces/inkscape"
   width="210mm"
   height="297mm"
   id="svg2"
   version="1.1"
   inkscape:version="0.48.4 r9939"
   sodipodi:docname="SSP.svg">
  <defs
     id="defs4" />
  <sodipodi:namedview
     id="base"
     pagecolor="#ffffff"
     bordercolor="#666666"
     borderopacity="1.0"
     inkscape:pageopacity="0.0"
     inkscape:pageshadow="2"
     inkscape:zoom="1.979899"
     inkscape:cx="302.66301"
     inkscape:cy="483.51052"
     inkscape:document-units="px"
     inkscape:current-layer="layer1"
     showgrid="false"
     showguides="true"
     inkscape:guide-bbox="true"
     inkscape:window-width="1366"
     inkscape:window-height="706"
     inkscape:window-x="-8"
     inkscape:window-y="-8"
     inkscape:window-maximized="1" />
  <metadata
     id="metadata7">
    <rdf:RDF>
      <cc:Work
         rdf:about="">
        <dc:format>image/svg+xml</dc:format>
        <dc:type
           rdf:resource="http://purl.org/dc/dcmitype/StillImage" />
        <dc:title></dc:title>
      </cc:Work>
    </rdf:RDF>
  </metadata>
  <g
     inkscape:label="Ebene 1"
     inkscape:groupmode="layer"
     id="layer1">
    <rect
       style="opacity:0.98999999;fill:#ffffff;fill-opacity:1;fill-rule:nonzero;stroke:#000000;stroke-width:5;stroke-linecap:butt;stroke-linejoin:round;stroke-miterlimit:4;stroke-opacity:1;stroke-dasharray:none;stroke-dashoffset:0"
       id="rect3877"
       width="98.984711"
       height="98.984711"
       x="143.55988"
       y="559.60297"
       inkscape:export-filename="C:\Daten\Dropbox\Gamelab\Projekt\Bin\Data\GUI\HUD\Icons\ssp_papier.png"
       inkscape:export-xdpi="86.53846"
       inkscape:export-ydpi="86.53846" />
    <path
       style="fill:none;stroke:#000000;stroke-width:2.19239092;stroke-linecap:butt;stroke-linejoin:miter;stroke-miterlimit:4;stroke-opacity:1;stroke-dasharray:none"
       d="m 194.20867,589.3719 -35.86689,24.14324 -4.62798,3.08 37.98804,11.92259 40.88053,-28.2168 -6.07422,-1.88773 z"
       id="path3775"
       inkscape:connector-curvature="0"
       sodipodi:nodetypes="ccccccc" />
    <path
       style="fill:none;stroke:#000000;stroke-width:3;stroke-linecap:butt;stroke-linejoin:miter;stroke-opacity:1;stroke-miterlimit:4;stroke-dasharray:none"
       d="m 301.07143,607.36218 c 0.50696,-13.1149 5.47887,-22.80591 23.75,-29.82143 15.25274,-5.85655 21.77915,-1.41065 31.07143,2.67857 4.0038,1.76194 7.39417,12.43767 11.60714,21.42858 6.83722,14.59133 4.92822,24.01983 -11.42857,27.5 -10.80144,2.29818 -17.70884,7.28626 -33.57143,6.78571 -8.14807,-0.25712 -7.47083,1.63676 -17.32143,-4.10714 -6.64942,-3.87729 -4.8579,-5.04227 -4.10714,-24.46429 z"
       id="path3789"
       inkscape:connector-curvature="0"
       sodipodi:nodetypes="ssssssss" />
    <path
       style="fill:none;stroke:#000000;stroke-width:2;stroke-linecap:butt;stroke-linejoin:miter;stroke-opacity:1;stroke-miterlimit:4;stroke-dasharray:none"
       d="m 301.60715,602.00504 c 0,0 3.05735,13.30808 8.21428,13.74999 15.95796,1.36749 18.02333,4.85566 33.75,3.2143 2.82484,-0.29483 9.55155,2.48968 20.17857,-7.14286 1.74749,-1.58396 5.53572,-4.46429 5.53572,-4.46429"
       id="path3791"
       inkscape:connector-curvature="0"
       sodipodi:nodetypes="csssc" />
    <path
       style="fill:none;stroke:#000000;stroke-width:1;stroke-linecap:butt;stroke-linejoin:miter;stroke-opacity:1;stroke-miterlimit:4;stroke-dasharray:none"
       d="m 308.39287,615.75505 c -3.15459,12.84711 5.71427,12.67856 6.7857,20.17856"
       id="path3793"
       inkscape:connector-curvature="0"
       sodipodi:nodetypes="cc" />
    <path
       style="fill:none;stroke:#000000;stroke-width:1;stroke-linecap:round;stroke-linejoin:miter;stroke-opacity:1;stroke-miterlimit:4;stroke-dasharray:none"
       d="m 327.14286,602.71932 c 2.67857,0 4.82143,-5.35714 14.82143,-2.85714 10,2.5 11.92847,1.92478 17.85714,1.25 2.22628,-0.25339 6.42857,-1.96428 6.42857,-1.96428"
       id="path3795"
       inkscape:connector-curvature="0"
       sodipodi:nodetypes="cssc" />
    <path
       style="fill:none;stroke:#000000;stroke-width:1;stroke-linecap:butt;stroke-linejoin:miter;stroke-opacity:1;stroke-miterlimit:4;stroke-dasharray:none"
       d="m 357.32142,617.00504 c 2.29145,5.34829 -3.14857,7.35529 -0.71428,12.14286"
       id="path3797"
       inkscape:connector-curvature="0"
       sodipodi:nodetypes="cc" />
    <path
       style="fill:none;stroke:#000000;stroke-width:2.19239092;stroke-linecap:butt;stroke-linejoin:miter;stroke-miterlimit:4;stroke-opacity:1;stroke-dasharray:none"
       d="m 157.8597,617.9861 -4.62798,3.08 37.98805,11.92259 40.88053,-28.2168 -4.53157,-1.29161"
       id="path3775-7"
       inkscape:connector-curvature="0"
       sodipodi:nodetypes="ccccc" />
    <path
       style="fill:none;stroke:#000000;stroke-width:2.19239092;stroke-linecap:butt;stroke-linejoin:miter;stroke-miterlimit:4;stroke-opacity:1;stroke-dasharray:none"
       d="m 157.85969,622.30804 -4.62798,3.07999 37.98805,11.92259 40.88053,-28.21679 -4.53157,-1.2916"
       id="path3775-7-4"
       inkscape:connector-curvature="0"
       sodipodi:nodetypes="ccccc" />
    <path
       style="fill:#000000;fill-opacity:1;stroke:#000000;stroke-width:1px;stroke-linecap:butt;stroke-linejoin:miter;stroke-opacity:1"
       d="m 320.98407,452.50537 -43.0812,33.61518 c 0,0 -4.64097,-1.13557 -7.76328,-1.00971 -3.44004,0.13865 5.97116,-2.07304 9.12222,-4.54352 16.15786,-12.66799 13.00677,-10.84956 36.74624,-28.96381 2.2151,-1.6902 4.97603,0.90184 4.97603,0.90184 z"
       id="path3847"
       inkscape:connector-curvature="0"
       sodipodi:nodetypes="ccsssc" />
    <path
       sodipodi:type="arc"
       style="opacity:0.98999999;fill:#000000;fill-opacity:1;fill-rule:nonzero;stroke:#000000;stroke-width:5;stroke-linecap:butt;stroke-linejoin:round;stroke-miterlimit:4;stroke-opacity:1;stroke-dasharray:none;stroke-dashoffset:0"
       id="path3849"
       sodipodi:cx="211.33928"
       sodipodi:cy="565.48718"
       sodipodi:rx="7.0535712"
       sodipodi:ry="13.839286"
       d="m 218.39285,565.48718 a 7.0535712,13.839286 0 1 1 -14.10714,0 7.0535712,13.839286 0 1 1 14.10714,0 z"
       transform="matrix(0.61000082,0.79240078,-0.79240078,0.61000082,586.64594,-16.571425)" />
    <path
       sodipodi:type="arc"
       style="opacity:0.98999999;fill:#ffffff;fill-opacity:1;fill-rule:nonzero;stroke:#000000;stroke-width:1;stroke-linecap:butt;stroke-linejoin:round;stroke-miterlimit:4;stroke-opacity:1;stroke-dasharray:none;stroke-dashoffset:0"
       id="path3851"
       sodipodi:cx="233.66072"
       sodipodi:cy="563.07648"
       sodipodi:rx="3.6607144"
       sodipodi:ry="8.75"
       d="m 237.32144,563.07648 a 3.6607144,8.75 0 1 1 -7.32143,0 3.6607144,8.75 0 1 1 7.32143,0 z"
       transform="matrix(1.1360437,1.4757388,-1.1591443,0.89232483,654.62168,-351.24799)" />
    <path
       style="fill:#000000;fill-opacity:1;stroke:#000000;stroke-width:1px;stroke-linecap:butt;stroke-linejoin:miter;stroke-opacity:1"
       d="m 323.61869,493.2711 -46.84171,-28.13934 c 0,0 -4.4689,1.69032 -7.5834,1.94423 -3.43148,0.27979 6.17858,1.33318 9.60613,3.40306 17.57558,10.61383 14.22713,9.19116 39.98918,24.29103 2.40383,1.40892 4.8298,-1.49898 4.8298,-1.49898 z"
       id="path3847-0"
       inkscape:connector-curvature="0"
       sodipodi:nodetypes="ccsssc" />
    <path
       sodipodi:type="arc"
       style="opacity:0.98999999;fill:#000000;fill-opacity:1;fill-rule:nonzero;stroke:#000000;stroke-width:5;stroke-linecap:butt;stroke-linejoin:round;stroke-miterlimit:4;stroke-opacity:1;stroke-dasharray:none;stroke-dashoffset:0"
       id="path3849-9"
       sodipodi:cx="211.33928"
       sodipodi:cy="565.48718"
       sodipodi:rx="7.0535712"
       sodipodi:ry="13.839286"
       d="m 218.39285,565.48718 a 7.0535712,13.839286 0 1 1 -14.10714,0 7.0535712,13.839286 0 1 1 14.10714,0 z"
       transform="matrix(0.50934385,-0.8605631,-0.8605631,-0.50934385,644.23527,926.64656)" />
    <path
       sodipodi:type="arc"
       style="opacity:0.98999999;fill:#ffffff;fill-opacity:1;fill-rule:nonzero;stroke:#000000;stroke-width:1;stroke-linecap:butt;stroke-linejoin:round;stroke-miterlimit:4;stroke-opacity:1;stroke-dasharray:none;stroke-dashoffset:0"
       id="path3851-4"
       sodipodi:cx="233.66072"
       sodipodi:cy="563.07648"
       sodipodi:rx="3.6607144"
       sodipodi:ry="8.75"
       d="m 237.32144,563.07648 a 3.6607144,8.75 0 1 1 -7.32143,0 3.6607144,8.75 0 1 1 7.32143,0 z"
       transform="matrix(0.94858365,-1.6026819,-1.2588538,-0.74508136,752.31827,1250.6021)" />
  </g>
</svg>
